<svg width="58" height="58" viewBox="0 0 58 58" fill="none" xmlns="http://www.w3.org/2000/svg">
<path d="M10.625 12.625H44.75C46.4069 12.625 47.75 13.9681 47.75 15.625C47.75 17.2819 46.4069 18.625 44.75 18.625H10.625V12.625Z" fill="#F5F8FF"/>
<path d="M13.625 26.125H48.125C49.7819 26.125 51.125 27.4681 51.125 29.125C51.125 30.7819 49.7819 32.125 48.125 32.125H13.625V26.125Z" fill="#F5F8FF"/>
<path d="M9.125 39.625H43.625C45.2819 39.625 46.625 40.9681 46.625 42.625C46.625 44.2819 45.2819 45.625 43.625 45.625H9.125V39.625Z" fill="#F5F8FF"/>
<path d="M44.75 8.875C48.4779 8.875 51.5 11.8971 51.5 15.625C51.5 19.3529 48.4779 22.375 44.75 22.375H9.5C8.46447 22.375 7.625 21.5355 7.625 20.5C7.625 19.4645 8.46447 18.625 9.5 18.625H44.75C46.4069 18.625 47.75 17.2819 47.75 15.625C47.75 13.9681 46.4069 12.625 44.75 12.625H9.5C8.46447 12.625 7.625 11.7855 7.625 10.75C7.625 9.71447 8.46447 8.875 9.5 8.875H44.75Z" fill="#99B6FF"/>
<path d="M48.125 22.375C51.8529 22.375 54.875 25.3971 54.875 29.125C54.875 32.8529 51.8529 35.875 48.125 35.875H12.875C11.8395 35.875 11 35.0355 11 34C11 32.9645 11.8395 32.125 12.875 32.125H48.125C49.7819 32.125 51.125 30.7819 51.125 29.125C51.125 27.4681 49.7819 26.125 48.125 26.125H12.875C11.8395 26.125 11 25.2855 11 24.25C11 23.2145 11.8395 22.375 12.875 22.375H48.125Z" fill="#4279FF"/>
<path d="M43.25 35.875C46.9779 35.875 50 38.8971 50 42.625C50 46.3529 46.9779 49.375 43.25 49.375H8C6.96447 49.375 6.125 48.5355 6.125 47.5C6.125 46.4645 6.96447 45.625 8 45.625H43.25C44.9069 45.625 46.25 44.2819 46.25 42.625C46.25 40.9681 44.9069 39.625 43.25 39.625H8C6.96447 39.625 6.125 38.7855 6.125 37.75C6.125 36.7145 6.96447 35.875 8 35.875H43.25Z" fill="#99B6FF"/>
<path d="M35.75 8.875C35.75 8.46079 36.0858 8.125 36.5 8.125H42.875C43.2892 8.125 43.625 8.46079 43.625 8.875V19.2286C43.625 19.5614 43.2237 19.7293 42.9867 19.4957L39.9508 16.5022C39.8048 16.3583 39.5702 16.3583 39.4242 16.5022L36.3883 19.4957C36.1513 19.7293 35.75 19.5614 35.75 19.2286V8.875Z" fill="#4279FF"/>
</svg>
