<svg width="46" height="52" viewBox="0 0 46 52" fill="none" xmlns="http://www.w3.org/2000/svg">
<path d="M34.6756 6.17756V2.34336C34.6756 1.33566 33.8399 0.5 32.8322 0.5C31.8245 0.5 30.9888 1.33566 30.9888 2.34336V6.03009H15.0131V2.34336C15.0131 1.33566 14.1774 0.5 13.1697 0.5C12.162 0.5 11.3264 1.33566 11.3264 2.34336V6.17756C4.69025 6.79202 1.47051 10.7491 0.978942 16.6233C0.929785 17.3361 1.51966 17.9259 2.20785 17.9259H43.7941C44.5069 17.9259 45.0967 17.3115 45.023 16.6233C44.5314 10.7491 41.3117 6.79202 34.6756 6.17756Z" fill="#0055FF"/>
<path opacity="0.3" d="M42.6628 21.6129C44.0146 21.6129 45.1206 22.7189 45.1206 24.0707V39.2109C45.1206 46.5844 41.4339 51.5 32.8315 51.5H13.169C4.56661 51.5 0.879883 46.5844 0.879883 39.2109V24.0707C0.879883 22.7189 1.9859 21.6129 3.3377 21.6129H42.6628Z" fill="#0055FF"/>
<path opacity="0.4" d="M14.3978 34.2948C13.7587 34.2948 13.1197 34.0244 12.6527 33.582C12.2103 33.115 11.9399 32.476 11.9399 31.8369C11.9399 31.1979 12.2103 30.5589 12.6527 30.0919C13.3409 29.4037 14.4223 29.1825 15.3317 29.5757C15.6512 29.6986 15.9216 29.8707 16.1428 30.0919C16.5852 30.5589 16.8556 31.1979 16.8556 31.8369C16.8556 32.476 16.5852 33.115 16.1428 33.582C15.6758 34.0244 15.0368 34.2948 14.3978 34.2948Z" fill="#0055FF"/>
<path opacity="0.4" d="M23.0003 34.2948C22.3613 34.2948 21.7222 34.0244 21.2552 33.582C20.8128 33.115 20.5425 32.476 20.5425 31.8369C20.5425 31.1979 20.8128 30.5589 21.2552 30.0919C21.4765 29.8707 21.7468 29.6986 22.0663 29.5757C22.9757 29.1825 24.0572 29.4037 24.7454 30.0919C25.1878 30.5589 25.4581 31.1979 25.4581 31.8369C25.4581 32.476 25.1878 33.115 24.7454 33.582C24.6225 33.6803 24.4996 33.7786 24.3767 33.8769C24.2292 33.9752 24.0817 34.049 23.9343 34.0981C23.7868 34.1719 23.6393 34.221 23.4919 34.2456C23.3198 34.2702 23.1723 34.2948 23.0003 34.2948Z" fill="#0055FF"/>
<path d="M31.6024 34.295C30.9633 34.295 30.3243 34.0247 29.8573 33.5823C29.4149 33.1153 29.1445 32.4762 29.1445 31.8372C29.1445 31.1982 29.4149 30.5591 29.8573 30.0922C30.1031 29.871 30.3489 29.6989 30.6684 29.576C31.1108 29.3794 31.6024 29.3302 32.0939 29.4286C32.2414 29.4531 32.3889 29.5023 32.5363 29.576C32.6838 29.6252 32.8313 29.6989 32.9787 29.7972C33.1016 29.8955 33.2245 29.9938 33.3474 30.0922C33.7898 30.5591 34.0602 31.1982 34.0602 31.8372C34.0602 32.4762 33.7898 33.1153 33.3474 33.5823C33.2245 33.6806 33.1016 33.7789 32.9787 33.8772C32.8313 33.9755 32.6838 34.0493 32.5363 34.0984C32.3889 34.1721 32.2414 34.2213 32.0939 34.2459C31.9219 34.2705 31.7498 34.295 31.6024 34.295Z" fill="#0055FF"/>
<path opacity="0.4" d="M14.3978 42.8974C14.0782 42.8974 13.7587 42.8237 13.4638 42.7008C13.1443 42.5779 12.8985 42.4058 12.6527 42.1846C12.2103 41.7176 11.9399 41.0786 11.9399 40.4396C11.9399 39.8005 12.2103 39.1615 12.6527 38.6945C12.8985 38.4733 13.1443 38.3013 13.4638 38.1784C13.9062 37.9817 14.3978 37.9326 14.8893 38.0309C15.0368 38.0555 15.1843 38.1046 15.3317 38.1784C15.4792 38.2275 15.6267 38.3013 15.7741 38.3996L16.1428 38.6945C16.5852 39.1615 16.8556 39.8005 16.8556 40.4396C16.8556 41.0786 16.5852 41.7176 16.1428 42.1846C16.0199 42.2829 15.897 42.4058 15.7741 42.4796C15.6267 42.5779 15.4792 42.6516 15.3317 42.7008C15.1843 42.7745 15.0368 42.8237 14.8893 42.8482C14.7173 42.8728 14.5698 42.8974 14.3978 42.8974Z" fill="#0055FF"/>
<path opacity="0.4" d="M23.0003 42.8971C22.3613 42.8971 21.7222 42.6268 21.2552 42.1844C20.8128 41.7174 20.5425 41.0784 20.5425 40.4393C20.5425 39.8003 20.8128 39.1615 21.2552 38.6945C22.1646 37.7851 23.836 37.7851 24.7454 38.6945C25.1878 39.1615 25.4581 39.8003 25.4581 40.4393C25.4581 41.0784 25.1878 41.7174 24.7454 42.1844C24.2784 42.6268 23.6393 42.8971 23.0003 42.8971Z" fill="#0055FF"/>
<path d="M31.6024 42.8971C30.9633 42.8971 30.3243 42.6268 29.8573 42.1844C29.4149 41.7174 29.1445 41.0784 29.1445 40.4393C29.1445 39.8003 29.4149 39.1615 29.8573 38.6945C30.7667 37.7851 32.438 37.7851 33.3474 38.6945C33.7898 39.1615 34.0602 39.8003 34.0602 40.4393C34.0602 41.0784 33.7898 41.7174 33.3474 42.1844C32.8804 42.6268 32.2414 42.8971 31.6024 42.8971Z" fill="#0055FF"/>
</svg>
