<svg width="30" height="30" viewBox="0 0 30 30" fill="none" xmlns="http://www.w3.org/2000/svg">
<path d="M14.989 18.22C14.4957 18.22 14.0623 18.12 13.689 17.92C13.329 17.7067 13.049 17.42 12.849 17.06C12.649 16.7 12.549 16.2933 12.549 15.84C12.549 15.3733 12.649 14.96 12.849 14.6C13.049 14.24 13.329 13.96 13.689 13.76C14.0623 13.5467 14.4957 13.44 14.989 13.44C15.4957 13.44 15.929 13.5467 16.289 13.76C16.6623 13.96 16.949 14.24 17.149 14.6C17.349 14.96 17.449 15.3733 17.449 15.84C17.449 16.2933 17.349 16.7 17.149 17.06C16.949 17.42 16.6623 17.7067 16.289 17.92C15.929 18.12 15.4957 18.22 14.989 18.22Z" fill="#474752"/>
</svg>
