<svg width="50" height="50" viewBox="0 0 50 50" fill="none" xmlns="http://www.w3.org/2000/svg">
<path d="M13.543 25.6609C13.8191 25.1827 14.4307 25.0188 14.909 25.2949L23.5692 30.2949C24.0475 30.5711 24.2114 31.1827 23.9353 31.6609L16.558 44.4388C16.1251 45.1886 15.0087 45.0714 14.7409 44.2481L13.2174 39.5627C13.0592 39.0762 12.5592 38.7875 12.0587 38.8938L7.23937 39.917C6.39248 40.0968 5.73276 39.1886 6.16565 38.4388L13.543 25.6609Z" fill="white" stroke="#99B6FF" stroke-width="4"/>
<path d="M36.6309 25.6609C36.3547 25.1827 35.7431 25.0188 35.2648 25.2949L26.6046 30.2949C26.1263 30.5711 25.9624 31.1827 26.2386 31.6609L33.6159 44.4388C34.0488 45.1886 35.1652 45.0714 35.4329 44.2481L36.9564 39.5627C37.1146 39.0762 37.6146 38.7875 38.1151 38.8938L42.9345 39.917C43.7814 40.0968 44.4411 39.1886 44.0082 38.4388L36.6309 25.6609Z" fill="white" stroke="#99B6FF" stroke-width="4"/>
<circle cx="25.043" cy="18.7949" r="14" fill="white" stroke="#7099FF" stroke-width="4"/>
<rect x="22.957" y="13" width="4" height="12" rx="2" fill="#4279FF"/>
<rect x="31.2627" y="16.0176" width="4" height="11.1855" rx="2" transform="rotate(53.943 31.2627 16.0176)" fill="#4279FF"/>
<rect width="4" height="11.1855" rx="2" transform="matrix(-0.58859 0.808432 0.808432 0.58859 18.8223 16.0176)" fill="#4279FF"/>
</svg>
