<svg width="50" height="50" viewBox="0 0 50 50" fill="none" xmlns="http://www.w3.org/2000/svg">
<path d="M9 44V7C9 5.89543 9.89543 5 11 5H39C40.1046 5 41 5.89543 41 7V39.1716C41 39.702 40.7893 40.2107 40.4142 40.5858L35.5858 45.4142C35.2107 45.7893 34.702 46 34.1716 46H11C9.89543 46 9 45.1046 9 44Z" fill="white" stroke="#99B6FF" stroke-width="4" stroke-linecap="round" stroke-linejoin="round"/>
<path d="M32 46V39C32 37.8954 32.8954 37 34 37H41" stroke="#99B6FF" stroke-width="4" stroke-linecap="round" stroke-linejoin="round"/>
<path d="M17 14L33 14" stroke="#7099FF" stroke-width="4" stroke-linecap="round" stroke-linejoin="round"/>
<path d="M17 22L33 22" stroke="#7099FF" stroke-width="4" stroke-linecap="round" stroke-linejoin="round"/>
<path d="M17 30L25 30" stroke="#7099FF" stroke-width="4" stroke-linecap="round" stroke-linejoin="round"/>
</svg>
