<svg width="50" height="50" viewBox="0 0 50 50" fill="none" xmlns="http://www.w3.org/2000/svg">
<path d="M30.9863 4C35.1283 4 38.4861 7.482 38.4863 11.7773C38.4863 14.1706 37.4429 16.3102 35.8032 17.7368C35.6893 17.836 35.7142 18.023 35.8511 18.0868C40.5698 20.2856 43.9146 25.5864 43.9852 31.7994C43.9864 31.9098 43.8968 32 43.7863 32H18.1863C18.0759 32 17.9862 31.9098 17.9875 31.7994C18.058 25.5866 21.4023 20.2857 26.1206 18.0868C26.2575 18.023 26.2825 17.836 26.1685 17.7368C24.5293 16.3102 23.4863 14.1703 23.4863 11.7773C23.4866 7.48201 26.8443 4.00002 30.9863 4Z" fill="white"/>
<path d="M30.9863 4V2H30.9863L30.9863 4ZM38.4863 11.7773H40.4863V11.7772L38.4863 11.7773ZM23.4863 11.7773L21.4863 11.7772V11.7773H23.4863ZM26.1206 18.0868L26.9655 19.8996L26.1206 18.0868ZM26.1685 17.7368L27.4815 16.2282L26.1685 17.7368ZM43.9852 31.7994L41.9853 31.8221L43.9852 31.7994ZM35.8032 17.7368L37.116 19.2457L35.8032 17.7368ZM35.8511 18.0868L35.0064 19.8997L35.8511 18.0868ZM30.9863 4V6C33.9559 6 36.4862 8.51745 36.4863 11.7774L38.4863 11.7773L40.4863 11.7772C40.486 6.44654 36.3008 2 30.9863 2V4ZM38.4863 11.7773H36.4863C36.4863 13.5806 35.7021 15.1738 34.4904 16.228L35.8032 17.7368L37.116 19.2457C39.1836 17.4466 40.4863 14.7605 40.4863 11.7773H38.4863ZM35.8511 18.0868L35.0064 19.8997C38.9444 21.7347 41.9224 26.2819 41.9853 31.8221L43.9852 31.7994L45.9851 31.7767C45.9068 24.8909 42.1951 18.8365 36.6959 16.274L35.8511 18.0868ZM43.7863 32V30H18.1863V32V34H43.7863V32ZM17.9875 31.7994L19.9873 31.8221C20.0503 26.282 23.0277 21.7347 26.9655 19.8996L26.1206 18.0868L25.2758 16.274C19.7768 18.8367 16.0658 24.8912 15.9876 31.7767L17.9875 31.7994ZM26.1685 17.7368L27.4815 16.2282C26.2703 15.1741 25.4863 13.5807 25.4863 11.7773H23.4863H21.4863C21.4863 14.7599 22.7882 17.4463 24.8555 19.2455L26.1685 17.7368ZM23.4863 11.7773L25.4863 11.7774C25.4865 8.51747 28.0168 6.00001 30.9863 6L30.9863 4L30.9863 2C25.6719 2.00002 21.4866 6.44654 21.4863 11.7772L23.4863 11.7773ZM26.1206 18.0868L26.9655 19.8996C28.4374 19.2137 28.6682 17.261 27.4815 16.2282L26.1685 17.7368L24.8555 19.2455C23.8967 18.411 24.0776 16.8324 25.2758 16.274L26.1206 18.0868ZM18.1863 32V30C19.1825 30 19.9988 30.8123 19.9873 31.8221L17.9875 31.7994L15.9876 31.7767C15.9736 33.0073 16.9693 34 18.1863 34V32ZM43.9852 31.7994L41.9853 31.8221C41.9738 30.8124 42.7902 30 43.7863 30V32V34C45.0034 34 45.999 33.0073 45.9851 31.7767L43.9852 31.7994ZM35.8032 17.7368L34.4904 16.228C33.3034 17.2608 33.5343 19.2137 35.0064 19.8997L35.8511 18.0868L36.6959 16.274C37.8941 16.8323 38.0751 18.4112 37.116 19.2457L35.8032 17.7368Z" fill="#99B6FF"/>
<path d="M19.9932 12.6641C24.4809 12.6641 28.1191 16.4369 28.1191 21.0908C28.1191 23.783 26.8997 26.1778 25.0046 27.7203C24.8839 27.8184 24.9086 28.0133 25.0509 28.0762C30.2321 30.3708 33.9209 36.0872 33.9931 42.7994C33.9942 42.9098 33.9046 43 33.7941 43H6.19414C6.08368 43 5.99403 42.9098 5.99522 42.7994C6.06738 36.0885 9.75494 30.3727 14.9346 28.0772C15.0768 28.0142 15.1015 27.8195 14.9809 27.7213C13.0858 26.1787 11.8672 23.7829 11.8672 21.0908C11.8672 16.4369 15.5054 12.6641 19.9932 12.6641Z" fill="white"/>
<path d="M19.9932 12.6641V10.6641V12.6641ZM28.1191 21.0908L30.1191 21.0908V21.0908H28.1191ZM11.8672 21.0908H9.86719V21.0908L11.8672 21.0908ZM14.9809 27.7213L16.2435 26.1702L14.9809 27.7213ZM33.9931 42.7994L35.9929 42.7779L33.9931 42.7994ZM25.0046 27.7203L26.267 29.2714L25.0046 27.7203ZM25.0509 28.0762L25.8607 26.2475L25.0509 28.0762ZM19.9932 12.6641V14.6641C23.3084 14.6641 26.1191 17.4723 26.1191 21.0908H28.1191H30.1191C30.1191 15.4014 25.6533 10.6641 19.9932 10.6641V12.6641ZM28.1191 21.0908L26.1191 21.0908C26.1191 23.1698 25.1796 24.9991 23.7421 26.1691L25.0046 27.7203L26.267 29.2714C28.6199 27.3565 30.1191 24.3961 30.1191 21.0908L28.1191 21.0908ZM25.0509 28.0762L24.241 29.9049C28.6242 31.846 31.9284 36.7989 31.9932 42.8209L33.9931 42.7994L35.9929 42.7779C35.9133 35.3755 31.84 28.8955 25.8607 26.2475L25.0509 28.0762ZM33.7941 43V41H6.19414V43V45H33.7941V43ZM5.99522 42.7994L7.9951 42.8209C8.05985 36.8 11.363 31.8476 15.7449 29.9057L14.9346 28.0772L14.1243 26.2487C8.14689 28.8977 4.07492 35.3769 3.99533 42.7779L5.99522 42.7994ZM14.9809 27.7213L16.2435 26.1702C14.8065 25.0005 13.8672 23.1704 13.8672 21.0908L11.8672 21.0908L9.86719 21.0908C9.86721 24.3954 11.3652 27.3569 13.7183 29.2724L14.9809 27.7213ZM11.8672 21.0908H13.8672C13.8672 17.4723 16.6779 14.6641 19.9932 14.6641V12.6641V10.6641C14.333 10.6641 9.86719 15.4014 9.86719 21.0908H11.8672ZM14.9346 28.0772L15.7449 29.9057C17.2749 29.2278 17.5022 27.1947 16.2435 26.1702L14.9809 27.7213L13.7183 29.2724C12.7009 28.4442 12.8788 26.8007 14.1243 26.2487L14.9346 28.0772ZM6.19414 43V41C7.19098 41 8.00594 41.8127 7.9951 42.8209L5.99522 42.7994L3.99533 42.7779C3.98212 44.0069 4.97639 45 6.19414 45V43ZM33.9931 42.7994L31.9932 42.8209C31.9823 41.8128 32.7973 41 33.7941 41V43V45C35.0119 45 36.0062 44.0069 35.9929 42.7779L33.9931 42.7994ZM25.0046 27.7203L23.7421 26.1691C22.483 27.1938 22.7107 29.2272 24.241 29.9049L25.0509 28.0762L25.8607 26.2475C27.1065 26.7993 27.2848 28.4431 26.267 29.2714L25.0046 27.7203Z" fill="#7099FF"/>
</svg>
