<svg width="50" height="52" viewBox="0 0 50 52" fill="none" xmlns="http://www.w3.org/2000/svg">
<path opacity="0.3" d="M16.8332 31.7726H5.38007C2.68234 31.7726 0.475098 33.9798 0.475098 36.6776V51.3925H16.8332V31.7726Z" fill="#0055FF"/>
<path d="M28.2623 21.9626H21.7142C19.0163 21.9626 16.8091 24.1699 16.8091 26.8676V51.3925H33.1673V26.8676C33.1673 24.1699 30.9846 21.9626 28.2623 21.9626Z" fill="#0055FF"/>
<path opacity="0.3" d="M44.6201 39.1301H33.167V51.3925H49.5251V44.035C49.5251 41.3373 47.3179 39.1301 44.6201 39.1301Z" fill="#0055FF"/>
<path d="M32.3811 9.3323C33.1414 8.57203 33.4356 7.6646 33.1904 6.87981C32.9452 6.09501 32.1849 5.53096 31.1058 5.35929L28.7514 4.96687C28.6533 4.94234 28.4326 4.79517 28.3835 4.69707L27.0837 2.09743C26.1027 0.110915 23.8709 0.110915 22.8899 2.09743L21.5901 4.69707C21.5411 4.79517 21.3204 4.94234 21.2223 4.96687L18.8678 5.35929C17.7887 5.53096 17.053 6.09501 16.7832 6.87981C16.538 7.6646 16.8323 8.57203 17.5925 9.3323L19.4074 11.1717C19.481 11.2452 19.579 11.5396 19.5545 11.6377L19.0395 13.8939C18.6471 15.5616 19.2847 16.3218 19.7017 16.6407C20.1186 16.935 21.0261 17.3274 22.5221 16.4445L24.7293 15.1447C24.8274 15.0711 25.1462 15.0711 25.2443 15.1447L27.4516 16.4445C28.1383 16.8614 28.7023 16.9841 29.1438 16.9841C29.6588 16.9841 30.0267 16.7878 30.2474 16.6407C30.6643 16.3464 31.302 15.5861 30.9096 13.8939L30.3946 11.6377C30.37 11.515 30.4436 11.2452 30.5417 11.1717L32.3811 9.3323Z" fill="#0055FF"/>
</svg>
