<svg width="58" height="58" viewBox="0 0 58 58" fill="none" xmlns="http://www.w3.org/2000/svg">
<path d="M14.9147 15.3496H7.45752C7.45752 20.0634 9.93492 24.4304 13.9811 26.8487L16.1575 28.1496" stroke="#99B6FF" stroke-width="4" stroke-linecap="round" stroke-linejoin="round"/>
<path d="M43.0853 15.3496H50.5425C50.5425 20.0634 48.0651 24.4304 44.0189 26.8487L41.8425 28.1496" stroke="#99B6FF" stroke-width="4" stroke-linecap="round" stroke-linejoin="round"/>
<path d="M24.4431 34.9492H29.0002V46.5492H18.6431C22.9071 45.2059 25.5099 40.9045 24.7216 36.504L24.4431 34.9492Z" fill="#C7D7FF"/>
<path d="M33.5569 34.9492H28.9998V46.5492H39.3569C35.0929 45.2059 32.4901 40.9045 33.2784 36.504L33.5569 34.9492Z" fill="#C7D7FF"/>
<path d="M14.2655 48.8989C14.6486 47.5116 15.9108 46.5508 17.35 46.5508H40.6494C42.0886 46.5508 43.3508 47.5116 43.7339 48.8989L44.4628 51.5378C44.6035 52.0473 44.2202 52.5508 43.6916 52.5508H14.3077C13.7792 52.5508 13.3959 52.0473 13.5366 51.5378L14.2655 48.8989Z" fill="#99B6FF"/>
<path d="M12.6852 11.1779C12.5485 9.99055 13.4769 8.94922 14.6721 8.94922H43.3282C44.5234 8.94922 45.4517 9.99055 45.3151 11.1779L43.7729 24.579C42.9092 32.0843 36.555 37.7492 29.0001 37.7492C21.4453 37.7492 15.0911 32.0843 14.2274 24.579L12.6852 11.1779Z" fill="#E0E9FF"/>
<path d="M28.2423 14.0031C28.4867 13.2766 29.5142 13.2766 29.7587 14.0031L31.0494 17.8386C31.159 18.1642 31.4642 18.3834 31.8077 18.3834H35.9232C36.705 18.3834 37.0226 19.3894 36.3826 19.8384L33.1019 22.1397C32.8117 22.3434 32.69 22.7138 32.8031 23.0498L34.0676 26.8071C34.3139 27.5393 33.4823 28.1608 32.8499 27.7172L29.4599 25.3392C29.1842 25.1457 28.8168 25.1457 28.5411 25.3392L25.151 27.7172C24.5186 28.1608 23.687 27.5393 23.9334 26.8071L25.1978 23.0498C25.3109 22.7138 25.1893 22.3434 24.899 22.1397L21.6183 19.8384C20.9783 19.3894 21.296 18.3834 22.0777 18.3834H26.1933C26.5368 18.3834 26.842 18.1642 26.9515 17.8386L28.2423 14.0031Z" fill="#4279FF"/>
</svg>
