<svg width="24" height="24" viewBox="0 0 24 24" fill="none" xmlns="http://www.w3.org/2000/svg">
<path d="M11.293 4.29289C11.6835 3.90237 12.3165 3.90237 12.707 4.29289L19.707 11.2929C19.7548 11.3407 19.7976 11.3935 19.835 11.4501C19.8597 11.4876 19.8812 11.5265 19.9004 11.5663C19.9222 11.6115 19.9412 11.6583 19.9561 11.707C19.9623 11.7272 19.9668 11.7479 19.9717 11.7685C19.9893 11.8428 20 11.9202 20 11.9999C20 12.0829 19.9878 12.163 19.9688 12.2402C19.9646 12.2571 19.9611 12.2742 19.9561 12.2909C19.9412 12.3399 19.9223 12.387 19.9004 12.4325C19.8804 12.4742 19.8572 12.5145 19.8311 12.5536C19.8185 12.5725 19.8048 12.5904 19.791 12.6083C19.7649 12.6421 19.738 12.676 19.707 12.707L12.707 19.707C12.3165 20.0974 11.6835 20.0974 11.293 19.707C10.9025 19.3164 10.9025 18.6834 11.293 18.2929L16.5859 12.9999H5C4.44774 12.9999 4.00004 12.5522 4 11.9999C4 11.4476 4.44772 10.9999 5 10.9999H16.5859L11.293 5.70696C10.9025 5.31644 10.9025 4.68342 11.293 4.29289Z" fill="white"/>
</svg>
