<svg width="40" height="40" viewBox="0 0 40 40" fill="none" xmlns="http://www.w3.org/2000/svg">
<path fill-rule="evenodd" clip-rule="evenodd" d="M12.9825 9.00583C13.8832 8.98911 14.7826 9.08145 15.6611 9.28083C16.4007 9.44232 17.103 9.74282 17.7305 10.1663C18.31 10.5875 18.7686 11.1537 19.0601 11.8081C19.3952 12.6128 19.5568 13.4791 19.5345 14.3505C19.5726 15.3073 19.3282 16.2542 18.8319 17.0731C18.3097 17.8465 17.588 18.4642 16.7432 18.8606C17.8896 19.1697 18.8882 19.8776 19.5592 20.8571C20.2035 21.895 20.5273 23.0998 20.4901 24.3208C20.5114 25.2943 20.3101 26.2598 19.9016 27.1438C19.5241 27.9148 18.9712 28.5868 18.2874 29.1059C17.5833 29.6193 16.791 29.9991 15.9498 30.2265C15.0775 30.4679 14.1763 30.5891 13.2713 30.5868H3.33398V9.00583H12.9825ZM12.4091 17.7345C13.1168 17.7636 13.8134 17.5518 14.385 17.1336C14.6588 16.8899 14.8718 16.5855 15.0069 16.2448C15.142 15.9041 15.1956 15.5365 15.1633 15.1714C15.1816 14.745 15.0967 14.3205 14.9158 13.9339C14.7623 13.6261 14.5237 13.3689 14.2283 13.1928C13.9291 12.9989 13.5929 12.8692 13.241 12.8119C12.8592 12.7379 12.4707 12.7043 12.0819 12.7115H7.83581V17.7537H12.4091V17.7345ZM12.6566 26.9224C13.0846 26.9282 13.5117 26.882 13.9285 26.7849C14.3095 26.7007 14.6707 26.5444 14.9928 26.3242C15.3083 26.1042 15.5632 25.8082 15.7339 25.4635C15.9319 25.024 16.0228 24.5438 15.9993 24.0623C16.0422 23.6236 15.9841 23.1808 15.8294 22.768C15.6748 22.3552 15.4276 21.9833 15.1069 21.6808C14.4273 21.1802 13.5943 20.9322 12.7515 20.9795H7.83581V26.9224H12.6566Z" fill="white"/>
<path fill-rule="evenodd" clip-rule="evenodd" d="M26.9019 26.8426C27.2552 27.1701 27.6715 27.4224 28.1253 27.5841C28.5791 27.7457 29.0611 27.8135 29.5419 27.7831C30.3042 27.8024 31.0516 27.5705 31.6691 27.1231C32.1714 26.7965 32.5518 26.3131 32.7512 25.7481H36.3414C35.9589 27.3566 35.0247 28.7803 33.7014 29.7714C32.4318 30.6141 30.9315 31.0408 29.4085 30.9924C28.3216 31.0067 27.2428 30.8024 26.2364 30.3916C25.3259 30.0119 24.5094 29.4379 23.8438 28.7099C23.1808 27.947 22.6714 27.0632 22.3437 26.107C21.9759 25.0382 21.7958 23.9138 21.8115 22.7836C21.8048 21.6723 21.9909 20.5683 22.3616 19.5206C22.8595 18.0468 23.8115 16.7685 25.081 15.8693C26.3505 14.9701 27.8722 14.4962 29.4278 14.5155C30.5763 14.4915 31.712 14.7603 32.7279 15.2966C33.6461 15.8001 34.4383 16.5053 35.0448 17.3591C35.6651 18.255 36.1098 19.2605 36.3552 20.3223C36.6242 21.4624 36.7202 22.6365 36.6398 23.8052H25.9462C25.8596 24.9032 26.2022 25.992 26.9019 26.8426ZM31.5935 18.6351C31.2942 18.3358 30.9343 18.1041 30.538 17.9556C30.1416 17.8071 29.718 17.7453 29.2958 17.7743C28.7356 17.753 28.1795 17.8771 27.6815 18.1346C27.2868 18.3519 26.9383 18.6443 26.6558 18.9954C26.4054 19.3245 26.2188 19.6976 26.1057 20.0954C26.0039 20.4271 25.9402 20.7694 25.916 21.1157H32.5395C32.4818 20.2132 32.153 19.3491 31.5962 18.6365L31.5935 18.6351Z" fill="white"/>
<path d="M25.0621 10.4468H33.3617V12.5685H25.0621V10.4468Z" fill="white"/>
</svg>
