<svg width="24" height="24" viewBox="0 0 24 24" fill="none" xmlns="http://www.w3.org/2000/svg">
<g clip-path="url(#clip0_4_466)">
<path d="M13.6807 9.9082C13.4483 9.9082 13.2463 9.99155 13.0821 10.1608C12.9154 10.3275 12.832 10.5346 12.832 10.7745C12.832 11.0145 12.9154 11.2216 13.0821 11.3908C13.2488 11.5575 13.4483 11.6434 13.6807 11.6434C13.9131 11.6434 14.1202 11.5575 14.2894 11.3908C14.4586 11.2191 14.5445 11.017 14.5445 10.7745C14.5445 10.5321 14.4586 10.3275 14.2894 10.1608C14.1202 9.98903 13.9181 9.9082 13.6807 9.9082Z" fill="#2F2F37"/>
<path d="M6.42385 9.91406C6.18896 9.91406 5.98689 9.99994 5.82272 10.1666C5.65602 10.3359 5.5752 10.5405 5.5752 10.7829C5.5752 11.0254 5.65855 11.2275 5.82272 11.3992C5.98689 11.5684 6.18896 11.6518 6.42385 11.6518C6.65875 11.6518 6.86586 11.5659 7.03256 11.3992C7.20179 11.2275 7.28514 11.0254 7.28514 10.7829C7.28514 10.5405 7.20179 10.3359 7.03256 10.1666C6.86333 9.99741 6.65875 9.91406 6.42385 9.91406Z" fill="#2F2F37"/>
<path d="M20.6821 3.5332H4.28484C3.02701 3.5332 1.99902 4.56119 1.99902 5.81902V15.0936C1.99902 16.3489 3.02701 17.3794 4.28484 17.3794H10.7255C10.7255 17.3794 11.9682 20.7741 12.4203 20.7741C12.8724 20.7741 14.2187 17.3794 14.2187 17.3794H20.6821C21.9424 17.3794 22.9704 16.3489 22.9704 15.0936V5.81902C22.9704 4.56119 21.9424 3.5332 20.6821 3.5332ZM8.08358 12.0955C7.76029 12.4592 7.26019 12.6133 6.71715 12.6133C6.22715 12.6133 5.86849 12.4668 5.60329 12.2622H5.58813V12.5224H4.35809V7.15767H5.58813V9.20859H5.60329C5.93669 8.92571 6.3787 8.8272 6.90153 8.81205C7.34606 8.79689 7.8108 9.07473 8.08864 9.39802C8.36647 9.71627 8.56853 10.2189 8.56853 10.7771C8.56853 11.3833 8.40688 11.7293 8.08358 12.0955ZM10.7255 12.5653H9.4677V9.24395C9.4677 8.47865 8.86152 8.37762 8.86152 8.37762V7.04654C8.86152 7.04654 10.622 7.15515 10.7255 9.28436V12.5653ZM15.6508 11.5474C15.5447 11.7874 15.3906 12.0021 15.1886 12.189C14.989 12.3759 14.7592 12.5199 14.499 12.6184C14.2414 12.7169 13.9661 12.7674 13.6781 12.7674C13.3902 12.7674 13.1275 12.7169 12.8724 12.6184C12.6148 12.5199 12.385 12.3759 12.1829 12.189C11.9758 11.992 11.8192 11.7773 11.7131 11.5373C11.607 11.3024 11.554 11.0473 11.554 10.7821C11.554 10.5169 11.607 10.2644 11.7131 10.0244C11.8217 9.78699 11.9758 9.56978 12.1829 9.37277C12.3875 9.18586 12.6148 9.04442 12.8724 8.94591C13.1275 8.84741 13.3978 8.79689 13.6781 8.79689C13.9585 8.79689 14.2414 8.84741 14.499 8.94591C14.7566 9.04442 14.9865 9.18839 15.1886 9.37277C15.3906 9.5622 15.5422 9.77689 15.6508 10.0194C15.7569 10.2568 15.8099 10.5144 15.8099 10.7847C15.8099 11.0549 15.7569 11.3075 15.6508 11.55V11.5474ZM20.5861 12.0829C20.5861 13.025 20.4068 13.6009 19.9875 14C19.4899 14.4748 18.7751 14.5076 18.1765 14.4218V13.4468C18.6766 13.4999 19.3662 13.169 19.3636 12.5199V12.2673H19.3485C19.0681 12.6563 18.659 12.7977 18.1134 12.7977C17.6082 12.7977 17.1688 12.6083 16.8732 12.2622C16.5777 11.9137 16.4287 11.4489 16.4287 10.8655C16.4287 10.2088 16.5954 9.69101 16.9238 9.30457C17.2521 8.92065 17.7244 8.74133 18.2649 8.74133C18.7474 8.74133 19.0504 8.85751 19.3485 9.12777H19.3636V8.83478H20.5861V12.0829Z" fill="#2F2F37"/>
<path d="M18.5201 9.91406C18.2852 9.91406 18.0857 9.99994 17.919 10.1666C17.7523 10.3359 17.6689 10.5405 17.6689 10.7829C17.6689 11.0254 17.7523 11.2275 17.919 11.3992C18.0857 11.5684 18.2852 11.6518 18.5201 11.6518C18.755 11.6518 18.9596 11.5659 19.1288 11.3992C19.2981 11.2275 19.3814 11.0254 19.3814 10.7829C19.3814 10.5405 19.2981 10.3359 19.1288 10.1666C18.9596 9.99741 18.7575 9.91406 18.5201 9.91406Z" fill="#2F2F37"/>
</g>
<defs>
<clipPath id="clip0_4_466">
<rect width="20.9714" height="17.2409" fill="white" transform="translate(1.99902 3.5332)"/>
</clipPath>
</defs>
</svg>
