<svg xmlns="http://www.w3.org/2000/svg" width="24" height="24" viewBox="0 0 24 24" fill="none">
  <path d="M7.37894 6.72064C7.37314 6.77675 7.39248 6.83093 7.43312 6.87543C7.46988 6.91799 7.52405 6.93927 7.57823 6.93927H11.6413C11.6529 6.93927 11.6607 6.93927 11.6723 6.93927C11.7032 6.93347 14.8725 6.42075 14.9266 3.20509C14.9266 3.15092 14.9073 3.09868 14.8686 3.05998C14.8299 3.02128 14.7777 3 14.7235 3H10.8771C10.8461 3.0058 7.64981 3.49918 7.37894 6.72258V6.72064Z" fill="#2F2F37"/>
  <path d="M16.287 13.3218H17.891C19.2144 13.3218 20.2882 12.246 20.2882 10.9226C20.2882 9.59921 19.2124 8.52539 17.891 8.52539H4.20024C4.08996 8.52539 3.99902 8.61439 3.99902 8.72661V12.3989C3.99902 12.3989 4.12479 18.5206 10.1982 18.5206C14.7856 18.5206 15.9813 15.0302 16.2889 13.3218H16.287ZM17.8349 9.74432C18.4772 9.74432 18.9996 10.2648 18.9996 10.9091C18.9996 11.5534 18.4772 12.0738 17.8349 12.0738C17.1925 12.0738 16.6701 11.5534 16.6701 10.9091C16.6701 10.2648 17.1925 9.74432 17.8349 9.74432Z" fill="#2F2F37"/>
</svg>