<svg width="21" height="21" viewBox="0 0 21 21" fill="none" xmlns="http://www.w3.org/2000/svg">
<g id="_&#234;&#178;&#169;&#235;&#166;&#172;_&#235;&#170;&#168;&#235;&#147;&#156;" clip-path="url(#clip0_1_8732)">
<path id="Vector" d="M9.06035 7.59011C11.6986 7.59011 14.3352 7.58329 16.9734 7.59182C19.1571 7.60035 20.9081 9.24671 20.9973 11.352C21.0916 13.6023 19.6033 15.4005 17.391 15.5711C16.4229 15.6462 15.8404 15.9328 15.3218 16.8728C13.5809 20.0274 10.0486 21.5441 6.56688 20.8224C3.20803 20.1263 0.576505 17.3301 0.169065 13.7848C-0.0397058 11.9611 0.0579452 10.1014 0.000701533 8.25719C-0.0178185 7.64471 0.332378 7.58329 0.810531 7.58499C3.55991 7.59523 6.30929 7.59011 9.06035 7.59011ZM16.47 11.6096H16.4583C16.4583 12.0344 16.4583 12.4609 16.4583 12.8858C16.4583 13.7234 16.6637 13.8889 17.4651 13.6978C18.4736 13.4573 19.2261 12.42 19.1133 11.4288C18.9904 10.3488 18.0729 9.44973 17.0273 9.4702C16.8388 9.47361 16.5239 9.78924 16.4953 9.99567C16.4195 10.5228 16.47 11.0705 16.47 11.6096Z" fill="white"/>
<path id="Vector_2" d="M14.544 0.116013C14.7511 2.45333 12.6482 5.05508 10.2086 5.29905C8.37516 5.4816 6.51642 5.40824 4.66947 5.44577C3.99265 5.45942 3.98592 5.04996 4.0903 4.53302C4.67284 1.65147 7.11916 0.0631245 9.12774 0.0631245C10.7525 0.0631245 12.3772 0.0153546 14.0019 0C14.1871 0 14.3723 0.0767731 14.5457 0.116013H14.544Z" fill="white"/>
</g>
<defs>
<clipPath id="clip0_1_8732">
<rect width="21" height="21" fill="white"/>
</clipPath>
</defs>
</svg>
