<svg width="32" height="32" viewBox="0 0 32 32" fill="none" xmlns="http://www.w3.org/2000/svg">
<path d="M23.0947 7.09375C23.5946 6.59397 24.4054 6.59391 24.9053 7.09375C25.4049 7.59361 25.405 8.4045 24.9053 8.9043L17.8105 15.999L24.9053 23.0938C25.4049 23.5936 25.405 24.4045 24.9053 24.9043C24.4055 25.4041 23.5946 25.4039 23.0947 24.9043L16 17.8096L8.90527 24.9043C8.40549 25.4041 7.59462 25.4039 7.09473 24.9043C6.59486 24.4044 6.59486 23.5936 7.09473 23.0938L14.1895 15.999L7.09473 8.9043C6.59486 8.40443 6.59486 7.59362 7.09473 7.09375C7.59461 6.59397 8.40543 6.59391 8.90527 7.09375L16 14.1885L23.0947 7.09375Z" fill="#474752"/>
</svg>
