<svg width="24" height="25" viewBox="0 0 24 25" fill="none" xmlns="http://www.w3.org/2000/svg">
<g id="icon">
<path id="Vector 1" d="M3 19.5V18.5C3 16.2909 4.79086 14.5 7 14.5H11C13.2091 14.5 15 16.2909 15 18.5V19.5M15 11.5C16.6569 11.5 18 10.1569 18 8.5C18 6.84315 16.6569 5.5 15 5.5M21 19.5V18.5C21 16.2909 19.2091 14.5 17 14.5H16.5M12 8.5C12 10.1569 10.6569 11.5 9 11.5C7.34315 11.5 6 10.1569 6 8.5C6 6.84315 7.34315 5.5 9 5.5C10.6569 5.5 12 6.84315 12 8.5Z" stroke="white" stroke-width="2" stroke-linecap="round" stroke-linejoin="round"/>
</g>
</svg>
