<svg width="20" height="20" viewBox="0 0 20 20" fill="none" xmlns="http://www.w3.org/2000/svg">
<rect width="20" height="20" rx="4" fill="#B3B3BC"/>
<path d="M8.79199 10.6047C9.05141 10.9515 9.38239 11.2384 9.76246 11.4461C10.1425 11.6537 10.5628 11.7772 10.9948 11.8082C11.4268 11.8391 11.8604 11.7768 12.2662 11.6254C12.672 11.474 13.0405 11.2372 13.3467 10.9309L15.1589 9.11864C15.7091 8.54899 16.0135 7.78604 16.0066 6.99411C15.9998 6.20219 15.6821 5.44464 15.1221 4.88464C14.5621 4.32464 13.8046 4.007 13.0126 4.00011C12.2207 3.99323 11.4578 4.29767 10.8881 4.84785L9.84912 5.88081" stroke="white" stroke-width="1.4" stroke-linecap="round" stroke-linejoin="round"/>
<path d="M11.2079 9.39873C10.9485 9.05191 10.6175 8.76495 10.2375 8.55729C9.85738 8.34964 9.43709 8.22616 9.00509 8.19522C8.5731 8.16428 8.1395 8.22661 7.73371 8.37798C7.32792 8.52935 6.95943 8.76622 6.65323 9.07253L4.84101 10.8847C4.29083 11.4544 3.9864 12.2173 3.99328 13.0093C4.00016 13.8012 4.31781 14.5587 4.87781 15.1187C5.43781 15.6787 6.19535 15.9964 6.98728 16.0033C7.77921 16.0102 8.54216 15.7057 9.1118 15.1555L10.1448 14.1226" stroke="white" stroke-width="1.4" stroke-linecap="round" stroke-linejoin="round"/>
</svg>
