<svg width="24" height="25" viewBox="0 0 24 25" fill="none" xmlns="http://www.w3.org/2000/svg">
<g id="icon">
<g id="Vector">
<path d="M4 5.5C4 4.94772 4.44772 4.5 5 4.5H9C9.55228 4.5 10 4.94772 10 5.5V9.5C10 10.0523 9.55228 10.5 9 10.5H5C4.44772 10.5 4 10.0523 4 9.5V5.5Z" stroke="white" stroke-width="2" stroke-linecap="round" stroke-linejoin="round"/>
<path d="M4 15.5C4 14.9477 4.44772 14.5 5 14.5H9C9.55228 14.5 10 14.9477 10 15.5V19.5C10 20.0523 9.55228 20.5 9 20.5H5C4.44772 20.5 4 20.0523 4 19.5V15.5Z" stroke="white" stroke-width="2" stroke-linecap="round" stroke-linejoin="round"/>
<path d="M14 5.5C14 4.94772 14.4477 4.5 15 4.5H19C19.5523 4.5 20 4.94772 20 5.5V9.5C20 10.0523 19.5523 10.5 19 10.5H15C14.4477 10.5 14 10.0523 14 9.5V5.5Z" stroke="white" stroke-width="2" stroke-linecap="round" stroke-linejoin="round"/>
<path d="M14 15.5C14 14.9477 14.4477 14.5 15 14.5H19C19.5523 14.5 20 14.9477 20 15.5V19.5C20 20.0523 19.5523 20.5 19 20.5H15C14.4477 20.5 14 20.0523 14 19.5V15.5Z" stroke="white" stroke-width="2" stroke-linecap="round" stroke-linejoin="round"/>
</g>
</g>
</svg>
