<svg width="20" height="19" viewBox="0 0 20 19" fill="none" xmlns="http://www.w3.org/2000/svg">
<g id="Group 1686557892">
<path id="Ellipse 105" d="M15.4721 14.2023C14.3398 15.7608 12.6831 16.8584 10.8064 17.2934C8.92972 17.7284 6.95909 17.4716 5.25656 16.5701C3.55404 15.6687 2.23397 14.1832 1.53889 12.3865C0.843806 10.5898 0.820394 8.60267 1.47295 6.79011C2.12551 4.97756 3.41021 3.46135 5.09103 2.52005C6.77184 1.57875 8.73588 1.27558 10.6223 1.66623C12.5087 2.05689 14.1908 3.11514 15.3596 4.64656C16.5283 6.17797 17.1052 8.0797 16.9842 10.0023M16.9842 10.0023L18.4842 8.50234M16.9842 10.0023L15.4842 8.50234" stroke="white" stroke-width="2" stroke-linecap="round" stroke-linejoin="round"/>
<path id="Vector 153" d="M9 5.5V9.5L12 12.5" stroke="white" stroke-width="2" stroke-linecap="round" stroke-linejoin="round"/>
</g>
</svg>
