<svg width="24" height="24" viewBox="0 0 24 24" fill="none" xmlns="http://www.w3.org/2000/svg">
<g id="youtube-mono" clip-path="url(#clip0_1_8729)">
<path id="Vector" fill-rule="evenodd" clip-rule="evenodd" d="M22.7462 4.83407C23.1185 5.20883 23.3859 5.67482 23.5216 6.18541C24.0234 8.06996 24.0234 12 24.0234 12C24.0234 12 24.0234 15.93 23.5216 17.8145C23.3859 18.3251 23.1185 18.7911 22.7462 19.1658C22.3738 19.5406 21.9095 19.811 21.3998 19.95C19.5234 20.4545 12.0234 20.4545 12.0234 20.4545C12.0234 20.4545 4.52344 20.4545 2.64707 19.95C2.13737 19.811 1.6731 19.5406 1.30073 19.1658C0.928354 18.7911 0.660943 18.3251 0.525256 17.8145C0.0234375 15.93 0.0234375 12 0.0234375 12C0.0234375 12 0.0234375 8.06996 0.525256 6.18541C0.660943 5.67482 0.928354 5.20883 1.30073 4.83407C1.6731 4.4593 2.13737 4.18891 2.64707 4.04996C4.52344 3.54541 12.0234 3.54541 12.0234 3.54541C12.0234 3.54541 19.5234 3.54541 21.3998 4.04996C21.9095 4.18891 22.3738 4.4593 22.7462 4.83407ZM15.8416 12L9.56885 8.43134V15.5686L15.8416 12Z" fill="white"/>
</g>
<defs>
<clipPath id="clip0_1_8729">
<rect width="24" height="24" fill="white"/>
</clipPath>
</defs>
</svg>
