<svg width="303" height="263" viewBox="0 0 303 263" fill="none" xmlns="http://www.w3.org/2000/svg">
<path opacity="0.1" d="M0.450454 81.6869C0.0687605 94.5555 4.78375 106.984 13.5701 116.444C22.9423 126.528 34.7302 133.061 48.0336 136.414C61.9297 139.926 76.773 139.367 90.8674 137.393C99.1574 136.234 107.416 134.652 115.618 132.753C115.613 132.81 115.608 132.866 115.603 132.922C115.243 139.098 114.504 145.246 113.482 151.329C112.925 154.634 112.28 157.919 111.545 161.186C111.198 162.749 110.811 164.316 110.407 165.875C110.209 166.646 110.004 167.434 109.789 168.198C109.756 168.32 109.627 168.751 109.548 169.068C109.46 169.361 109.358 169.686 109.339 169.776C107.438 176.18 105.132 182.486 102.374 188.577C100.946 191.737 99.4094 194.831 97.742 197.868C97.3636 198.561 96.9616 199.264 96.5668 199.95C96.3776 200.296 96.172 200.636 95.9664 200.975C95.9522 201.008 95.8647 201.165 95.7679 201.298C95.6804 201.455 95.5765 201.605 95.5623 201.638C95.3567 201.977 95.1347 202.31 94.9291 202.649C94.4354 203.429 93.9252 204.201 93.408 204.99C89.6413 210.624 85.3836 215.908 80.6377 220.747C80.2889 221.103 79.9238 221.451 79.575 221.806C79.3914 221.961 78.9978 222.374 78.9437 222.409C77.9002 223.379 76.8076 224.328 75.7291 225.243C73.5253 227.093 71.2516 228.835 68.8844 230.478C66.6256 232.051 64.2897 233.532 61.8839 234.904C61.8369 234.923 61.7992 234.965 61.7451 235C61.6981 235.019 61.6511 235.037 61.5735 235.081C60.974 235.386 60.4072 235.706 59.8148 235.994C58.4371 236.702 57.0408 237.363 55.6424 237.984C53.1345 239.099 50.5732 240.112 47.9727 240.991C46.7229 241.404 45.4732 241.816 44.2049 242.182C44.024 242.24 42.3655 242.787 42.3049 242.703C42.3049 242.703 43.9322 242.317 42.9366 242.548C42.5093 242.635 42.0913 242.746 41.6569 242.85C36.2353 244.084 30.732 244.698 25.1699 244.819C25.0901 244.824 25.0339 244.819 24.9705 244.83C24.9377 244.816 24.9142 244.825 24.8744 244.828C24.2247 244.799 23.568 244.787 22.9255 244.743C21.5137 244.676 20.1069 244.553 18.6979 244.39C15.9854 244.091 13.2948 243.606 10.6447 242.983C6.08251 241.92 0.98781 246.082 0.552322 250.589C0.0482116 255.748 3.26331 259.557 8.14889 260.682C32.7499 266.4 59.0118 259.084 79.4429 244.875C102.841 228.582 118.191 202.702 126.046 175.695C130.544 160.247 133.333 144.117 133.546 127.999C144.327 124.822 154.934 121.102 165.267 116.893C188.804 107.285 211.336 94.9221 232.119 80.2617C253.009 65.5314 272.22 48.2997 289.167 29.1511C293.178 24.6165 297.069 19.9524 300.811 15.1844C303.708 11.5114 303.38 5.48576 299.464 2.61883C295.598 -0.226812 289.988 0.0489591 286.905 3.97238C279.546 13.3094 271.686 22.2337 263.328 30.689C262.35 31.6873 261.356 32.6784 260.352 33.646C259.85 34.1298 259.365 34.6207 258.856 35.1209C258.613 35.3663 258.354 35.6047 258.111 35.8502C258.05 35.9016 257.869 36.0956 257.685 36.2498C257.388 36.5302 256.886 37.014 256.757 37.1332C256.255 37.617 255.737 38.0937 255.219 38.5704C254.107 39.6079 252.986 40.622 251.865 41.6361C247.456 45.6082 242.937 49.4743 238.299 53.2108C229.047 60.6746 219.392 67.6322 209.37 74.0415C204.36 77.2462 199.27 80.3191 194.108 83.2439C193.494 83.5818 192.897 83.9267 192.283 84.2646C192.159 84.3275 192.105 84.3624 192.027 84.4067C191.957 84.4346 191.926 84.4603 191.825 84.5139C190.496 85.2432 189.158 85.9489 187.814 86.6711C185.239 88.0291 182.639 89.3565 180.036 90.6439C169.377 95.9196 158.447 100.61 147.282 104.672C142.426 106.444 137.537 108.065 132.604 109.608C131.94 104.001 130.933 98.4213 129.513 92.8959C122.936 67.3856 105.265 44.293 80.2591 34.6586C67.7809 29.8521 54.3595 28.7474 41.4308 32.2985C30.4255 35.3198 20.416 42.2408 13.0446 50.8901C5.83825 59.3383 0.728638 70.449 0.408402 81.6492L0.450454 81.6869ZM61.063 235.406C61.063 235.406 61.4133 235.226 61.6696 235.084C61.4696 235.231 61.2297 235.38 61.063 235.406ZM118.007 113.819C118.007 113.819 118.007 113.819 117.984 113.829C117.786 113.879 117.589 113.93 117.392 113.981C117.108 114.053 117.084 114.062 118.023 113.826L118.007 113.819ZM22.5575 68.2827C22.7467 67.9361 23.0064 67.5617 23.2027 67.1987C23.2454 67.1003 23.3208 67.0161 23.3799 66.9248C24.06 65.8949 24.7894 64.8863 25.5444 63.9083C26.2475 63.0053 26.9833 62.1164 27.7612 61.2652C28.1455 60.8279 28.5391 60.414 28.9327 60.0002C29.1213 59.7898 29.3192 59.6028 29.5242 59.3994C29.3263 59.5864 29.1448 59.7805 29.112 59.7662C29.112 59.7662 29.2793 59.605 29.5548 59.3737C30.1605 58.7402 29.8729 59.0441 29.5548 59.3737C30.8404 58.2946 34.4729 55.3497 34.9506 55.0113C35.8989 54.3509 36.8728 53.7211 37.8724 53.1219C38.1123 52.9727 38.3851 52.8376 38.625 52.6884C39.4672 52.1379 37.8653 53.1383 37.8866 53.0891C38.0289 52.7611 39.3491 52.3205 39.6923 52.1576C41.9444 51.0494 44.2778 50.1129 46.6784 49.3808C46.8756 49.33 47.0565 49.272 47.2609 49.2047C47.3314 49.1769 47.3855 49.1419 47.4959 49.1118C47.4959 49.1118 47.4959 49.1118 47.4887 49.1282C47.4887 49.1282 47.5051 49.1353 47.5286 49.126C47.5521 49.1167 47.5592 49.1003 47.5827 49.091C47.8434 49.0287 48.1204 48.9735 48.3811 48.9112C49.5996 48.6602 50.8437 48.4398 52.0759 48.2922C53.3315 48.1352 54.5751 48.051 55.8279 47.9902C56.2666 47.9662 57.4944 47.7387 57.85 47.9513C57.85 47.9513 56.1662 47.8836 57.2261 47.9535C57.6762 47.9929 58.1243 47.9923 58.5652 48.0081C61.4707 48.1769 64.3493 48.5873 67.1917 49.2158C67.6697 49.3256 68.1406 49.4519 68.6022 49.5546C68.848 49.6612 69.2184 49.7049 69.4058 49.7667C70.7972 50.1946 72.1672 50.6718 73.5323 51.2052C76.2625 52.2722 78.9074 53.5359 81.4577 54.9729C81.5724 55.0226 81.68 55.0887 81.7876 55.1549C81.9601 55.3855 83.294 56.0808 83.4764 56.1989C84.7206 57.0111 85.9271 57.8655 87.103 58.7455C89.3963 60.4608 91.5694 62.3187 93.6364 64.2865C94.1339 64.7555 94.6243 65.2408 95.1147 65.7262C95.1824 65.7946 95.2573 65.8465 95.325 65.9148C95.444 66.0444 95.5395 66.1832 95.6493 66.2893C96.653 67.3869 97.6261 68.5102 98.5614 69.6756C100.362 71.8981 102.041 74.2235 103.564 76.6373C103.939 77.2091 104.29 77.7902 104.635 78.3876C104.714 78.5194 105.005 79.0157 105.2 79.3732C105.379 79.7236 105.77 80.4386 105.852 80.6102C106.282 81.4591 106.695 82.3009 107.102 83.1591C108.359 85.8278 109.484 88.5757 110.459 91.3559C110.932 92.6907 111.381 94.0349 111.783 95.3977C111.995 96.0744 112.185 96.7605 112.374 97.4465C112.464 97.7777 112.554 98.109 112.644 98.4403C113.868 103.744 114.749 109.075 115.26 114.498C115.086 114.54 114.912 114.581 114.738 114.623C102.615 117.529 90.2565 119.945 77.8066 120.82C76.2603 120.929 74.6884 121.007 73.14 121.076C72.2297 121.11 71.3266 121.127 70.4234 121.145C70.0552 121.141 69.6798 121.154 69.3116 121.15C69.2788 121.136 69.2788 121.136 69.2553 121.145C66.0307 120.994 62.8226 120.85 59.6156 120.433C56.2961 120.007 53.0128 119.363 49.7514 118.533C49.6695 118.498 49.5968 118.485 49.5241 118.473C49.4586 118.445 49.3603 118.402 49.1986 118.371C48.5873 118.165 47.9689 117.974 47.3576 117.768C46.0203 117.305 44.7044 116.793 43.4098 116.231C42.2135 115.713 41.0315 115.161 39.8636 114.577C39.2715 114.281 38.7029 113.976 38.1414 113.655C37.9519 113.553 37.7623 113.452 37.5635 113.326C37.5963 113.341 37.6219 113.371 37.6476 113.402C37.6148 113.388 37.5728 113.35 37.5471 113.319C37.4488 113.277 37.374 113.225 37.2827 113.166C36.3749 112.655 37.0048 112.909 37.4302 113.23C36.6127 112.466 35.2689 111.883 34.3781 111.244C33.146 110.359 31.9515 109.432 30.7855 108.439C29.8041 107.604 28.837 106.737 27.9075 105.827C27.8398 105.759 27.7721 105.691 27.7044 105.622C27.6521 105.249 26.4861 104.256 26.2223 103.967C25.4011 102.987 24.6176 101.966 23.881 100.925C23.5245 100.401 23.1516 99.8687 22.8115 99.3511C22.6368 99.0805 22.4621 98.8099 22.3038 98.5465C22.2688 98.4923 22.1804 98.3371 22.0663 98.1512C21.9408 97.902 21.5057 97.1094 21.4151 96.9142C21.1362 96.3452 20.8808 95.7669 20.6254 95.1885C20.0846 93.9214 19.5978 92.6194 19.1909 91.3129C19.1516 91.179 19.1123 91.0451 19.066 90.9275C19.0792 90.5826 18.7301 89.4571 18.6772 89.2198C18.4434 88.0079 18.2965 86.7753 18.1895 85.5404C18.1428 84.9746 18.1289 84.4231 18.1057 83.848C18.1013 83.7682 18.1063 83.7119 18.0948 83.6485C18.173 82.4355 18.2512 81.2225 18.4184 80.0286C18.5665 78.9238 18.7708 77.824 19.0314 76.729C19.0648 76.6071 19.1294 76.3234 19.2104 76.0468C19.3341 75.6718 19.4748 75.1678 19.5459 75.0038C20.3327 72.6953 21.3396 70.4628 22.5033 68.3177L22.5575 68.2827Z" fill="white"/>
</svg>
