<svg width="1430" height="246" viewBox="0 0 1430 246" fill="none" xmlns="http://www.w3.org/2000/svg">
<path d="M8.19695 237.165C100.637 155.823 205.282 84.5859 322.124 43.5988C379.795 23.3694 440.305 10.9147 501.504 9.52774C566.702 8.04639 632.183 19.3311 693.354 41.9193C722.718 52.7699 751.562 66.6588 778.53 82.5856C801.027 95.88 829.183 114.958 834.371 142.585C838.71 165.683 825.533 189.516 806.573 202.179C786.199 215.775 757.005 217.539 740.196 197.159C730.235 185.072 732.914 172.599 742.809 161.578C752.025 151.313 762.561 142.34 774.125 134.829C796.811 120.101 822.713 111.212 849.162 106.146C909.134 94.6628 972.738 101.211 1032.25 112.194C1159.66 135.707 1277.8 190.384 1398.02 236.448C1406.59 239.731 1415.21 243.373 1424.08 245.827C1428.12 246.94 1431.38 242.468 1429.41 238.901C1420.33 222.474 1410.41 206.396 1399.68 190.998C1396.23 186.054 1388.05 190.762 1391.54 195.763C1402.27 211.161 1412.19 227.248 1421.27 243.666L1426.6 236.74C1403.04 230.23 1379.94 219.408 1357.29 210.397C1323.93 197.131 1290.67 183.619 1257.2 170.655C1191.19 145.095 1124.09 121.657 1054.73 107.051C991.811 93.7948 925.113 85.6049 861.028 94.6817C832.824 98.6729 804.904 106.561 779.879 120.402C767.56 127.215 756.005 135.518 745.724 145.142C736.272 153.992 725.378 164.381 724.217 178.034C722.057 203.405 749.921 221.832 772.654 222.087C796.698 222.361 819.147 208.953 832.513 189.347C845.775 169.891 848.841 144.378 837.428 123.337C823.373 97.418 794.792 80.2456 769.635 66.7814C708.191 33.8898 642.625 11.7545 573.296 3.49855C509.003 -4.15351 443.663 1.02649 380.842 16.3023C253.907 47.1842 139.065 116.826 38.7492 198.867C26.1472 209.18 13.7528 219.738 1.52809 230.494C-3.03729 234.514 3.65043 241.165 8.19695 237.165Z" fill="#0055FF"/>
</svg>
