<svg width="133" height="765" viewBox="0 0 133 765" fill="none" xmlns="http://www.w3.org/2000/svg">
<path opacity="0.08" d="M58.64 708.15L129.87 657.32L129.87 682.82L74.45 722.26L99.44 744.36L129.87 744.36L129.87 764.93L3.55999 764.93L3.55999 744.36L69.35 744.36L3.38999 685.88L3.38999 658.17L58.64 708.15ZM110.15 588.866C110.15 594.76 108.847 600.03 106.24 604.676C103.52 609.21 99.8367 612.78 95.19 615.386C90.5433 617.88 85.2733 619.126 79.38 619.126L3.38999 619.126L3.38999 639.696L79.55 639.696C88.8433 639.696 97.4567 637.373 105.39 632.726C113.323 628.08 119.613 621.846 124.26 614.026C128.793 606.206 131.06 597.82 131.06 588.866C131.06 579.913 128.737 571.583 124.09 563.876C119.443 556.056 113.21 549.823 105.39 545.176C97.4567 540.53 88.8433 538.206 79.55 538.206L3.38998 538.206L3.38998 558.606L79.38 558.606C85.2733 558.606 90.5433 559.91 95.19 562.516C99.8367 565.123 103.52 568.75 106.24 573.396C108.847 577.93 110.15 583.086 110.15 588.866ZM132.25 462.161C132.59 464.541 132.76 466.977 132.76 469.471C132.76 479.897 129.53 490.324 123.07 500.751C119.67 506.191 115.703 510.611 111.17 514.011C106.523 517.297 102.443 519.564 98.93 520.811L92.13 501.771C94.0567 501.204 96.2667 500.014 98.76 498.201C101.253 496.274 103.577 493.667 105.73 490.381C108.11 486.641 109.867 483.184 111 480.011C112.02 476.837 112.53 473.551 112.53 470.151C112.53 468.111 112.36 466.014 112.02 463.861C111.567 459.554 110.547 455.814 108.96 452.641C107.033 448.787 104.483 445.954 101.31 444.141C99.3833 443.007 97.2867 442.441 95.02 442.441C91.96 442.441 89.24 443.461 86.86 445.501C85.2733 446.861 83.6867 449.467 82.1 453.321C80.4 457.061 78.19 463.351 75.47 472.191L72.75 480.861C70.71 487.434 68.2167 492.874 65.27 497.181C63.57 499.447 61.9267 501.487 60.34 503.301C58.64 505.114 57.28 506.361 56.26 507.041C53.54 509.194 50.31 510.894 46.57 512.141C42.83 513.388 39.0333 514.011 35.18 514.011C30.76 514.011 26.5667 513.104 22.6 511.291C15.9133 508.344 10.8133 503.811 7.29998 497.691C3.67331 491.571 1.57665 485.281 1.00998 478.821C0.783317 476.328 0.669985 474.288 0.669985 472.701C0.669984 467.261 1.40665 461.708 2.87998 456.041C4.23998 450.261 6.56331 444.821 9.84998 439.721C12.6833 435.074 15.5166 431.504 18.35 429.011L31.61 444.311C30.0233 445.897 28.55 447.824 27.19 450.091C22.2033 457.684 20.05 466.524 20.73 476.611C21.2966 480.351 22.26 483.581 23.62 486.301C24.98 489.021 27.3033 491.118 30.59 492.591C32.1767 493.384 33.9333 493.781 35.86 493.781C38.4666 493.781 41.0733 492.931 43.68 491.231C45.9467 489.417 47.7033 487.491 48.95 485.451C50.4233 483.411 51.9533 480.011 53.54 475.251L56.09 466.751C59.2633 456.551 62.21 448.787 64.93 443.461C67.65 438.134 70.4833 433.941 73.43 430.881C75.81 428.387 78.87 426.347 82.61 424.761C86.35 423.174 90.3733 422.381 94.68 422.381C99.5533 422.381 104.37 423.457 109.13 425.611C117.177 429.691 123.127 435.754 126.98 443.801C130.153 450.714 131.91 456.834 132.25 462.161ZM3.38998 382.462L129.87 382.462L129.87 402.862L3.38998 402.862L3.38998 382.462ZM23.45 270.09L23.45 305.45L129.87 305.45L129.87 326.02L23.45 326.02L23.45 361.89L3.38998 361.89L3.38997 270.09L23.45 270.09ZM129.87 119.949L129.87 140.689L35.52 140.689L101.82 176.899L101.82 195.429L35.52 230.789L129.87 230.789L129.87 251.359L3.38997 251.359L3.38997 223.649L73.09 185.739L3.38997 147.999L3.38996 119.949L129.87 119.949ZM132.25 40.2809C132.59 42.6609 132.76 45.0976 132.76 47.5909C132.76 58.0176 129.53 68.4443 123.07 78.8709C119.67 84.3109 115.703 88.7309 111.17 92.1309C106.523 95.4176 102.443 97.6843 98.93 98.931L92.13 79.891C94.0566 79.3243 96.2666 78.1343 98.76 76.3209C101.253 74.3943 103.577 71.7876 105.73 68.5009C108.11 64.7609 109.867 61.3043 111 58.1309C112.02 54.9576 112.53 51.6709 112.53 48.2709C112.53 46.2309 112.36 44.1343 112.02 41.9809C111.567 37.6743 110.547 33.9343 108.96 30.7609C107.033 26.9076 104.483 24.0743 101.31 22.2609C99.3833 21.1276 97.2866 20.5609 95.02 20.5609C91.96 20.5609 89.24 21.5809 86.86 23.6209C85.2733 24.9809 83.6866 27.5876 82.1 31.4409C80.4 35.1809 78.19 41.4709 75.47 50.311L72.75 58.981C70.71 65.5543 68.2166 70.9943 65.27 75.301C63.57 77.5676 61.9266 79.6076 60.34 81.421C58.64 83.2343 57.28 84.481 56.26 85.161C53.54 87.3143 50.31 89.0143 46.57 90.261C42.83 91.5076 39.0333 92.131 35.18 92.131C30.76 92.131 26.5666 91.2243 22.6 89.411C15.9133 86.4643 10.8133 81.931 7.29996 75.811C3.6733 69.691 1.57663 63.401 1.00996 56.941C0.783298 54.4476 0.669966 52.4076 0.669966 50.821C0.669966 45.381 1.40663 39.8276 2.87996 34.161C4.23996 28.381 6.56329 22.941 9.84996 17.8409C12.6833 13.1943 15.5166 9.62429 18.35 7.13095L31.61 22.4309C30.0233 24.0176 28.55 25.9443 27.19 28.2109C22.2033 35.8043 20.05 44.6443 20.73 54.731C21.2966 58.471 22.26 61.701 23.62 64.421C24.98 67.141 27.3033 69.2376 30.59 70.711C32.1766 71.5043 33.9333 71.901 35.86 71.901C38.4666 71.901 41.0733 71.051 43.68 69.351C45.9466 67.5376 47.7033 65.611 48.95 63.571C50.4233 61.531 51.9533 58.131 53.54 53.371L56.09 44.871C59.2633 34.6709 62.21 26.9076 64.93 21.5809C67.65 16.2543 70.4833 12.0609 73.43 9.00095C75.81 6.50761 78.87 4.46761 82.61 2.88094C86.35 1.29428 90.3733 0.500942 94.68 0.500942C99.5533 0.500942 104.37 1.57761 109.13 3.73095C117.177 7.81094 123.127 13.8743 126.98 21.9209C130.153 28.8343 131.91 34.9543 132.25 40.2809Z" fill="#F2F2F8"/>
</svg>
