<svg width="425" height="61" viewBox="0 0 425 61" fill="none" xmlns="http://www.w3.org/2000/svg">
<path d="M1.00513 20.3077L6.83077 14.4615C7.87009 13.4085 8.61539 12.5265 9.06667 11.8154C9.51795 11.0906 9.74359 10.4342 9.74359 9.84615C9.74359 8.88889 9.44274 8.14359 8.84103 7.61026C8.23932 7.06325 7.4188 6.78974 6.37949 6.78974C5.66838 6.78974 5.05299 6.95384 4.53333 7.28205C4.02735 7.59658 3.63761 8.02051 3.3641 8.55385C3.10427 9.08718 2.97436 9.66837 2.97436 10.2974H0.820513C0.820513 9.29914 1.04615 8.38974 1.49744 7.56923C1.96239 6.74872 2.6188 6.09914 3.46667 5.62051C4.31453 5.1282 5.29231 4.88205 6.4 4.88205C7.49402 4.88205 8.45128 5.08718 9.2718 5.49744C10.106 5.90769 10.7487 6.48889 11.2 7.24102C11.6513 7.99316 11.8769 8.8547 11.8769 9.82564C11.8769 10.6872 11.6171 11.5419 11.0974 12.3897C10.5778 13.2376 9.68205 14.3111 8.41026 15.6103L4.10256 19.8359H12.4308V21.7026H1.00513V20.3077ZM20.5795 22.0718C19.4034 22.0718 18.3573 21.7504 17.441 21.1077C16.5248 20.465 15.8068 19.5009 15.2872 18.2154C14.7675 16.9162 14.5077 15.3368 14.5077 13.4769C14.5077 11.6171 14.7675 10.0444 15.2872 8.75897C15.8068 7.45983 16.5248 6.48889 17.441 5.84615C18.3573 5.20342 19.4034 4.88205 20.5795 4.88205C21.7556 4.88205 22.7949 5.20342 23.6974 5.84615C24.6137 6.48889 25.3316 7.45983 25.8513 8.75897C26.3709 10.0444 26.6308 11.6171 26.6308 13.4769C26.6308 15.3368 26.3709 16.9162 25.8513 18.2154C25.3316 19.5009 24.6137 20.465 23.6974 21.1077C22.7949 21.7504 21.7556 22.0718 20.5795 22.0718ZM20.5795 20.1641C21.3316 20.1641 22.0085 19.9111 22.6103 19.4051C23.212 18.8991 23.6838 18.147 24.0256 17.1487C24.3812 16.1504 24.559 14.9265 24.559 13.4769C24.559 12.041 24.3812 10.8239 24.0256 9.82564C23.6838 8.81367 23.212 8.0547 22.6103 7.54872C22.0085 7.04273 21.3316 6.78974 20.5795 6.78974C19.8137 6.78974 19.1299 7.04273 18.5282 7.54872C17.9265 8.0547 17.4479 8.81367 17.0923 9.82564C16.7504 10.8239 16.5795 12.041 16.5795 13.4769C16.5795 14.9265 16.7504 16.1504 17.0923 17.1487C17.4479 18.147 17.9265 18.8991 18.5282 19.4051C19.1299 19.9111 19.8137 20.1641 20.5795 20.1641ZM28.6894 20.3077L34.5151 14.4615C35.5544 13.4085 36.2997 12.5265 36.751 11.8154C37.2022 11.0906 37.4279 10.4342 37.4279 9.84615C37.4279 8.88889 37.127 8.14359 36.5253 7.61026C35.9236 7.06325 35.1031 6.78974 34.0638 6.78974C33.3527 6.78974 32.7373 6.95384 32.2176 7.28205C31.7116 7.59658 31.3219 8.02051 31.0484 8.55385C30.7886 9.08718 30.6587 9.66837 30.6587 10.2974H28.5048C28.5048 9.29914 28.7304 8.38974 29.1817 7.56923C29.6467 6.74872 30.3031 6.09914 31.151 5.62051C31.9988 5.1282 32.9766 4.88205 34.0843 4.88205C35.1783 4.88205 36.1356 5.08718 36.9561 5.49744C37.7903 5.90769 38.433 6.48889 38.8843 7.24102C39.3356 7.99316 39.5612 8.8547 39.5612 9.82564C39.5612 10.6872 39.3014 11.5419 38.7817 12.3897C38.2621 13.2376 37.3663 14.3111 36.0946 15.6103L31.7869 19.8359H40.1151V21.7026H28.6894V20.3077ZM47.833 22.0718C46.6843 22.0718 45.6792 21.853 44.8176 21.4154C43.9561 20.9915 43.286 20.4034 42.8074 19.6513C42.3287 18.8855 42.0689 18.0239 42.0279 17.0667H44.1612C44.1886 17.9829 44.5236 18.735 45.1663 19.3231C45.8228 19.9111 46.7116 20.2051 47.833 20.2051C48.5715 20.2051 49.2211 20.0479 49.7817 19.7333C50.3424 19.4051 50.7732 18.9538 51.074 18.3795C51.3749 17.8051 51.5253 17.1624 51.5253 16.4513C51.5253 15.7538 51.3681 15.1248 51.0535 14.5641C50.7527 14.0034 50.3219 13.5658 49.7612 13.2513C49.2142 12.9368 48.5852 12.7795 47.874 12.7795C47.0399 12.7795 46.3424 12.9641 45.7817 13.3333C45.221 13.6889 44.7834 14.1538 44.4689 14.7282H42.3561L42.8279 5.27179H52.7971V7.13846H44.7971L44.5099 12.5128C44.8655 12.0752 45.3578 11.706 45.9869 11.4051C46.6159 11.0906 47.3612 10.9333 48.2228 10.9333C49.2484 10.9333 50.1715 11.1658 50.992 11.6308C51.8262 12.0957 52.4758 12.7453 52.9407 13.5795C53.4057 14.4137 53.6381 15.3709 53.6381 16.4513C53.6381 17.5316 53.392 18.5026 52.8997 19.3641C52.4211 20.212 51.7373 20.8752 50.8484 21.3538C49.9732 21.8325 48.9681 22.0718 47.833 22.0718ZM56.8929 21.9692C56.4827 21.9692 56.134 21.8256 55.8468 21.5385C55.5733 21.265 55.4365 20.9231 55.4365 20.5128C55.4365 20.1026 55.5733 19.7607 55.8468 19.4872C56.134 19.2 56.4827 19.0564 56.8929 19.0564C57.3032 19.0564 57.6451 19.2 57.9186 19.4872C58.1921 19.7607 58.3288 20.1026 58.3288 20.5128C58.3288 20.9231 58.1921 21.265 57.9186 21.5385C57.6451 21.8256 57.3032 21.9692 56.8929 21.9692ZM62.301 7.15897H58.8958V5.27179H64.4548V21.7026H62.301V7.15897ZM71.5758 7.15897H68.1707V5.27179H73.7296V21.7026H71.5758V7.15897ZM78.7679 21.9692C78.3577 21.9692 78.009 21.8256 77.7218 21.5385C77.4483 21.265 77.3115 20.9231 77.3115 20.5128C77.3115 20.1026 77.4483 19.7607 77.7218 19.4872C78.009 19.2 78.3577 19.0564 78.7679 19.0564C79.1782 19.0564 79.5201 19.2 79.7936 19.4872C80.0671 19.7607 80.2038 20.1026 80.2038 20.5128C80.2038 20.9231 80.0671 21.265 79.7936 21.5385C79.5201 21.8256 79.1782 21.9692 78.7679 21.9692ZM82.3954 20.3077L88.221 14.4615C89.2603 13.4085 90.0056 12.5265 90.4569 11.8154C90.9082 11.0906 91.1338 10.4342 91.1338 9.84615C91.1338 8.88889 90.833 8.14359 90.2313 7.61026C89.6295 7.06325 88.809 6.78974 87.7697 6.78974C87.0586 6.78974 86.4432 6.95384 85.9236 7.28205C85.4176 7.59658 85.0278 8.02051 84.7543 8.55385C84.4945 9.08718 84.3646 9.66837 84.3646 10.2974H82.2107C82.2107 9.29914 82.4364 8.38974 82.8877 7.56923C83.3526 6.74872 84.009 6.09914 84.8569 5.62051C85.7048 5.1282 86.6825 4.88205 87.7902 4.88205C88.8842 4.88205 89.8415 5.08718 90.662 5.49744C91.4962 5.90769 92.1389 6.48889 92.5902 7.24102C93.0415 7.99316 93.2672 8.8547 93.2672 9.82564C93.2672 10.6872 93.0073 11.5419 92.4877 12.3897C91.968 13.2376 91.0723 14.3111 89.8005 15.6103L85.4928 19.8359H93.821V21.7026H82.3954V20.3077ZM95.8569 20.3077L101.683 14.4615C102.722 13.4085 103.467 12.5265 103.918 11.8154C104.37 11.0906 104.595 10.4342 104.595 9.84615C104.595 8.88889 104.295 8.14359 103.693 7.61026C103.091 7.06325 102.271 6.78974 101.231 6.78974C100.52 6.78974 99.9048 6.95384 99.3851 7.28205C98.8791 7.59658 98.4894 8.02051 98.2159 8.55385C97.956 9.08718 97.8261 9.66837 97.8261 10.2974H95.6723C95.6723 9.29914 95.8979 8.38974 96.3492 7.56923C96.8142 6.74872 97.4706 6.09914 98.3184 5.62051C99.1663 5.1282 100.144 4.88205 101.252 4.88205C102.346 4.88205 103.303 5.08718 104.124 5.49744C104.958 5.90769 105.6 6.48889 106.052 7.24102C106.503 7.99316 106.729 8.8547 106.729 9.82564C106.729 10.6872 106.469 11.5419 105.949 12.3897C105.43 13.2376 104.534 14.3111 103.262 15.6103L98.9543 19.8359H107.283V21.7026H95.8569V20.3077ZM117.488 4.12308V22.5846H115.765V4.12308H117.488ZM129.268 7.15897H125.863V5.27179H131.422V21.7026H129.268V7.15897ZM140.922 22.0718C139.774 22.0718 138.762 21.853 137.887 21.4154C137.025 20.9915 136.355 20.4034 135.876 19.6513C135.398 18.8855 135.138 18.0239 135.097 17.0667H137.23C137.257 17.9829 137.599 18.735 138.256 19.3231C138.912 19.9111 139.801 20.2051 140.922 20.2051C141.675 20.2051 142.324 20.0752 142.871 19.8154C143.432 19.5556 143.856 19.2 144.143 18.7487C144.444 18.2974 144.594 17.7983 144.594 17.2513C144.594 16.335 144.246 15.6171 143.548 15.0974C142.851 14.5778 141.88 14.3179 140.635 14.3179H138.83V12.5333H140.635C141.675 12.5333 142.516 12.2667 143.158 11.7333C143.815 11.1863 144.143 10.4889 144.143 9.64103C144.143 9.10769 144.006 8.62222 143.733 8.18461C143.459 7.73333 143.056 7.37778 142.522 7.11795C142.003 6.85812 141.394 6.7282 140.697 6.7282C139.986 6.7282 139.37 6.87863 138.851 7.17949C138.331 7.48034 137.934 7.88376 137.661 8.38974C137.401 8.89573 137.271 9.44273 137.271 10.0308H135.117C135.117 9.0735 135.35 8.20513 135.815 7.42564C136.28 6.63248 136.936 6.01026 137.784 5.55897C138.632 5.10769 139.603 4.88205 140.697 4.88205C141.791 4.88205 142.762 5.09402 143.61 5.51795C144.457 5.9282 145.114 6.49573 145.579 7.22051C146.044 7.93162 146.276 8.71795 146.276 9.57949C146.276 10.5368 145.989 11.3573 145.415 12.041C144.84 12.7248 144.15 13.1624 143.343 13.3538C144.259 13.5179 145.046 13.9419 145.702 14.6256C146.372 15.2957 146.707 16.1641 146.707 17.2308C146.707 18.147 146.461 18.9744 145.969 19.7128C145.49 20.4376 144.806 21.012 143.917 21.4359C143.042 21.8598 142.044 22.0718 140.922 22.0718ZM150.363 7.97949C150.759 7.97949 151.094 8.12308 151.368 8.41026C151.641 8.68376 151.778 9.0188 151.778 9.41538C151.778 9.81196 151.641 10.1538 151.368 10.441C151.094 10.7145 150.759 10.8513 150.363 10.8513C149.952 10.8513 149.61 10.7145 149.337 10.441C149.063 10.1538 148.927 9.81196 148.927 9.41538C148.927 9.0188 149.063 8.68376 149.337 8.41026C149.61 8.12308 149.952 7.97949 150.363 7.97949ZM150.363 16.1436C150.759 16.1436 151.094 16.2803 151.368 16.5538C151.641 16.8274 151.778 17.1692 151.778 17.5795C151.778 17.9761 151.641 18.3111 151.368 18.5846C151.094 18.8581 150.759 18.9949 150.363 18.9949C149.952 18.9949 149.61 18.8581 149.337 18.5846C149.063 18.3111 148.927 17.9761 148.927 17.5795C148.927 17.1692 149.063 16.8274 149.337 16.5538C149.61 16.2803 149.952 16.1436 150.363 16.1436ZM160.103 22.0718C158.927 22.0718 157.881 21.7504 156.964 21.1077C156.048 20.465 155.33 19.5009 154.81 18.2154C154.291 16.9162 154.031 15.3368 154.031 13.4769C154.031 11.6171 154.291 10.0444 154.81 8.75897C155.33 7.45983 156.048 6.48889 156.964 5.84615C157.881 5.20342 158.927 4.88205 160.103 4.88205C161.279 4.88205 162.318 5.20342 163.221 5.84615C164.137 6.48889 164.855 7.45983 165.375 8.75897C165.894 10.0444 166.154 11.6171 166.154 13.4769C166.154 15.3368 165.894 16.9162 165.375 18.2154C164.855 19.5009 164.137 20.465 163.221 21.1077C162.318 21.7504 161.279 22.0718 160.103 22.0718ZM160.103 20.1641C160.855 20.1641 161.532 19.9111 162.134 19.4051C162.735 18.8991 163.207 18.147 163.549 17.1487C163.904 16.1504 164.082 14.9265 164.082 13.4769C164.082 12.041 163.904 10.8239 163.549 9.82564C163.207 8.81367 162.735 8.0547 162.134 7.54872C161.532 7.04273 160.855 6.78974 160.103 6.78974C159.337 6.78974 158.653 7.04273 158.051 7.54872C157.45 8.0547 156.971 8.81367 156.616 9.82564C156.274 10.8239 156.103 12.041 156.103 13.4769C156.103 14.9265 156.274 16.1504 156.616 17.1487C156.971 18.147 157.45 18.8991 158.051 19.4051C158.653 19.9111 159.337 20.1641 160.103 20.1641ZM174.325 22.0718C173.149 22.0718 172.103 21.7504 171.187 21.1077C170.271 20.465 169.553 19.5009 169.033 18.2154C168.514 16.9162 168.254 15.3368 168.254 13.4769C168.254 11.6171 168.514 10.0444 169.033 8.75897C169.553 7.45983 170.271 6.48889 171.187 5.84615C172.103 5.20342 173.149 4.88205 174.325 4.88205C175.502 4.88205 176.541 5.20342 177.443 5.84615C178.36 6.48889 179.078 7.45983 179.597 8.75897C180.117 10.0444 180.377 11.6171 180.377 13.4769C180.377 15.3368 180.117 16.9162 179.597 18.2154C179.078 19.5009 178.36 20.465 177.443 21.1077C176.541 21.7504 175.502 22.0718 174.325 22.0718ZM174.325 20.1641C175.078 20.1641 175.755 19.9111 176.356 19.4051C176.958 18.8991 177.43 18.147 177.772 17.1487C178.127 16.1504 178.305 14.9265 178.305 13.4769C178.305 12.041 178.127 10.8239 177.772 9.82564C177.43 8.81367 176.958 8.0547 176.356 7.54872C175.755 7.04273 175.078 6.78974 174.325 6.78974C173.56 6.78974 172.876 7.04273 172.274 7.54872C171.672 8.0547 171.194 8.81367 170.838 9.82564C170.496 10.8239 170.325 12.041 170.325 13.4769C170.325 14.9265 170.496 16.1504 170.838 17.1487C171.194 18.147 171.672 18.8991 172.274 19.4051C172.876 19.9111 173.56 20.1641 174.325 20.1641ZM195.508 14.7487H188.328V12.9026H195.508V14.7487ZM206.732 7.15897H203.327V5.27179H208.886V21.7026H206.732V7.15897ZM220.795 7.15897H212.015V5.27179H223.277V6.70769L216.384 21.7026H214.107L220.795 7.15897ZM226.604 7.97949C227.001 7.97949 227.336 8.12308 227.61 8.41026C227.883 8.68376 228.02 9.0188 228.02 9.41538C228.02 9.81196 227.883 10.1538 227.61 10.441C227.336 10.7145 227.001 10.8513 226.604 10.8513C226.194 10.8513 225.852 10.7145 225.579 10.441C225.305 10.1538 225.169 9.81196 225.169 9.41538C225.169 9.0188 225.305 8.68376 225.579 8.41026C225.852 8.12308 226.194 7.97949 226.604 7.97949ZM226.604 16.1436C227.001 16.1436 227.336 16.2803 227.61 16.5538C227.883 16.8274 228.02 17.1692 228.02 17.5795C228.02 17.9761 227.883 18.3111 227.61 18.5846C227.336 18.8581 227.001 18.9949 226.604 18.9949C226.194 18.9949 225.852 18.8581 225.579 18.5846C225.305 18.3111 225.169 17.9761 225.169 17.5795C225.169 17.1692 225.305 16.8274 225.579 16.5538C225.852 16.2803 226.194 16.1436 226.604 16.1436ZM236.345 22.0718C235.169 22.0718 234.123 21.7504 233.206 21.1077C232.29 20.465 231.572 19.5009 231.052 18.2154C230.533 16.9162 230.273 15.3368 230.273 13.4769C230.273 11.6171 230.533 10.0444 231.052 8.75897C231.572 7.45983 232.29 6.48889 233.206 5.84615C234.123 5.20342 235.169 4.88205 236.345 4.88205C237.521 4.88205 238.56 5.20342 239.463 5.84615C240.379 6.48889 241.097 7.45983 241.617 8.75897C242.136 10.0444 242.396 11.6171 242.396 13.4769C242.396 15.3368 242.136 16.9162 241.617 18.2154C241.097 19.5009 240.379 20.465 239.463 21.1077C238.56 21.7504 237.521 22.0718 236.345 22.0718ZM236.345 20.1641C237.097 20.1641 237.774 19.9111 238.375 19.4051C238.977 18.8991 239.449 18.147 239.791 17.1487C240.146 16.1504 240.324 14.9265 240.324 13.4769C240.324 12.041 240.146 10.8239 239.791 9.82564C239.449 8.81367 238.977 8.0547 238.375 7.54872C237.774 7.04273 237.097 6.78974 236.345 6.78974C235.579 6.78974 234.895 7.04273 234.293 7.54872C233.692 8.0547 233.213 8.81367 232.858 9.82564C232.516 10.8239 232.345 12.041 232.345 13.4769C232.345 14.9265 232.516 16.1504 232.858 17.1487C233.213 18.147 233.692 18.8991 234.293 19.4051C234.895 19.9111 235.579 20.1641 236.345 20.1641ZM250.567 22.0718C249.391 22.0718 248.345 21.7504 247.429 21.1077C246.513 20.465 245.795 19.5009 245.275 18.2154C244.756 16.9162 244.496 15.3368 244.496 13.4769C244.496 11.6171 244.756 10.0444 245.275 8.75897C245.795 7.45983 246.513 6.48889 247.429 5.84615C248.345 5.20342 249.391 4.88205 250.567 4.88205C251.744 4.88205 252.783 5.20342 253.685 5.84615C254.602 6.48889 255.32 7.45983 255.839 8.75897C256.359 10.0444 256.619 11.6171 256.619 13.4769C256.619 15.3368 256.359 16.9162 255.839 18.2154C255.32 19.5009 254.602 20.465 253.685 21.1077C252.783 21.7504 251.744 22.0718 250.567 22.0718ZM250.567 20.1641C251.32 20.1641 251.997 19.9111 252.598 19.4051C253.2 18.8991 253.672 18.147 254.014 17.1487C254.369 16.1504 254.547 14.9265 254.547 13.4769C254.547 12.041 254.369 10.8239 254.014 9.82564C253.672 8.81367 253.2 8.0547 252.598 7.54872C251.997 7.04273 251.32 6.78974 250.567 6.78974C249.802 6.78974 249.118 7.04273 248.516 7.54872C247.914 8.0547 247.436 8.81367 247.08 9.82564C246.738 10.8239 246.567 12.041 246.567 13.4769C246.567 14.9265 246.738 16.1504 247.08 17.1487C247.436 18.147 247.914 18.8991 248.516 19.4051C249.118 19.9111 249.802 20.1641 250.567 20.1641Z" fill="white"/>
<path d="M17.6205 38.6154V56.1333H15.5897V46.8615H11.0769V44.9538H15.5897V38.6154H17.6205ZM8.45128 39.1282C8.45128 41.453 8.28034 43.6273 7.93846 45.6513L13.4154 54.0205L11.7128 55.1282L7.34359 48.2359C6.74188 50.3282 5.92137 51.9692 4.88205 53.159C3.84274 54.335 2.63932 54.9778 1.27179 55.0872V53.0154C2.36581 52.8376 3.28889 52.1128 4.04103 50.841C4.80684 49.5692 5.3812 47.9145 5.7641 45.8769C6.16068 43.8256 6.36581 41.5487 6.37949 39.0462L8.45128 39.1282ZM29.5982 44.9333C27.3008 44.9333 25.441 44.6803 24.0188 44.1744C22.6102 43.6547 21.9059 42.841 21.9059 41.7333C21.9059 40.6393 22.6102 39.8393 24.0188 39.3333C25.441 38.8137 27.3008 38.5538 29.5982 38.5538C31.8957 38.5538 33.7487 38.8137 35.1572 39.3333C36.5794 39.8393 37.2905 40.6393 37.2905 41.7333C37.2905 42.841 36.5794 43.6547 35.1572 44.1744C33.7487 44.6803 31.8957 44.9333 29.5982 44.9333ZM29.5982 40.0923C27.9572 40.0923 26.6102 40.2291 25.5572 40.5026C24.5179 40.7761 23.9982 41.1863 23.9982 41.7333C23.9982 42.2803 24.5179 42.6906 25.5572 42.9641C26.5965 43.2376 27.9435 43.3744 29.5982 43.3744C31.2529 43.3744 32.5999 43.2376 33.6393 42.9641C34.6786 42.6906 35.1982 42.2803 35.1982 41.7333C35.1982 41.1863 34.6717 40.7761 33.6188 40.5026C32.5794 40.2291 31.2393 40.0923 29.5982 40.0923ZM30.6034 47.4154V48.9949H37.147V53.1795H24.0598V54.4103H37.4546V55.9282H22.07V51.7436H35.1572V50.5128H22.029V48.9949H28.5931V47.4154H20.8598V45.8359H38.3572V47.4154H30.6034ZM54.7918 43.0872C53.9303 43.7709 52.8294 44.3043 51.4893 44.6872C50.1491 45.0564 48.7337 45.2547 47.2431 45.2821V43.6205C48.3098 43.5932 49.3491 43.4564 50.3611 43.2103C51.3867 42.9504 52.2619 42.588 52.9867 42.1231C53.7252 41.6581 54.1833 41.1043 54.3611 40.4615H47.5303V38.8205H62.6277V40.4615H56.4329C56.3782 40.9265 56.2209 41.3573 55.9611 41.7538L63.0995 43.7641L62.5662 45.3641L54.7918 43.0872ZM56.0841 48.1744V49.8359C58.1217 49.9043 59.7423 50.1915 60.9457 50.6974C62.1628 51.1897 62.7713 51.9487 62.7713 52.9744C62.7713 54.0957 62.0602 54.9094 60.638 55.4154C59.2294 55.9214 57.3764 56.1744 55.079 56.1744C52.7816 56.1744 50.9217 55.9214 49.4995 55.4154C48.091 54.9094 47.3867 54.0957 47.3867 52.9744C47.3867 51.9487 47.9884 51.1897 49.1918 50.6974C50.4089 50.1915 52.0363 49.9043 54.0739 49.8359V48.1744H46.3405V46.5333H63.838V48.1744H56.0841ZM60.638 52.9744C60.638 52.4274 60.1115 52.0308 59.0585 51.7846C58.0055 51.5385 56.679 51.4154 55.079 51.4154C53.479 51.4154 52.1525 51.5385 51.0995 51.7846C50.0602 52.0308 49.5405 52.4274 49.5405 52.9744C49.5405 53.535 50.0602 53.9385 51.0995 54.1846C52.1525 54.4444 53.479 54.5744 55.079 54.5744C56.679 54.5744 58.0055 54.4444 59.0585 54.1846C60.1115 53.9385 60.638 53.535 60.638 52.9744ZM80.2054 40.9333H67.2208V39.0256H82.3183V47.0256H80.2054V40.9333ZM83.5696 50.4103H75.7542V56.5436H73.6619V50.4103H66.0721V48.4821H83.5696V50.4103ZM100.291 44.9333C97.9939 44.9333 96.1341 44.6803 94.7119 44.1744C93.3033 43.6547 92.599 42.841 92.599 41.7333C92.599 40.6393 93.3033 39.8393 94.7119 39.3333C96.1341 38.8137 97.9939 38.5538 100.291 38.5538C102.589 38.5538 104.442 38.8137 105.85 39.3333C107.273 39.8393 107.984 40.6393 107.984 41.7333C107.984 42.841 107.273 43.6547 105.85 44.1744C104.442 44.6803 102.589 44.9333 100.291 44.9333ZM100.291 43.3744C101.946 43.3744 103.293 43.2376 104.332 42.9641C105.372 42.6906 105.891 42.2803 105.891 41.7333C105.891 41.1863 105.365 40.7761 104.312 40.5026C103.273 40.2291 101.932 40.0923 100.291 40.0923C98.6503 40.0923 97.3033 40.2291 96.2503 40.5026C95.211 40.7761 94.6913 41.1863 94.6913 41.7333C94.6913 42.2803 95.211 42.6906 96.2503 42.9641C97.2896 43.2376 98.6366 43.3744 100.291 43.3744ZM91.5529 46.0205H109.05V47.6H91.5529V46.0205ZM92.7631 51.7436H105.85V50.5128H92.7221V48.9949H107.84V53.1795H94.7529V54.4103H108.148V55.9282H92.7631V51.7436ZM127.633 38.6154V56.1333H125.602V38.6154H127.633ZM118.772 41.1179C118.758 43.0598 118.573 44.906 118.218 46.6564L123.941 53.7333L122.341 54.9436L117.623 48.9333C117.021 50.7658 116.208 52.2154 115.182 53.2821C114.17 54.335 113.001 54.9368 111.674 55.0872V53.0769C112.7 52.8855 113.582 52.2564 114.32 51.1897C115.072 50.1231 115.654 48.7214 116.064 46.9846C116.474 45.2479 116.693 43.2923 116.72 41.1179H112.084V39.2513H123.264V41.1179H118.772ZM148.513 53.4256V55.2923H131.016V53.4256H138.688V50.1231H132.185V43.8051H145.354V41.0564H132.185V39.2513H147.365V45.5487H134.216V48.3179H147.631V50.1231H140.76V53.4256H148.513ZM159.697 41.159H156.292V39.2718H161.851V55.7026H159.697V41.159ZM173.759 41.159H164.98V39.2718H176.241V40.7077L169.349 55.7026H167.072L173.759 41.159ZM183.64 56.0718C182.464 56.0718 181.418 55.7504 180.502 55.1077C179.586 54.465 178.868 53.5009 178.348 52.2154C177.828 50.9162 177.569 49.3368 177.569 47.4769C177.569 45.6171 177.828 44.0444 178.348 42.759C178.868 41.4598 179.586 40.4889 180.502 39.8462C181.418 39.2034 182.464 38.882 183.64 38.882C184.816 38.882 185.856 39.2034 186.758 39.8462C187.675 40.4889 188.393 41.4598 188.912 42.759C189.432 44.0444 189.692 45.6171 189.692 47.4769C189.692 49.3368 189.432 50.9162 188.912 52.2154C188.393 53.5009 187.675 54.465 186.758 55.1077C185.856 55.7504 184.816 56.0718 183.64 56.0718ZM183.64 54.1641C184.393 54.1641 185.069 53.9111 185.671 53.4051C186.273 52.8991 186.745 52.147 187.087 51.1487C187.442 50.1504 187.62 48.9265 187.62 47.4769C187.62 46.041 187.442 44.8239 187.087 43.8256C186.745 42.8137 186.273 42.0547 185.671 41.5487C185.069 41.0427 184.393 40.7897 183.64 40.7897C182.875 40.7897 182.191 41.0427 181.589 41.5487C180.987 42.0547 180.509 42.8137 180.153 43.8256C179.811 44.8239 179.64 46.041 179.64 47.4769C179.64 48.9265 179.811 50.1504 180.153 51.1487C180.509 52.147 180.987 52.8991 181.589 53.4051C182.191 53.9111 182.875 54.1641 183.64 54.1641ZM206.361 44.9333C204.064 44.9333 202.204 44.6803 200.782 44.1744C199.373 43.6547 198.669 42.841 198.669 41.7333C198.669 40.6393 199.373 39.8393 200.782 39.3333C202.204 38.8137 204.064 38.5538 206.361 38.5538C208.659 38.5538 210.511 38.8137 211.92 39.3333C213.342 39.8393 214.053 40.6393 214.053 41.7333C214.053 42.841 213.342 43.6547 211.92 44.1744C210.511 44.6803 208.659 44.9333 206.361 44.9333ZM206.361 43.3744C208.016 43.3744 209.363 43.2376 210.402 42.9641C211.441 42.6906 211.961 42.2803 211.961 41.7333C211.961 41.1863 211.435 40.7761 210.382 40.5026C209.342 40.2291 208.002 40.0923 206.361 40.0923C204.72 40.0923 203.373 40.2291 202.32 40.5026C201.281 40.7761 200.761 41.1863 200.761 41.7333C200.761 42.2803 201.281 42.6906 202.32 42.9641C203.359 43.2376 204.706 43.3744 206.361 43.3744ZM197.623 46.0205H215.12V47.6H197.623V46.0205ZM198.833 51.7436H211.92V50.5128H198.792V48.9949H213.91V53.1795H200.823V54.4103H214.217V55.9282H198.833V51.7436ZM233.703 38.6154V56.1333H231.672V38.6154H233.703ZM224.841 41.1179C224.828 43.0598 224.643 44.906 224.288 46.6564L230.011 53.7333L228.411 54.9436L223.693 48.9333C223.091 50.7658 222.277 52.2154 221.252 53.2821C220.24 54.335 219.07 54.9368 217.744 55.0872V53.0769C218.77 52.8855 219.652 52.2564 220.39 51.1897C221.142 50.1231 221.723 48.7214 222.134 46.9846C222.544 45.2479 222.763 43.2923 222.79 41.1179H218.154V39.2513H229.334V41.1179H224.841ZM253.701 50.4513H238.255V39.2513H253.434V41.0769H240.286V43.9487H253.209V45.7333H240.286V48.6256H253.701V50.4513ZM254.583 53.4256V55.2923H237.086V53.4256H254.583ZM273.228 52.1744H271.197V38.6154H273.228V52.1744ZM262.93 45.8564C261.371 45.8564 260.113 45.535 259.156 44.8923C258.199 44.2496 257.72 43.3675 257.72 42.2462C257.72 41.1248 258.199 40.2496 259.156 39.6205C260.127 38.9778 261.385 38.6564 262.93 38.6564C264.489 38.6564 265.747 38.9778 266.705 39.6205C267.662 40.2496 268.14 41.1248 268.14 42.2462C268.14 43.3675 267.662 44.2496 266.705 44.8923C265.747 45.535 264.489 45.8564 262.93 45.8564ZM262.93 40.2564C261.987 40.2564 261.214 40.4342 260.612 40.7897C260.01 41.1453 259.71 41.6308 259.71 42.2462C259.71 42.8752 260.004 43.3675 260.592 43.7231C261.193 44.0786 261.973 44.2564 262.93 44.2564C263.887 44.2564 264.66 44.0786 265.248 43.7231C265.85 43.3675 266.151 42.8752 266.151 42.2462C266.151 41.6308 265.85 41.1453 265.248 40.7897C264.646 40.4342 263.874 40.2564 262.93 40.2564ZM261.699 48.9949H256.817V47.3128H263.976C266.711 47.3128 268.626 47.0803 269.72 46.6154V48.2974C268.681 48.7624 266.746 48.9949 263.915 48.9949H263.73V51.8462H261.699V48.9949ZM273.679 54.1641V55.9077H258.356V50.9231H260.407V54.1641H273.679ZM300.616 47.6615H298.155V56.1333H296.124V38.6154H298.155V45.7128H300.616V47.6615ZM290.072 53.2205C290.907 53.2205 291.734 53.1453 292.555 52.9949C293.389 52.8444 294.072 52.6462 294.606 52.4V54.2462C294.086 54.506 293.402 54.7111 292.555 54.8615C291.72 55.012 290.872 55.0872 290.011 55.0872H283.119V39.2513H293.231V41.1179H285.149V46.1026H292.924V47.9692H285.149V53.2205H290.072ZM318.522 38.6154V56.1333H316.491V54H311.178V52.2769H316.491V38.6154H318.522ZM308.163 47.3333C307.151 47.3333 306.248 47.1624 305.455 46.8205C304.676 46.465 304.06 45.9726 303.609 45.3436C303.172 44.7145 302.953 43.9829 302.953 43.1487C302.953 42.3145 303.172 41.5829 303.609 40.9538C304.06 40.3248 304.676 39.8393 305.455 39.4974C306.248 39.1419 307.151 38.9641 308.163 38.9641C309.175 38.9641 310.071 39.1419 310.85 39.4974C311.643 39.8393 312.259 40.3248 312.696 40.9538C313.148 41.5829 313.373 42.3145 313.373 43.1487C313.373 43.9829 313.148 44.7145 312.696 45.3436C312.259 45.9726 311.643 46.465 310.85 46.8205C310.071 47.1624 309.175 47.3333 308.163 47.3333ZM308.163 40.6256C307.178 40.6256 306.385 40.8581 305.784 41.3231C305.195 41.788 304.901 42.3966 304.901 43.1487C304.901 43.9009 305.195 44.5094 305.784 44.9744C306.385 45.4393 307.178 45.6718 308.163 45.6718C309.134 45.6718 309.913 45.4393 310.501 44.9744C311.103 44.5094 311.404 43.9009 311.404 43.1487C311.404 42.3966 311.103 41.788 310.501 41.3231C309.913 40.8581 309.134 40.6256 308.163 40.6256ZM315.014 49.8769C313.811 50.3282 311.903 50.5538 309.291 50.5538H308.942V56.1333H306.912V50.5538H302.03V48.7692H309.271C311.965 48.7692 313.879 48.5368 315.014 48.0718V49.8769ZM333.09 56.0718C331.941 56.0718 330.929 55.853 330.054 55.4154C329.192 54.9915 328.522 54.4034 328.044 53.6513C327.565 52.8855 327.305 52.0239 327.264 51.0667H329.398C329.425 51.9829 329.767 52.735 330.423 53.3231C331.08 53.9111 331.969 54.2051 333.09 54.2051C333.842 54.2051 334.492 54.0752 335.039 53.8154C335.599 53.5556 336.023 53.2 336.31 52.7487C336.611 52.2974 336.762 51.7983 336.762 51.2513C336.762 50.335 336.413 49.6171 335.716 49.0974C335.018 48.5778 334.047 48.3179 332.803 48.3179H330.998V46.5333H332.803C333.842 46.5333 334.683 46.2667 335.326 45.7333C335.982 45.1863 336.31 44.4889 336.31 43.641C336.31 43.1077 336.174 42.6222 335.9 42.1846C335.627 41.7333 335.223 41.3778 334.69 41.1179C334.17 40.8581 333.562 40.7282 332.864 40.7282C332.153 40.7282 331.538 40.8786 331.018 41.1795C330.498 41.4803 330.102 41.8838 329.828 42.3897C329.569 42.8957 329.439 43.4427 329.439 44.0308H327.285C327.285 43.0735 327.517 42.2051 327.982 41.4256C328.447 40.6325 329.104 40.0103 329.951 39.559C330.799 39.1077 331.77 38.882 332.864 38.882C333.958 38.882 334.929 39.094 335.777 39.5179C336.625 39.9282 337.281 40.4957 337.746 41.2205C338.211 41.9316 338.444 42.7179 338.444 43.5795C338.444 44.5368 338.157 45.3573 337.582 46.041C337.008 46.7248 336.317 47.1624 335.51 47.3538C336.427 47.5179 337.213 47.9419 337.869 48.6256C338.539 49.2957 338.875 50.1641 338.875 51.2308C338.875 52.147 338.628 52.9744 338.136 53.7128C337.657 54.4376 336.974 55.012 336.085 55.4359C335.21 55.8598 334.211 56.0718 333.09 56.0718ZM349.299 43.5795C348.424 44.2632 347.303 44.7966 345.935 45.1795C344.581 45.5487 343.173 45.747 341.709 45.7744V44.1744C343.323 44.1333 344.827 43.853 346.222 43.3333C347.631 42.8137 348.513 42.1094 348.868 41.2205H342.038V39.641H348.725V37.9179H350.797V39.641H357.463V41.2205H350.981C350.886 41.6034 350.728 41.9658 350.509 42.3077L357.853 44.2564L357.381 45.7949L349.299 43.5795ZM358.509 47.1077V48.7282H341.012V47.1077H358.509ZM349.75 50.2667C352.075 50.2667 353.942 50.4991 355.35 50.9641C356.773 51.4154 357.484 52.1675 357.484 53.2205C357.484 54.2735 356.773 55.0256 355.35 55.4769C353.942 55.9419 352.075 56.1744 349.75 56.1744C347.439 56.1744 345.573 55.9419 344.15 55.4769C342.728 55.012 342.017 54.2598 342.017 53.2205C342.017 52.1675 342.721 51.4154 344.13 50.9641C345.552 50.4991 347.426 50.2667 349.75 50.2667ZM349.75 54.5949C351.378 54.5949 352.718 54.4855 353.771 54.2667C354.824 54.0615 355.35 53.7128 355.35 53.2205C355.35 52.7282 354.817 52.3726 353.75 52.1538C352.697 51.935 351.364 51.8256 349.75 51.8256C348.137 51.8256 346.797 51.935 345.73 52.1538C344.677 52.3726 344.15 52.7282 344.15 53.2205C344.15 53.7128 344.677 54.0615 345.73 54.2667C346.783 54.4855 348.123 54.5949 349.75 54.5949ZM383.99 53.3846V55.2923H366.493V53.3846H374.185V49.6513C372.804 49.5556 371.594 49.2752 370.554 48.8103C369.529 48.3453 368.736 47.7299 368.175 46.9641C367.614 46.1846 367.334 45.3026 367.334 44.3179C367.334 43.2513 367.662 42.3145 368.318 41.5077C368.975 40.6872 369.898 40.0513 371.088 39.6C372.277 39.1487 373.659 38.9231 375.231 38.9231C376.804 38.9231 378.185 39.1487 379.375 39.6C380.565 40.0513 381.488 40.6872 382.144 41.5077C382.8 42.3145 383.129 43.2513 383.129 44.3179C383.129 45.3026 382.848 46.1846 382.288 46.9641C381.727 47.7299 380.927 48.3453 379.888 48.8103C378.848 49.2752 377.638 49.5556 376.257 49.6513V53.3846H383.99ZM369.488 44.3179C369.488 45.0154 369.727 45.6308 370.206 46.1641C370.684 46.6974 371.354 47.1145 372.216 47.4154C373.091 47.7026 374.096 47.8462 375.231 47.8462C376.38 47.8462 377.385 47.7026 378.247 47.4154C379.122 47.1145 379.799 46.6974 380.277 46.1641C380.756 45.6308 380.995 45.0154 380.995 44.3179C380.995 43.6205 380.756 43.0051 380.277 42.4718C379.799 41.9248 379.122 41.5077 378.247 41.2205C377.385 40.9197 376.38 40.7692 375.231 40.7692C374.096 40.7692 373.091 40.9197 372.216 41.2205C371.354 41.5077 370.684 41.9248 370.206 42.4718C369.727 43.0051 369.488 43.6205 369.488 44.3179ZM403.722 53.3846V55.2923H386.224V53.3846H393.917V49.6513C392.535 49.5556 391.325 49.2752 390.286 48.8103C389.26 48.3453 388.467 47.7299 387.906 46.9641C387.346 46.1846 387.065 45.3026 387.065 44.3179C387.065 43.2513 387.394 42.3145 388.05 41.5077C388.706 40.6872 389.629 40.0513 390.819 39.6C392.009 39.1487 393.39 38.9231 394.963 38.9231C396.535 38.9231 397.917 39.1487 399.106 39.6C400.296 40.0513 401.219 40.6872 401.876 41.5077C402.532 42.3145 402.86 43.2513 402.86 44.3179C402.86 45.3026 402.58 46.1846 402.019 46.9641C401.459 47.7299 400.659 48.3453 399.619 48.8103C398.58 49.2752 397.37 49.5556 395.988 49.6513V53.3846H403.722ZM389.219 44.3179C389.219 45.0154 389.459 45.6308 389.937 46.1641C390.416 46.6974 391.086 47.1145 391.947 47.4154C392.823 47.7026 393.828 47.8462 394.963 47.8462C396.112 47.8462 397.117 47.7026 397.978 47.4154C398.853 47.1145 399.53 46.6974 400.009 46.1641C400.488 45.6308 400.727 45.0154 400.727 44.3179C400.727 43.6205 400.488 43.0051 400.009 42.4718C399.53 41.9248 398.853 41.5077 397.978 41.2205C397.117 40.9197 396.112 40.7692 394.963 40.7692C393.828 40.7692 392.823 40.9197 391.947 41.2205C391.086 41.5077 390.416 41.9248 389.937 42.4718C389.459 43.0051 389.219 43.6205 389.219 44.3179ZM423.453 53.3846V55.2923H405.956V53.3846H413.648V49.6513C412.267 49.5556 411.057 49.2752 410.017 48.8103C408.992 48.3453 408.199 47.7299 407.638 46.9641C407.077 46.1846 406.797 45.3026 406.797 44.3179C406.797 43.2513 407.125 42.3145 407.782 41.5077C408.438 40.6872 409.361 40.0513 410.551 39.6C411.741 39.1487 413.122 38.9231 414.694 38.9231C416.267 38.9231 417.648 39.1487 418.838 39.6C420.028 40.0513 420.951 40.6872 421.607 41.5077C422.264 42.3145 422.592 43.2513 422.592 44.3179C422.592 45.3026 422.311 46.1846 421.751 46.9641C421.19 47.7299 420.39 48.3453 419.351 48.8103C418.311 49.2752 417.101 49.5556 415.72 49.6513V53.3846H423.453ZM408.951 44.3179C408.951 45.0154 409.19 45.6308 409.669 46.1641C410.147 46.6974 410.817 47.1145 411.679 47.4154C412.554 47.7026 413.559 47.8462 414.694 47.8462C415.843 47.8462 416.848 47.7026 417.71 47.4154C418.585 47.1145 419.262 46.6974 419.741 46.1641C420.219 45.6308 420.458 45.0154 420.458 44.3179C420.458 43.6205 420.219 43.0051 419.741 42.4718C419.262 41.9248 418.585 41.5077 417.71 41.2205C416.848 40.9197 415.843 40.7692 414.694 40.7692C413.559 40.7692 412.554 40.9197 411.679 41.2205C410.817 41.5077 410.147 41.9248 409.669 42.4718C409.19 43.0051 408.951 43.6205 408.951 44.3179Z" fill="white"/>
</svg>
