<svg width="582" height="154" viewBox="0 0 582 154" fill="none" xmlns="http://www.w3.org/2000/svg">
<mask id="path-1-outside-1_1911_13297" maskUnits="userSpaceOnUse" x="0" y="6" width="397" height="59" fill="black">
<rect fill="white" y="6" width="397" height="59"/>
<path d="M27.6199 16.012V61.3189H20.8912V16.012H2.43517V9.98814H46.0119V16.012H27.6199ZM95.9238 9.98814V61.3189H89.195V38.1207H59.3963V61.3189H52.6675V9.98814H59.3963V31.9687H89.195V9.98814H95.9238ZM142.107 9.98814V15.9479H112.373V32.0969H139.864V38.0567H112.373V55.3592H142.684V61.3189H105.644V9.98814H142.107ZM199.408 48.6304H174.736L169.61 61.3189H162.56L183.708 9.98814H190.821L211.905 61.3189H204.535L199.408 48.6304ZM197.037 42.6707L187.104 17.8704L177.107 42.6707H197.037ZM238.405 9.98814C244.044 9.98814 248.402 11.2485 251.478 13.7691C254.596 16.2897 256.156 19.7715 256.156 24.2147C256.156 26.6498 255.387 28.8927 253.849 30.9434C252.353 32.9514 250.474 34.233 248.209 34.7884C251.2 35.3865 253.678 36.775 255.643 38.9538C257.608 41.1327 258.591 43.7601 258.591 46.8361C258.591 51.2792 256.967 54.8038 253.721 57.4098C250.516 60.0159 246.052 61.3189 240.327 61.3189H217.449V9.98814H238.405ZM238.212 32.6096C241.801 32.6096 244.557 31.8833 246.479 30.4307C248.402 28.9782 249.363 26.9062 249.363 24.2147C249.363 21.5232 248.402 19.4511 246.479 17.9986C244.557 16.546 241.801 15.8197 238.212 15.8197H224.178V32.6096H238.212ZM240.135 55.4873C243.766 55.4873 246.607 54.7397 248.658 53.2444C250.751 51.7491 251.798 49.613 251.798 46.8361C251.798 44.0591 250.751 41.923 248.658 40.4277C246.607 38.9325 243.766 38.1848 240.135 38.1848H224.178V55.4873H240.135ZM285.36 44.1446V61.3189H278.567V44.1446L258.445 9.98814H266.071L282.22 37.8644L298.882 9.98814H306.123L285.36 44.1446ZM327.725 8.77056C331.442 8.77056 334.796 9.43276 337.786 10.7571C340.777 12.0388 343.169 13.8545 344.964 16.2042C346.758 18.554 347.762 21.2027 347.976 24.1506H341.055C340.67 21.3309 339.26 19.0239 336.825 17.2296C334.433 15.4352 331.293 14.5381 327.405 14.5381C323.474 14.5381 320.377 15.2857 318.113 16.781C315.891 18.2335 314.78 20.1347 314.78 22.4844C314.78 24.236 315.314 25.7099 316.383 26.9062C317.451 28.0597 319.095 29.0636 321.317 29.9181C323.581 30.7725 326.636 31.6056 330.481 32.4173C336.676 33.7417 341.161 35.6429 343.938 38.1207C346.758 40.5559 348.168 43.7174 348.168 47.6051C348.168 50.5956 347.271 53.2231 345.476 55.4873C343.682 57.7089 341.226 59.4178 338.107 60.614C334.988 61.8529 331.528 62.4724 327.725 62.4724C323.752 62.4724 320.185 61.7889 317.023 60.4218C313.905 59.0546 311.405 57.1321 309.526 54.6542C307.646 52.1764 306.599 49.2926 306.386 46.003H313.307C313.648 49.1644 315.144 51.7278 317.792 53.693C320.484 55.6582 323.944 56.6408 328.174 56.6408C330.694 56.6408 332.959 56.2777 334.967 55.5514C336.975 54.8251 338.534 53.7998 339.645 52.4754C340.756 51.151 341.311 49.6557 341.311 47.9896C341.311 46.1098 340.777 44.5504 339.709 43.3115C338.641 42.0725 336.975 41.0259 334.71 40.1714C332.489 39.2742 329.413 38.4198 325.482 37.6081C319.501 36.3691 315.08 34.5748 312.217 32.2251C309.397 29.8753 307.988 26.6285 307.988 22.4844C307.988 19.7075 308.821 17.2937 310.487 15.243C312.196 13.1496 314.545 11.5475 317.536 10.4367C320.527 9.32595 323.923 8.77056 327.725 8.77056ZM374.318 8.77056C378.035 8.77056 381.389 9.43276 384.379 10.7571C387.37 12.0388 389.762 13.8545 391.557 16.2042C393.351 18.554 394.355 21.2027 394.569 24.1506H387.648C387.263 21.3309 385.853 19.0239 383.418 17.2296C381.026 15.4352 377.886 14.5381 373.998 14.5381C370.068 14.5381 366.97 15.2857 364.706 16.781C362.484 18.2335 361.374 20.1347 361.374 22.4844C361.374 24.236 361.908 25.7099 362.976 26.9062C364.044 28.0597 365.688 29.0636 367.91 29.9181C370.174 30.7725 373.229 31.6056 377.074 32.4173C383.269 33.7417 387.755 35.6429 390.531 38.1207C393.351 40.5559 394.761 43.7174 394.761 47.6051C394.761 50.5956 393.864 53.2231 392.069 55.4873C390.275 57.7089 387.819 59.4178 384.7 60.614C381.581 61.8529 378.121 62.4724 374.318 62.4724C370.345 62.4724 366.778 61.7889 363.616 60.4218C360.498 59.0546 357.998 57.1321 356.119 54.6542C354.239 52.1764 353.192 49.2926 352.979 46.003H359.9C360.241 49.1644 361.737 51.7278 364.385 53.693C367.077 55.6582 370.537 56.6408 374.767 56.6408C377.288 56.6408 379.552 56.2777 381.56 55.5514C383.568 54.8251 385.127 53.7998 386.238 52.4754C387.349 51.151 387.904 49.6557 387.904 47.9896C387.904 46.1098 387.37 44.5504 386.302 43.3115C385.234 42.0725 383.568 41.0259 381.303 40.1714C379.082 39.2742 376.006 38.4198 372.075 37.6081C366.094 36.3691 361.673 34.5748 358.81 32.2251C355.991 29.8753 354.581 26.6285 354.581 22.4844C354.581 19.7075 355.414 17.2937 357.08 15.243C358.789 13.1496 361.139 11.5475 364.129 10.4367C367.12 9.32595 370.516 8.77056 374.318 8.77056Z"/>
</mask>
<path d="M27.6199 16.012V61.3189H20.8912V16.012H2.43517V9.98814H46.0119V16.012H27.6199ZM95.9238 9.98814V61.3189H89.195V38.1207H59.3963V61.3189H52.6675V9.98814H59.3963V31.9687H89.195V9.98814H95.9238ZM142.107 9.98814V15.9479H112.373V32.0969H139.864V38.0567H112.373V55.3592H142.684V61.3189H105.644V9.98814H142.107ZM199.408 48.6304H174.736L169.61 61.3189H162.56L183.708 9.98814H190.821L211.905 61.3189H204.535L199.408 48.6304ZM197.037 42.6707L187.104 17.8704L177.107 42.6707H197.037ZM238.405 9.98814C244.044 9.98814 248.402 11.2485 251.478 13.7691C254.596 16.2897 256.156 19.7715 256.156 24.2147C256.156 26.6498 255.387 28.8927 253.849 30.9434C252.353 32.9514 250.474 34.233 248.209 34.7884C251.2 35.3865 253.678 36.775 255.643 38.9538C257.608 41.1327 258.591 43.7601 258.591 46.8361C258.591 51.2792 256.967 54.8038 253.721 57.4098C250.516 60.0159 246.052 61.3189 240.327 61.3189H217.449V9.98814H238.405ZM238.212 32.6096C241.801 32.6096 244.557 31.8833 246.479 30.4307C248.402 28.9782 249.363 26.9062 249.363 24.2147C249.363 21.5232 248.402 19.4511 246.479 17.9986C244.557 16.546 241.801 15.8197 238.212 15.8197H224.178V32.6096H238.212ZM240.135 55.4873C243.766 55.4873 246.607 54.7397 248.658 53.2444C250.751 51.7491 251.798 49.613 251.798 46.8361C251.798 44.0591 250.751 41.923 248.658 40.4277C246.607 38.9325 243.766 38.1848 240.135 38.1848H224.178V55.4873H240.135ZM285.36 44.1446V61.3189H278.567V44.1446L258.445 9.98814H266.071L282.22 37.8644L298.882 9.98814H306.123L285.36 44.1446ZM327.725 8.77056C331.442 8.77056 334.796 9.43276 337.786 10.7571C340.777 12.0388 343.169 13.8545 344.964 16.2042C346.758 18.554 347.762 21.2027 347.976 24.1506H341.055C340.67 21.3309 339.26 19.0239 336.825 17.2296C334.433 15.4352 331.293 14.5381 327.405 14.5381C323.474 14.5381 320.377 15.2857 318.113 16.781C315.891 18.2335 314.78 20.1347 314.78 22.4844C314.78 24.236 315.314 25.7099 316.383 26.9062C317.451 28.0597 319.095 29.0636 321.317 29.9181C323.581 30.7725 326.636 31.6056 330.481 32.4173C336.676 33.7417 341.161 35.6429 343.938 38.1207C346.758 40.5559 348.168 43.7174 348.168 47.6051C348.168 50.5956 347.271 53.2231 345.476 55.4873C343.682 57.7089 341.226 59.4178 338.107 60.614C334.988 61.8529 331.528 62.4724 327.725 62.4724C323.752 62.4724 320.185 61.7889 317.023 60.4218C313.905 59.0546 311.405 57.1321 309.526 54.6542C307.646 52.1764 306.599 49.2926 306.386 46.003H313.307C313.648 49.1644 315.144 51.7278 317.792 53.693C320.484 55.6582 323.944 56.6408 328.174 56.6408C330.694 56.6408 332.959 56.2777 334.967 55.5514C336.975 54.8251 338.534 53.7998 339.645 52.4754C340.756 51.151 341.311 49.6557 341.311 47.9896C341.311 46.1098 340.777 44.5504 339.709 43.3115C338.641 42.0725 336.975 41.0259 334.71 40.1714C332.489 39.2742 329.413 38.4198 325.482 37.6081C319.501 36.3691 315.08 34.5748 312.217 32.2251C309.397 29.8753 307.988 26.6285 307.988 22.4844C307.988 19.7075 308.821 17.2937 310.487 15.243C312.196 13.1496 314.545 11.5475 317.536 10.4367C320.527 9.32595 323.923 8.77056 327.725 8.77056ZM374.318 8.77056C378.035 8.77056 381.389 9.43276 384.379 10.7571C387.37 12.0388 389.762 13.8545 391.557 16.2042C393.351 18.554 394.355 21.2027 394.569 24.1506H387.648C387.263 21.3309 385.853 19.0239 383.418 17.2296C381.026 15.4352 377.886 14.5381 373.998 14.5381C370.068 14.5381 366.97 15.2857 364.706 16.781C362.484 18.2335 361.374 20.1347 361.374 22.4844C361.374 24.236 361.908 25.7099 362.976 26.9062C364.044 28.0597 365.688 29.0636 367.91 29.9181C370.174 30.7725 373.229 31.6056 377.074 32.4173C383.269 33.7417 387.755 35.6429 390.531 38.1207C393.351 40.5559 394.761 43.7174 394.761 47.6051C394.761 50.5956 393.864 53.2231 392.069 55.4873C390.275 57.7089 387.819 59.4178 384.7 60.614C381.581 61.8529 378.121 62.4724 374.318 62.4724C370.345 62.4724 366.778 61.7889 363.616 60.4218C360.498 59.0546 357.998 57.1321 356.119 54.6542C354.239 52.1764 353.192 49.2926 352.979 46.003H359.9C360.241 49.1644 361.737 51.7278 364.385 53.693C367.077 55.6582 370.537 56.6408 374.767 56.6408C377.288 56.6408 379.552 56.2777 381.56 55.5514C383.568 54.8251 385.127 53.7998 386.238 52.4754C387.349 51.151 387.904 49.6557 387.904 47.9896C387.904 46.1098 387.37 44.5504 386.302 43.3115C385.234 42.0725 383.568 41.0259 381.303 40.1714C379.082 39.2742 376.006 38.4198 372.075 37.6081C366.094 36.3691 361.673 34.5748 358.81 32.2251C355.991 29.8753 354.581 26.6285 354.581 22.4844C354.581 19.7075 355.414 17.2937 357.08 15.243C358.789 13.1496 361.139 11.5475 364.129 10.4367C367.12 9.32595 370.516 8.77056 374.318 8.77056Z" fill="white"/>
<path d="M27.6199 16.012V14.2052H25.8131V16.012H27.6199ZM27.6199 61.3189V63.1257H29.4268V61.3189H27.6199ZM20.8912 61.3189H19.0843V63.1257H20.8912V61.3189ZM20.8912 16.012H22.698V14.2052H20.8912V16.012ZM2.43517 16.012H0.628339V17.8188H2.43517V16.012ZM2.43517 9.98814V8.18132H0.628339V9.98814H2.43517ZM46.0119 9.98814H47.8187V8.18132H46.0119V9.98814ZM46.0119 16.012V17.8188H47.8187V16.012H46.0119ZM27.6199 16.012H25.8131V61.3189H27.6199H29.4268V16.012H27.6199ZM27.6199 61.3189V59.5121H20.8912V61.3189V63.1257H27.6199V61.3189ZM20.8912 61.3189H22.698V16.012H20.8912H19.0843V61.3189H20.8912ZM20.8912 16.012V14.2052H2.43517V16.012V17.8188H20.8912V16.012ZM2.43517 16.012H4.242V9.98814H2.43517H0.628339V16.012H2.43517ZM2.43517 9.98814V11.795H46.0119V9.98814V8.18132H2.43517V9.98814ZM46.0119 9.98814H44.205V16.012H46.0119H47.8187V9.98814H46.0119ZM46.0119 16.012V14.2052H27.6199V16.012V17.8188H46.0119V16.012ZM95.9238 9.98814H97.7306V8.18132H95.9238V9.98814ZM95.9238 61.3189V63.1257H97.7306V61.3189H95.9238ZM89.195 61.3189H87.3882V63.1257H89.195V61.3189ZM89.195 38.1207H91.0019V36.3139H89.195V38.1207ZM59.3963 38.1207V36.3139H57.5894V38.1207H59.3963ZM59.3963 61.3189V63.1257H61.2031V61.3189H59.3963ZM52.6675 61.3189H50.8607V63.1257H52.6675V61.3189ZM52.6675 9.98814V8.18132H50.8607V9.98814H52.6675ZM59.3963 9.98814H61.2031V8.18132H59.3963V9.98814ZM59.3963 31.9687H57.5894V33.7756H59.3963V31.9687ZM89.195 31.9687V33.7756H91.0019V31.9687H89.195ZM89.195 9.98814V8.18132H87.3882V9.98814H89.195ZM95.9238 9.98814H94.117V61.3189H95.9238H97.7306V9.98814H95.9238ZM95.9238 61.3189V59.5121H89.195V61.3189V63.1257H95.9238V61.3189ZM89.195 61.3189H91.0019V38.1207H89.195H87.3882V61.3189H89.195ZM89.195 38.1207V36.3139H59.3963V38.1207V39.9276H89.195V38.1207ZM59.3963 38.1207H57.5894V61.3189H59.3963H61.2031V38.1207H59.3963ZM59.3963 61.3189V59.5121H52.6675V61.3189V63.1257H59.3963V61.3189ZM52.6675 61.3189H54.4743V9.98814H52.6675H50.8607V61.3189H52.6675ZM52.6675 9.98814V11.795H59.3963V9.98814V8.18132H52.6675V9.98814ZM59.3963 9.98814H57.5894V31.9687H59.3963H61.2031V9.98814H59.3963ZM59.3963 31.9687V33.7756H89.195V31.9687V30.1619H59.3963V31.9687ZM89.195 31.9687H91.0019V9.98814H89.195H87.3882V31.9687H89.195ZM89.195 9.98814V11.795H95.9238V9.98814V8.18132H89.195V9.98814ZM142.107 9.98814H143.914V8.18132H142.107V9.98814ZM142.107 15.9479V17.7547H143.914V15.9479H142.107ZM112.373 15.9479V14.1411H110.566V15.9479H112.373ZM112.373 32.0969H110.566V33.9037H112.373V32.0969ZM139.864 32.0969H141.671V30.2901H139.864V32.0969ZM139.864 38.0567V39.8635H141.671V38.0567H139.864ZM112.373 38.0567V36.2498H110.566V38.0567H112.373ZM112.373 55.3592H110.566V57.166H112.373V55.3592ZM142.684 55.3592H144.491V53.5523H142.684V55.3592ZM142.684 61.3189V63.1257H144.491V61.3189H142.684ZM105.644 61.3189H103.837V63.1257H105.644V61.3189ZM105.644 9.98814V8.18132H103.837V9.98814H105.644ZM142.107 9.98814H140.301V15.9479H142.107H143.914V9.98814H142.107ZM142.107 15.9479V14.1411H112.373V15.9479V17.7547H142.107V15.9479ZM112.373 15.9479H110.566V32.0969H112.373H114.18V15.9479H112.373ZM112.373 32.0969V33.9037H139.864V32.0969V30.2901H112.373V32.0969ZM139.864 32.0969H138.058V38.0567H139.864H141.671V32.0969H139.864ZM139.864 38.0567V36.2498H112.373V38.0567V39.8635H139.864V38.0567ZM112.373 38.0567H110.566V55.3592H112.373H114.18V38.0567H112.373ZM112.373 55.3592V57.166H142.684V55.3592V53.5523H112.373V55.3592ZM142.684 55.3592H140.877V61.3189H142.684H144.491V55.3592H142.684ZM142.684 61.3189V59.5121H105.644V61.3189V63.1257H142.684V61.3189ZM105.644 61.3189H107.451V9.98814H105.644H103.837V61.3189H105.644ZM105.644 9.98814V11.795H142.107V9.98814V8.18132H105.644V9.98814ZM199.408 48.6304L201.084 47.9535L200.627 46.8236H199.408V48.6304ZM174.736 48.6304V46.8236H173.518L173.061 47.9535L174.736 48.6304ZM169.61 61.3189V63.1257H170.828L171.285 61.9958L169.61 61.3189ZM162.56 61.3189L160.89 60.6307L159.862 63.1257H162.56V61.3189ZM183.708 9.98814V8.18132H182.498L182.037 9.29988L183.708 9.98814ZM190.821 9.98814L192.493 9.30166L192.032 8.18132H190.821V9.98814ZM211.905 61.3189V63.1257H214.6L213.576 60.6324L211.905 61.3189ZM204.535 61.3189L202.86 61.9958L203.316 63.1257H204.535V61.3189ZM197.037 42.6707V44.4775H199.707L198.715 41.9989L197.037 42.6707ZM187.104 17.8704L188.782 17.1986L187.11 13.0242L185.429 17.1949L187.104 17.8704ZM177.107 42.6707L175.432 41.9951L174.431 44.4775H177.107V42.6707ZM199.408 48.6304V46.8236H174.736V48.6304V50.4372H199.408V48.6304ZM174.736 48.6304L173.061 47.9535L167.934 60.642L169.61 61.3189L171.285 61.9958L176.412 49.3073L174.736 48.6304ZM169.61 61.3189V59.5121H162.56V61.3189V63.1257H169.61V61.3189ZM162.56 61.3189L164.231 62.0072L185.379 10.6764L183.708 9.98814L182.037 9.29988L160.89 60.6307L162.56 61.3189ZM183.708 9.98814V11.795H190.821V9.98814V8.18132H183.708V9.98814ZM190.821 9.98814L189.15 10.6746L210.233 62.0054L211.905 61.3189L213.576 60.6324L192.493 9.30166L190.821 9.98814ZM211.905 61.3189V59.5121H204.535V61.3189V63.1257H211.905V61.3189ZM204.535 61.3189L206.21 60.642L201.084 47.9535L199.408 48.6304L197.733 49.3073L202.86 61.9958L204.535 61.3189ZM197.037 42.6707L198.715 41.9989L188.782 17.1986L187.104 17.8704L185.427 18.5422L195.36 43.3424L197.037 42.6707ZM187.104 17.8704L185.429 17.1949L175.432 41.9951L177.107 42.6707L178.783 43.3462L188.78 18.5459L187.104 17.8704ZM177.107 42.6707V44.4775H197.037V42.6707V40.8638H177.107V42.6707ZM251.478 13.7691L250.332 15.1666L250.342 15.1743L251.478 13.7691ZM253.849 30.9434L252.403 29.8593L252.4 29.8642L253.849 30.9434ZM248.209 34.7884L247.779 33.0336L247.855 36.5601L248.209 34.7884ZM253.721 57.4098L252.59 56.0007L252.58 56.0081L253.721 57.4098ZM217.449 61.3189H215.643V63.1257H217.449V61.3189ZM217.449 9.98814V8.18132H215.643V9.98814H217.449ZM246.479 17.9986L247.568 16.557L246.479 17.9986ZM224.178 15.8197V14.0129H222.371V15.8197H224.178ZM224.178 32.6096H222.371V34.4164H224.178V32.6096ZM248.658 53.2444L247.608 51.7741L247.601 51.7793L247.593 51.7845L248.658 53.2444ZM248.658 40.4277L247.593 41.8877L247.601 41.8929L247.608 41.898L248.658 40.4277ZM224.178 38.1848V36.378H222.371V38.1848H224.178ZM224.178 55.4873H222.371V57.2942H224.178V55.4873ZM238.405 9.98814V11.795C243.798 11.795 247.691 13.002 250.332 15.1666L251.478 13.7691L252.623 12.3715C249.112 9.49488 244.29 8.18132 238.405 8.18132V9.98814ZM251.478 13.7691L250.342 15.1743C252.987 17.3119 254.349 20.2503 254.349 24.2147H256.156H257.963C257.963 19.2928 256.206 15.2675 252.613 12.3638L251.478 13.7691ZM256.156 24.2147H254.349C254.349 26.2375 253.72 28.1038 252.403 29.8593L253.849 30.9434L255.294 32.0275C257.054 29.6817 257.963 27.0622 257.963 24.2147H256.156ZM253.849 30.9434L252.4 29.8642C251.135 31.5622 249.604 32.5859 247.779 33.0336L248.209 34.7884L248.64 36.5432C251.343 35.8801 253.572 34.3405 255.298 32.0226L253.849 30.9434ZM248.209 34.7884L247.855 36.5601C250.481 37.0853 252.607 38.2856 254.301 40.164L255.643 38.9538L256.985 37.7437C254.749 35.2644 251.919 33.6877 248.564 33.0167L248.209 34.7884ZM255.643 38.9538L254.301 40.164C255.952 41.9937 256.784 44.1834 256.784 46.8361H258.591H260.398C260.398 43.3367 259.265 40.2716 256.985 37.7437L255.643 38.9538ZM258.591 46.8361H256.784C256.784 50.7736 255.377 53.7633 252.59 56.0007L253.721 57.4098L254.852 58.8189C258.558 55.8443 260.398 51.7847 260.398 46.8361H258.591ZM253.721 57.4098L252.58 56.0081C249.803 58.267 245.795 59.5121 240.327 59.5121V61.3189V63.1257C246.309 63.1257 251.23 61.7648 254.861 58.8116L253.721 57.4098ZM240.327 61.3189V59.5121H217.449V61.3189V63.1257H240.327V61.3189ZM217.449 61.3189H219.256V9.98814H217.449H215.643V61.3189H217.449ZM217.449 9.98814V11.795H238.405V9.98814V8.18132H217.449V9.98814ZM238.212 32.6096V34.4164C242.011 34.4164 245.212 33.6528 247.568 31.8723L246.479 30.4307L245.39 28.9891C243.901 30.1138 241.591 30.8027 238.212 30.8027V32.6096ZM246.479 30.4307L247.568 31.8723C250 30.0349 251.17 27.3966 251.17 24.2147H249.363H247.556C247.556 26.4158 246.803 27.9214 245.39 28.9891L246.479 30.4307ZM249.363 24.2147H251.17C251.17 21.0328 250 18.3944 247.568 16.557L246.479 17.9986L245.39 19.4402C246.803 20.5079 247.556 22.0135 247.556 24.2147H249.363ZM246.479 17.9986L247.568 16.557C245.212 14.7766 242.011 14.0129 238.212 14.0129V15.8197V17.6266C241.591 17.6266 243.901 18.3155 245.39 19.4402L246.479 17.9986ZM238.212 15.8197V14.0129H224.178V15.8197V17.6266H238.212V15.8197ZM224.178 15.8197H222.371V32.6096H224.178H225.985V15.8197H224.178ZM224.178 32.6096V34.4164H238.212V32.6096V30.8027H224.178V32.6096ZM240.135 55.4873V57.2942C243.99 57.2942 247.255 56.5035 249.722 54.7043L248.658 53.2444L247.593 51.7845C245.96 52.9759 243.543 53.6805 240.135 53.6805V55.4873ZM248.658 53.2444L249.708 54.7147C252.319 52.8499 253.605 50.1423 253.605 46.8361H251.798H249.991C249.991 49.0838 249.184 50.6484 247.608 51.7741L248.658 53.2444ZM251.798 46.8361H253.605C253.605 43.5299 252.319 40.8223 249.708 38.9575L248.658 40.4277L247.608 41.898C249.184 43.0238 249.991 44.5884 249.991 46.8361H251.798ZM248.658 40.4277L249.722 38.9678C247.255 37.1686 243.99 36.378 240.135 36.378V38.1848V39.9917C243.543 39.9917 245.96 40.6963 247.593 41.8877L248.658 40.4277ZM240.135 38.1848V36.378H224.178V38.1848V39.9917H240.135V38.1848ZM224.178 38.1848H222.371V55.4873H224.178H225.985V38.1848H224.178ZM224.178 55.4873V57.2942H240.135V55.4873V53.6805H224.178V55.4873ZM285.36 44.1446L283.816 43.206L283.553 43.6385V44.1446H285.36ZM285.36 61.3189V63.1257H287.167V61.3189H285.36ZM278.567 61.3189H276.761V63.1257H278.567V61.3189ZM278.567 44.1446H280.374V43.6519L280.124 43.2275L278.567 44.1446ZM258.445 9.98814V8.18132H255.284L256.888 10.9053L258.445 9.98814ZM266.071 9.98814L267.635 9.08243L267.113 8.18132H266.071V9.98814ZM282.22 37.8644L280.657 38.7701L282.196 41.4269L283.771 38.7914L282.22 37.8644ZM298.882 9.98814V8.18132H297.857L297.331 9.06116L298.882 9.98814ZM306.123 9.98814L307.667 10.9267L309.336 8.18132H306.123V9.98814ZM285.36 44.1446H283.553V61.3189H285.36H287.167V44.1446H285.36ZM285.36 61.3189V59.5121H278.567V61.3189V63.1257H285.36V61.3189ZM278.567 61.3189H280.374V44.1446H278.567H276.761V61.3189H278.567ZM278.567 44.1446L280.124 43.2275L260.002 9.07103L258.445 9.98814L256.888 10.9053L277.011 45.0617L278.567 44.1446ZM258.445 9.98814V11.795H266.071V9.98814V8.18132H258.445V9.98814ZM266.071 9.98814L264.508 10.8939L280.657 38.7701L282.22 37.8644L283.784 36.9587L267.635 9.08243L266.071 9.98814ZM282.22 37.8644L283.771 38.7914L300.433 10.9151L298.882 9.98814L297.331 9.06116L280.669 36.9374L282.22 37.8644ZM298.882 9.98814V11.795H306.123V9.98814V8.18132H298.882V9.98814ZM306.123 9.98814L304.579 9.04961L283.816 43.206L285.36 44.1446L286.904 45.0831L307.667 10.9267L306.123 9.98814ZM337.786 10.7571L337.055 12.4092L337.065 12.4136L337.075 12.4179L337.786 10.7571ZM347.976 24.1506V25.9574H349.918L349.778 24.02L347.976 24.1506ZM341.055 24.1506L339.264 24.3947L339.477 25.9574H341.055V24.1506ZM336.825 17.2296L335.741 18.675L335.747 18.6796L335.753 18.6842L336.825 17.2296ZM318.113 16.781L319.102 18.2933L319.108 18.2887L318.113 16.781ZM316.383 26.9062L315.035 28.1095L315.046 28.1217L315.057 28.1337L316.383 26.9062ZM321.317 29.9181L320.668 31.6045L320.679 31.6085L321.317 29.9181ZM330.481 32.4173L330.859 30.6504L330.854 30.6495L330.481 32.4173ZM343.938 38.1207L342.735 39.4689L342.746 39.4786L342.757 39.4882L343.938 38.1207ZM345.476 55.4873L346.882 56.6226L346.887 56.6161L346.892 56.6095L345.476 55.4873ZM338.107 60.614L337.46 58.927L337.45 58.9309L337.44 58.9348L338.107 60.614ZM317.023 60.4218L316.298 62.0766L316.306 62.0802L317.023 60.4218ZM306.386 46.003V44.1962H304.458L304.583 46.1201L306.386 46.003ZM313.307 46.003L315.103 45.8088L314.929 44.1962H313.307V46.003ZM317.792 53.693L316.716 55.1441L316.727 55.1522L317.792 53.693ZM334.967 55.5514L334.352 53.8523L334.967 55.5514ZM339.645 52.4754L338.26 51.3143L339.645 52.4754ZM339.709 43.3115L338.34 44.4912L339.709 43.3115ZM334.71 40.1714L334.034 41.8468L334.053 41.8546L334.072 41.8619L334.71 40.1714ZM325.482 37.6081L325.116 39.3773L325.117 39.3776L325.482 37.6081ZM312.217 32.2251L311.06 33.6132L311.071 33.6216L312.217 32.2251ZM310.487 15.243L309.087 14.1004L309.085 14.1036L310.487 15.243ZM317.536 10.4367L318.165 12.1305V12.1305L317.536 10.4367ZM327.725 8.77056V10.5774C331.224 10.5774 334.324 11.1999 337.055 12.4092L337.786 10.7571L338.518 9.10507C335.268 7.66561 331.66 6.96373 327.725 6.96373V8.77056ZM337.786 10.7571L337.075 12.4179C339.809 13.5896 341.941 15.2226 343.528 17.3008L344.964 16.2042L346.4 15.1076C344.398 12.4864 341.745 10.488 338.498 9.09641L337.786 10.7571ZM344.964 16.2042L343.528 17.3008C345.109 19.3711 345.985 21.6842 346.174 24.2812L347.976 24.1506L349.778 24.02C349.539 20.7213 348.407 17.7368 346.4 15.1076L344.964 16.2042ZM347.976 24.1506V22.3437H341.055V24.1506V25.9574H347.976V24.1506ZM341.055 24.1506L342.845 23.9064C342.39 20.5698 340.698 17.8388 337.897 15.775L336.825 17.2296L335.753 18.6842C337.823 20.209 338.95 22.092 339.264 24.3947L341.055 24.1506ZM336.825 17.2296L337.909 15.7841C335.122 13.6933 331.566 12.7312 327.405 12.7312V14.5381V16.3449C331.019 16.3449 333.744 17.1771 335.741 18.675L336.825 17.2296ZM327.405 14.5381V12.7312C323.271 12.7312 319.782 13.5137 317.117 15.2732L318.113 16.781L319.108 18.2887C320.973 17.0577 323.678 16.3449 327.405 16.3449V14.5381ZM318.113 16.781L317.124 15.2687C314.47 17.0042 312.974 19.4375 312.974 22.4844H314.78H316.587C316.587 20.8319 317.313 19.4629 319.102 18.2932L318.113 16.781ZM314.78 22.4844H312.974C312.974 24.6356 313.643 26.5506 315.035 28.1095L316.383 26.9062L317.73 25.7028C316.986 24.8693 316.587 23.8364 316.587 22.4844H314.78ZM316.383 26.9062L315.057 28.1337C316.384 29.5673 318.31 30.6973 320.668 31.6045L321.317 29.9181L321.966 28.2317C319.881 27.4299 318.517 26.552 317.708 25.6786L316.383 26.9062ZM321.317 29.9181L320.679 31.6085C323.066 32.5092 326.221 33.3646 330.108 34.1852L330.481 32.4173L330.854 30.6495C327.051 29.8466 324.097 29.0359 321.955 28.2276L321.317 29.9181ZM330.481 32.4173L330.103 34.1842C336.18 35.4835 340.304 37.299 342.735 39.4689L343.938 38.1207L345.141 36.7726C342.019 33.9867 337.171 32 330.859 30.6504L330.481 32.4173ZM343.938 38.1207L342.757 39.4882C345.16 41.5634 346.361 44.2164 346.361 47.6051H348.168H349.975C349.975 43.2183 348.356 39.5484 345.119 36.7533L343.938 38.1207ZM348.168 47.6051H346.361C346.361 50.2037 345.592 52.4321 344.06 54.3651L345.476 55.4873L346.892 56.6095C348.949 54.014 349.975 50.9876 349.975 47.6051H348.168ZM345.476 55.4873L344.071 54.352C342.508 56.2869 340.332 57.8252 337.46 58.927L338.107 60.614L338.754 62.301C342.119 61.0104 344.856 59.1308 346.882 56.6226L345.476 55.4873ZM338.107 60.614L337.44 58.9348C334.56 60.079 331.329 60.6656 327.725 60.6656V62.4724V64.2793C331.726 64.2793 335.417 63.6269 338.774 62.2932L338.107 60.614ZM327.725 62.4724V60.6656C323.961 60.6656 320.643 60.0187 317.741 58.7633L317.023 60.4218L316.306 62.0802C319.726 63.5591 323.543 64.2793 327.725 64.2793V62.4724ZM317.023 60.4218L317.749 58.7669C314.885 57.5115 312.641 55.7719 310.965 53.5622L309.526 54.6543L308.086 55.7463C310.169 58.4924 312.925 60.5978 316.298 62.0766L317.023 60.4218ZM309.526 54.6543L310.965 53.5622C309.313 51.3839 308.381 48.8442 308.189 45.8859L306.386 46.003L304.583 46.1201C304.818 49.741 305.979 52.9688 308.086 55.7463L309.526 54.6543ZM306.386 46.003V47.8098H313.307V46.003V44.1962H306.386V46.003ZM313.307 46.003L311.51 46.1972C311.908 49.8803 313.679 52.8912 316.716 55.1441L317.792 53.693L318.869 52.2419C316.608 50.5643 315.388 48.4485 315.103 45.8088L313.307 46.003ZM317.792 53.693L316.727 55.1522C319.802 57.3977 323.665 58.4477 328.174 58.4477V56.6408V54.834C324.224 54.834 321.166 53.9188 318.858 52.2338L317.792 53.693ZM328.174 56.6408V58.4477C330.867 58.4477 333.344 58.0596 335.581 57.2505L334.967 55.5514L334.352 53.8523C332.573 54.4958 330.522 54.834 328.174 54.834V56.6408ZM334.967 55.5514L335.581 57.2505C337.819 56.4412 339.671 55.2562 341.029 53.6365L339.645 52.4754L338.26 51.3143C337.397 52.3434 336.13 53.2091 334.352 53.8523L334.967 55.5514ZM339.645 52.4754L341.029 53.6365C342.402 52 343.118 50.0974 343.118 47.9896H341.311H339.504C339.504 49.2141 339.109 50.302 338.26 51.3143L339.645 52.4754ZM341.311 47.9896H343.118C343.118 45.7453 342.47 43.7471 341.077 42.1317L339.709 43.3115L338.34 44.4912C339.084 45.3537 339.504 46.4743 339.504 47.9896H341.311ZM339.709 43.3115L341.077 42.1317C339.74 40.5806 337.77 39.3946 335.348 38.4809L334.71 40.1714L334.072 41.8619C336.18 42.6571 337.541 43.5645 338.34 44.4912L339.709 43.3115ZM334.71 40.1714L335.387 38.496C333.02 37.5402 329.824 36.6597 325.848 35.8386L325.482 37.6081L325.117 39.3776C329.002 40.1799 331.958 41.0083 334.034 41.8468L334.71 40.1714ZM325.482 37.6081L325.849 35.8388C319.99 34.6251 315.898 32.9095 313.364 30.8285L312.217 32.2251L311.071 33.6216C314.261 36.2401 319.013 38.1131 325.116 39.3773L325.482 37.6081ZM312.217 32.2251L313.374 30.837C311.022 28.8775 309.794 26.17 309.794 22.4844H307.988H306.181C306.181 27.0869 307.773 30.8732 311.06 33.6131L312.217 32.2251ZM307.988 22.4844H309.794C309.794 20.0996 310.499 18.0937 311.889 16.3824L310.487 15.243L309.085 14.1036C307.143 16.4936 306.181 19.3153 306.181 22.4844H307.988ZM310.487 15.243L311.887 16.3856C313.358 14.5829 315.421 13.1497 318.165 12.1305L317.536 10.4367L316.907 8.74296C313.67 9.9453 311.033 11.7163 309.087 14.1004L310.487 15.243ZM317.536 10.4367L318.165 12.1305C320.92 11.1073 324.098 10.5774 327.725 10.5774V8.77056V6.96373C323.748 6.96373 320.133 7.54459 316.907 8.74296L317.536 10.4367ZM384.379 10.7571L383.648 12.4092L383.658 12.4136L383.668 12.4179L384.379 10.7571ZM394.569 24.1506V25.9574H396.511L396.371 24.02L394.569 24.1506ZM387.648 24.1506L385.857 24.3947L386.071 25.9574H387.648V24.1506ZM383.418 17.2296L382.334 18.675L382.34 18.6796L382.346 18.6842L383.418 17.2296ZM364.706 16.781L365.695 18.2933L365.702 18.2887L364.706 16.781ZM362.976 26.9062L361.628 28.1095L361.639 28.1217L361.65 28.1337L362.976 26.9062ZM367.91 29.9181L367.261 31.6045L367.272 31.6085L367.91 29.9181ZM377.074 32.4173L377.452 30.6504L377.447 30.6495L377.074 32.4173ZM390.531 38.1207L389.328 39.4689L389.339 39.4786L389.35 39.4882L390.531 38.1207ZM392.069 55.4873L393.475 56.6226L393.48 56.6161L393.486 56.6095L392.069 55.4873ZM384.7 60.614L384.053 58.927L384.043 58.9309L384.033 58.9348L384.7 60.614ZM363.616 60.4218L362.891 62.0766L362.899 62.0802L363.616 60.4218ZM352.979 46.003V44.1962H351.051L351.176 46.1201L352.979 46.003ZM359.9 46.003L361.696 45.8088L361.522 44.1962H359.9V46.003ZM364.385 53.693L363.309 55.1441L363.32 55.1522L364.385 53.693ZM381.56 55.5514L380.945 53.8523L381.56 55.5514ZM386.238 52.4754L384.854 51.3143L386.238 52.4754ZM386.302 43.3115L384.933 44.4912L386.302 43.3115ZM381.303 40.1714L380.627 41.8468L380.646 41.8546L380.666 41.8619L381.303 40.1714ZM372.075 37.6081L371.709 39.3773L371.71 39.3776L372.075 37.6081ZM358.81 32.2251L357.653 33.6132L357.664 33.6216L358.81 32.2251ZM357.08 15.243L355.68 14.1004L355.678 14.1036L357.08 15.243ZM364.129 10.4367L364.758 12.1305V12.1305L364.129 10.4367ZM374.318 8.77056V10.5774C377.818 10.5774 380.917 11.1999 383.648 12.4092L384.379 10.7571L385.111 9.10507C381.861 7.66561 378.253 6.96373 374.318 6.96373V8.77056ZM384.379 10.7571L383.668 12.4179C386.402 13.5896 388.534 15.2226 390.121 17.3008L391.557 16.2042L392.993 15.1076C390.991 12.4864 388.338 10.488 385.091 9.09641L384.379 10.7571ZM391.557 16.2042L390.121 17.3008C391.702 19.3711 392.578 21.6842 392.767 24.2812L394.569 24.1506L396.371 24.02C396.132 20.7213 395.001 17.7368 392.993 15.1076L391.557 16.2042ZM394.569 24.1506V22.3437H387.648V24.1506V25.9574H394.569V24.1506ZM387.648 24.1506L389.438 23.9064C388.983 20.5698 387.291 17.8388 384.49 15.775L383.418 17.2296L382.346 18.6842C384.416 20.209 385.543 22.092 385.857 24.3947L387.648 24.1506ZM383.418 17.2296L384.502 15.7841C381.715 13.6933 378.159 12.7312 373.998 12.7312V14.5381V16.3449C377.612 16.3449 380.337 17.1771 382.334 18.675L383.418 17.2296ZM373.998 14.5381V12.7312C369.864 12.7312 366.375 13.5137 363.71 15.2732L364.706 16.781L365.702 18.2887C367.566 17.0577 370.271 16.3449 373.998 16.3449V14.5381ZM364.706 16.781L363.717 15.2687C361.063 17.0042 359.567 19.4375 359.567 22.4844H361.374H363.18C363.18 20.8319 363.906 19.4629 365.695 18.2932L364.706 16.781ZM361.374 22.4844H359.567C359.567 24.6356 360.236 26.5506 361.628 28.1095L362.976 26.9062L364.323 25.7028C363.579 24.8693 363.18 23.8364 363.18 22.4844H361.374ZM362.976 26.9062L361.65 28.1337C362.977 29.5673 364.903 30.6973 367.261 31.6045L367.91 29.9181L368.559 28.2317C366.474 27.4299 365.11 26.552 364.301 25.6786L362.976 26.9062ZM367.91 29.9181L367.272 31.6085C369.659 32.5092 372.814 33.3646 376.701 34.1852L377.074 32.4173L377.447 30.6495C373.644 29.8466 370.69 29.0359 368.548 28.2276L367.91 29.9181ZM377.074 32.4173L376.696 34.1842C382.773 35.4835 386.897 37.299 389.328 39.4689L390.531 38.1207L391.734 36.7726C388.612 33.9867 383.764 32 377.452 30.6504L377.074 32.4173ZM390.531 38.1207L389.35 39.4882C391.753 41.5634 392.954 44.2164 392.954 47.6051H394.761H396.568C396.568 43.2183 394.949 39.5484 391.712 36.7533L390.531 38.1207ZM394.761 47.6051H392.954C392.954 50.2037 392.185 52.4321 390.653 54.3651L392.069 55.4873L393.486 56.6095C395.542 54.014 396.568 50.9876 396.568 47.6051H394.761ZM392.069 55.4873L390.664 54.352C389.101 56.2869 386.925 57.8252 384.053 58.927L384.7 60.614L385.347 62.301C388.712 61.0104 391.449 59.1308 393.475 56.6226L392.069 55.4873ZM384.7 60.614L384.033 58.9348C381.153 60.079 377.922 60.6656 374.318 60.6656V62.4724V64.2793C378.319 64.2793 382.01 63.6269 385.367 62.2932L384.7 60.614ZM374.318 62.4724V60.6656C370.554 60.6656 367.237 60.0187 364.334 58.7633L363.616 60.4218L362.899 62.0802C366.319 63.5591 370.136 64.2793 374.318 64.2793V62.4724ZM363.616 60.4218L364.342 58.7669C361.478 57.5115 359.234 55.7719 357.558 53.5622L356.119 54.6543L354.679 55.7463C356.762 58.4924 359.518 60.5978 362.891 62.0766L363.616 60.4218ZM356.119 54.6543L357.558 53.5622C355.906 51.3839 354.974 48.8442 354.782 45.8859L352.979 46.003L351.176 46.1201C351.411 49.741 352.572 52.9688 354.679 55.7463L356.119 54.6543ZM352.979 46.003V47.8098H359.9V46.003V44.1962H352.979V46.003ZM359.9 46.003L358.103 46.1972C358.501 49.8803 360.272 52.8912 363.309 55.1441L364.385 53.693L365.462 52.2419C363.201 50.5643 361.981 48.4485 361.696 45.8088L359.9 46.003ZM364.385 53.693L363.32 55.1522C366.395 57.3977 370.258 58.4477 374.767 58.4477V56.6408V54.834C370.817 54.834 367.759 53.9188 365.451 52.2338L364.385 53.693ZM374.767 56.6408V58.4477C377.46 58.4477 379.937 58.0596 382.174 57.2505L381.56 55.5514L380.945 53.8523C379.166 54.4958 377.115 54.834 374.767 54.834V56.6408ZM381.56 55.5514L382.174 57.2505C384.412 56.4412 386.264 55.2562 387.622 53.6365L386.238 52.4754L384.854 51.3143C383.99 52.3434 382.724 53.2091 380.945 53.8523L381.56 55.5514ZM386.238 52.4754L387.622 53.6365C388.995 52 389.711 50.0974 389.711 47.9896H387.904H386.097C386.097 49.2141 385.703 50.302 384.854 51.3143L386.238 52.4754ZM387.904 47.9896H389.711C389.711 45.7453 389.063 43.7471 387.67 42.1317L386.302 43.3115L384.933 44.4912C385.677 45.3537 386.097 46.4743 386.097 47.9896H387.904ZM386.302 43.3115L387.67 42.1317C386.333 40.5806 384.363 39.3946 381.941 38.4809L381.303 40.1714L380.666 41.8619C382.773 42.6571 384.135 43.5645 384.933 44.4912L386.302 43.3115ZM381.303 40.1714L381.98 38.496C379.613 37.5402 376.417 36.6597 372.441 35.8386L372.075 37.6081L371.71 39.3776C375.595 40.1799 378.551 41.0083 380.627 41.8468L381.303 40.1714ZM372.075 37.6081L372.442 35.8388C366.583 34.6251 362.492 32.9095 359.957 30.8285L358.81 32.2251L357.664 33.6216C360.854 36.2401 365.606 38.1131 371.709 39.3773L372.075 37.6081ZM358.81 32.2251L359.967 30.837C357.615 28.8775 356.388 26.17 356.388 22.4844H354.581H352.774C352.774 27.0869 354.366 30.8732 357.654 33.6131L358.81 32.2251ZM354.581 22.4844H356.388C356.388 20.0996 357.092 18.0937 358.482 16.3824L357.08 15.243L355.678 14.1036C353.736 16.4936 352.774 19.3153 352.774 22.4844H354.581ZM357.08 15.243L358.48 16.3856C359.951 14.5829 362.014 13.1497 364.758 12.1305L364.129 10.4367L363.5 8.74296C360.263 9.9453 357.626 11.7163 355.68 14.1004L357.08 15.243ZM364.129 10.4367L364.758 12.1305C367.513 11.1073 370.691 10.5774 374.318 10.5774V8.77056V6.96373C370.342 6.96373 366.726 7.54459 363.5 8.74296L364.129 10.4367Z" fill="white" mask="url(#path-1-outside-1_1911_13297)"/>
<mask id="path-3-outside-2_1911_13297" maskUnits="userSpaceOnUse" x="57.2129" y="85.5" width="522" height="59" fill="black">
<rect fill="white" x="57.2129" y="85.5" width="522" height="59"/>
<path d="M86.5884 141.972C81.4617 141.972 76.8264 140.819 72.6823 138.512C68.581 136.205 65.3555 133.001 63.0057 128.899C60.656 124.798 59.4811 120.205 59.4811 115.121C59.4811 110.038 60.6346 105.445 62.9416 101.344C65.2914 97.2422 68.5169 94.0381 72.6182 91.7311C76.7623 89.4241 81.3977 88.2706 86.5243 88.2706C91.651 88.2706 96.265 89.4241 100.366 91.7311C104.51 94.0381 107.757 97.2422 110.107 101.344C112.457 105.445 113.632 110.038 113.632 115.121C113.632 120.205 112.457 124.798 110.107 128.899C107.8 133.001 104.574 136.205 100.43 138.512C96.3291 140.819 91.7151 141.972 86.5884 141.972ZM86.5884 135.82C90.4334 135.82 93.8939 134.945 96.9699 133.193C100.089 131.399 102.524 128.942 104.275 125.823C106.027 122.662 106.903 119.095 106.903 115.121C106.903 111.148 106.027 107.602 104.275 104.484C102.524 101.322 100.089 98.8657 96.9699 97.1141C93.8939 95.3197 90.412 94.4226 86.5243 94.4226C82.6366 94.4226 79.1547 95.3197 76.0787 97.1141C73.0027 98.8657 70.5889 101.322 68.8373 104.484C67.0857 107.602 66.2099 111.148 66.2099 115.121C66.2099 119.095 67.0857 122.662 68.8373 125.823C70.5889 128.942 73.0241 131.399 76.1428 133.193C79.2615 134.945 82.7434 135.82 86.5884 135.82ZM157.096 89.4881V95.512H127.938V113.007L154.276 112.943V118.966H127.938V140.819H121.209V89.4881H157.096ZM186.391 140.819H179.662V89.4881H186.391V140.819ZM202.05 89.4881L221.851 124.349L241.653 89.4881H247.549V140.819H240.82V102.946L224.287 132.168H219.416L202.883 102.946V140.819H196.154V89.4881H202.05ZM263.099 89.4881L282.901 124.349L302.703 89.4881H308.598V140.819H301.869V102.946L285.336 132.168H280.466L263.932 102.946V140.819H257.203V89.4881H263.099ZM354.716 89.4881V95.4479H324.981V111.597H352.473V117.557H324.981V134.859H355.293V140.819H318.253V89.4881H354.716ZM396.427 140.819L384.764 122.555C383.483 122.641 382.521 122.683 381.88 122.683H369.384V140.819H362.655V89.4881H381.88C386.153 89.4881 389.827 90.1717 392.903 91.5388C396.022 92.8632 398.393 94.7857 400.016 97.3063C401.64 99.7842 402.451 102.711 402.451 106.086C402.451 109.717 401.511 112.836 399.632 115.442C397.752 118.048 395.039 119.97 391.493 121.209L404.374 140.819H396.427ZM381.368 116.659C385.896 116.659 389.421 115.762 391.942 113.968C394.462 112.131 395.723 109.504 395.723 106.086C395.723 102.668 394.462 100.062 391.942 98.2676C389.421 96.4305 385.896 95.512 381.368 95.512H369.384V116.659H381.368ZM428.654 88.2706C432.371 88.2706 435.724 88.9328 438.715 90.2571C441.706 91.5388 444.098 93.3545 445.892 95.7042C447.687 98.054 448.691 100.703 448.904 103.651H441.983C441.599 100.831 440.189 98.5239 437.754 96.7296C435.361 94.9352 432.221 94.0381 428.333 94.0381C424.403 94.0381 421.306 94.7857 419.041 96.281C416.82 97.7335 415.709 99.6347 415.709 101.984C415.709 103.736 416.243 105.21 417.311 106.406C418.379 107.56 420.024 108.564 422.246 109.418C424.51 110.273 427.564 111.106 431.409 111.917C437.604 113.242 442.09 115.143 444.867 117.621C447.687 120.056 449.096 123.217 449.096 127.105C449.096 130.096 448.199 132.723 446.405 134.987C444.611 137.209 442.154 138.918 439.035 140.114C435.917 141.353 432.456 141.972 428.654 141.972C424.681 141.972 421.113 141.289 417.952 139.922C414.833 138.555 412.334 136.632 410.454 134.154C408.574 131.676 407.528 128.793 407.314 125.503H414.235C414.577 128.664 416.072 131.228 418.721 133.193C421.412 135.158 424.873 136.141 429.102 136.141C431.623 136.141 433.887 135.778 435.895 135.051C437.903 134.325 439.463 133.3 440.573 131.975C441.684 130.651 442.24 129.156 442.24 127.49C442.24 125.61 441.706 124.05 440.637 122.811C439.569 121.573 437.903 120.526 435.639 119.671C433.417 118.774 430.341 117.92 426.411 117.108C420.43 115.869 416.008 114.075 413.146 111.725C410.326 109.375 408.916 106.128 408.916 101.984C408.916 99.2075 409.749 96.7937 411.415 94.743C413.124 92.6496 415.474 91.0475 418.465 89.9367C421.455 88.826 424.852 88.2706 428.654 88.2706ZM463.071 140.819H456.342V89.4881H463.071V140.819ZM497.698 141.972C492.571 141.972 487.936 140.819 483.792 138.512C479.691 136.205 476.465 133.001 474.115 128.899C471.766 124.798 470.591 120.205 470.591 115.121C470.591 110.038 471.744 105.445 474.051 101.344C476.401 97.2422 479.627 94.0381 483.728 91.7311C487.872 89.4241 492.507 88.2706 497.634 88.2706C502.761 88.2706 507.375 89.4241 511.476 91.7311C515.62 94.0381 518.867 97.2422 521.217 101.344C523.566 105.445 524.741 110.038 524.741 115.121C524.741 120.205 523.566 124.798 521.217 128.899C518.91 133.001 515.684 136.205 511.54 138.512C507.439 140.819 502.825 141.972 497.698 141.972ZM497.698 135.82C501.543 135.82 505.004 134.945 508.08 133.193C511.198 131.399 513.634 128.942 515.385 125.823C517.137 122.662 518.013 119.095 518.013 115.121C518.013 111.148 517.137 107.602 515.385 104.484C513.634 101.322 511.198 98.8657 508.08 97.1141C505.004 95.3197 501.522 94.4226 497.634 94.4226C493.746 94.4226 490.264 95.3197 487.188 97.1141C484.112 98.8657 481.699 101.322 479.947 104.484C478.195 107.602 477.32 111.148 477.32 115.121C477.32 119.095 478.195 122.662 479.947 125.823C481.699 128.942 484.134 131.399 487.253 133.193C490.371 134.945 493.853 135.82 497.698 135.82ZM538.599 89.4881L569.679 129.476V89.1677H576.472V140.499H570.128L539.047 100.51V140.819H532.319V89.4881H538.599Z"/>
</mask>
<path d="M86.5884 141.972C81.4617 141.972 76.8264 140.819 72.6823 138.512C68.581 136.205 65.3555 133.001 63.0057 128.899C60.656 124.798 59.4811 120.205 59.4811 115.121C59.4811 110.038 60.6346 105.445 62.9416 101.344C65.2914 97.2422 68.5169 94.0381 72.6182 91.7311C76.7623 89.4241 81.3977 88.2706 86.5243 88.2706C91.651 88.2706 96.265 89.4241 100.366 91.7311C104.51 94.0381 107.757 97.2422 110.107 101.344C112.457 105.445 113.632 110.038 113.632 115.121C113.632 120.205 112.457 124.798 110.107 128.899C107.8 133.001 104.574 136.205 100.43 138.512C96.3291 140.819 91.7151 141.972 86.5884 141.972ZM86.5884 135.82C90.4334 135.82 93.8939 134.945 96.9699 133.193C100.089 131.399 102.524 128.942 104.275 125.823C106.027 122.662 106.903 119.095 106.903 115.121C106.903 111.148 106.027 107.602 104.275 104.484C102.524 101.322 100.089 98.8657 96.9699 97.1141C93.8939 95.3197 90.412 94.4226 86.5243 94.4226C82.6366 94.4226 79.1547 95.3197 76.0787 97.1141C73.0027 98.8657 70.5889 101.322 68.8373 104.484C67.0857 107.602 66.2099 111.148 66.2099 115.121C66.2099 119.095 67.0857 122.662 68.8373 125.823C70.5889 128.942 73.0241 131.399 76.1428 133.193C79.2615 134.945 82.7434 135.82 86.5884 135.82ZM157.096 89.4881V95.512H127.938V113.007L154.276 112.943V118.966H127.938V140.819H121.209V89.4881H157.096ZM186.391 140.819H179.662V89.4881H186.391V140.819ZM202.05 89.4881L221.851 124.349L241.653 89.4881H247.549V140.819H240.82V102.946L224.287 132.168H219.416L202.883 102.946V140.819H196.154V89.4881H202.05ZM263.099 89.4881L282.901 124.349L302.703 89.4881H308.598V140.819H301.869V102.946L285.336 132.168H280.466L263.932 102.946V140.819H257.203V89.4881H263.099ZM354.716 89.4881V95.4479H324.981V111.597H352.473V117.557H324.981V134.859H355.293V140.819H318.253V89.4881H354.716ZM396.427 140.819L384.764 122.555C383.483 122.641 382.521 122.683 381.88 122.683H369.384V140.819H362.655V89.4881H381.88C386.153 89.4881 389.827 90.1717 392.903 91.5388C396.022 92.8632 398.393 94.7857 400.016 97.3063C401.64 99.7842 402.451 102.711 402.451 106.086C402.451 109.717 401.511 112.836 399.632 115.442C397.752 118.048 395.039 119.97 391.493 121.209L404.374 140.819H396.427ZM381.368 116.659C385.896 116.659 389.421 115.762 391.942 113.968C394.462 112.131 395.723 109.504 395.723 106.086C395.723 102.668 394.462 100.062 391.942 98.2676C389.421 96.4305 385.896 95.512 381.368 95.512H369.384V116.659H381.368ZM428.654 88.2706C432.371 88.2706 435.724 88.9328 438.715 90.2571C441.706 91.5388 444.098 93.3545 445.892 95.7042C447.687 98.054 448.691 100.703 448.904 103.651H441.983C441.599 100.831 440.189 98.5239 437.754 96.7296C435.361 94.9352 432.221 94.0381 428.333 94.0381C424.403 94.0381 421.306 94.7857 419.041 96.281C416.82 97.7335 415.709 99.6347 415.709 101.984C415.709 103.736 416.243 105.21 417.311 106.406C418.379 107.56 420.024 108.564 422.246 109.418C424.51 110.273 427.564 111.106 431.409 111.917C437.604 113.242 442.09 115.143 444.867 117.621C447.687 120.056 449.096 123.217 449.096 127.105C449.096 130.096 448.199 132.723 446.405 134.987C444.611 137.209 442.154 138.918 439.035 140.114C435.917 141.353 432.456 141.972 428.654 141.972C424.681 141.972 421.113 141.289 417.952 139.922C414.833 138.555 412.334 136.632 410.454 134.154C408.574 131.676 407.528 128.793 407.314 125.503H414.235C414.577 128.664 416.072 131.228 418.721 133.193C421.412 135.158 424.873 136.141 429.102 136.141C431.623 136.141 433.887 135.778 435.895 135.051C437.903 134.325 439.463 133.3 440.573 131.975C441.684 130.651 442.24 129.156 442.24 127.49C442.24 125.61 441.706 124.05 440.637 122.811C439.569 121.573 437.903 120.526 435.639 119.671C433.417 118.774 430.341 117.92 426.411 117.108C420.43 115.869 416.008 114.075 413.146 111.725C410.326 109.375 408.916 106.128 408.916 101.984C408.916 99.2075 409.749 96.7937 411.415 94.743C413.124 92.6496 415.474 91.0475 418.465 89.9367C421.455 88.826 424.852 88.2706 428.654 88.2706ZM463.071 140.819H456.342V89.4881H463.071V140.819ZM497.698 141.972C492.571 141.972 487.936 140.819 483.792 138.512C479.691 136.205 476.465 133.001 474.115 128.899C471.766 124.798 470.591 120.205 470.591 115.121C470.591 110.038 471.744 105.445 474.051 101.344C476.401 97.2422 479.627 94.0381 483.728 91.7311C487.872 89.4241 492.507 88.2706 497.634 88.2706C502.761 88.2706 507.375 89.4241 511.476 91.7311C515.62 94.0381 518.867 97.2422 521.217 101.344C523.566 105.445 524.741 110.038 524.741 115.121C524.741 120.205 523.566 124.798 521.217 128.899C518.91 133.001 515.684 136.205 511.54 138.512C507.439 140.819 502.825 141.972 497.698 141.972ZM497.698 135.82C501.543 135.82 505.004 134.945 508.08 133.193C511.198 131.399 513.634 128.942 515.385 125.823C517.137 122.662 518.013 119.095 518.013 115.121C518.013 111.148 517.137 107.602 515.385 104.484C513.634 101.322 511.198 98.8657 508.08 97.1141C505.004 95.3197 501.522 94.4226 497.634 94.4226C493.746 94.4226 490.264 95.3197 487.188 97.1141C484.112 98.8657 481.699 101.322 479.947 104.484C478.195 107.602 477.32 111.148 477.32 115.121C477.32 119.095 478.195 122.662 479.947 125.823C481.699 128.942 484.134 131.399 487.253 133.193C490.371 134.945 493.853 135.82 497.698 135.82ZM538.599 89.4881L569.679 129.476V89.1677H576.472V140.499H570.128L539.047 100.51V140.819H532.319V89.4881H538.599Z" fill="white"/>
<path d="M72.6823 138.512L71.7965 140.087L71.8035 140.091L72.6823 138.512ZM63.0057 128.899L61.438 129.798L63.0057 128.899ZM62.9416 101.344L61.3739 100.445L61.3703 100.452L61.3669 100.458L62.9416 101.344ZM72.6182 91.7311L71.7394 90.1524L71.7324 90.1563L72.6182 91.7311ZM100.366 91.7311L99.4805 93.3059L99.4875 93.3097L100.366 91.7311ZM110.107 101.344L111.675 100.445L110.107 101.344ZM110.107 128.899L108.539 128.001L108.536 128.007L108.532 128.014L110.107 128.899ZM100.43 138.512L99.5515 136.933L99.5446 136.937L100.43 138.512ZM96.9699 133.193L97.864 134.763L97.871 134.759L96.9699 133.193ZM104.275 125.823L105.851 126.708L105.856 126.699L104.275 125.823ZM104.275 104.484L102.695 105.359L102.7 105.368L104.275 104.484ZM96.9699 97.1141L96.0595 98.6748L96.0723 98.6822L96.0851 98.6894L96.9699 97.1141ZM76.0787 97.1141L76.9728 98.6842L76.981 98.6795L76.9891 98.6748L76.0787 97.1141ZM68.8373 104.484L70.4127 105.368L70.4178 105.359L68.8373 104.484ZM68.8373 125.823L67.2568 126.699L67.2619 126.708L68.8373 125.823ZM76.1428 133.193L75.2418 134.759L75.2499 134.764L75.258 134.768L76.1428 133.193ZM86.5884 141.972V140.166C81.7437 140.166 77.4149 139.079 73.5612 136.933L72.6823 138.512L71.8035 140.091C76.2378 142.559 81.1797 143.779 86.5884 143.779V141.972ZM72.6823 138.512L73.5681 136.937C69.7523 134.791 66.7619 131.821 64.5735 128.001L63.0057 128.899L61.438 129.798C63.949 134.181 67.4096 137.619 71.7965 140.087L72.6823 138.512ZM63.0057 128.899L64.5735 128.001C62.3922 124.194 61.288 119.915 61.288 115.121H59.4811H57.6743C57.6743 120.496 58.9198 125.402 61.438 129.798L63.0057 128.899ZM59.4811 115.121H61.288C61.288 110.322 62.3737 106.039 64.5164 102.229L62.9416 101.344L61.3669 100.458C58.8956 104.851 57.6743 109.753 57.6743 115.121H59.4811ZM62.9416 101.344L64.5094 102.242C66.6978 98.422 69.6883 95.4522 73.504 93.3059L72.6182 91.7311L71.7324 90.1563C67.3455 92.6239 63.8849 96.0624 61.3739 100.445L62.9416 101.344ZM72.6182 91.7311L73.4971 93.3097C77.3509 91.1643 81.6796 90.0774 86.5243 90.0774V88.2706V86.4637C81.1157 86.4637 76.1737 87.6838 71.7394 90.1524L72.6182 91.7311ZM86.5243 88.2706V90.0774C91.3692 90.0774 95.6734 91.1644 99.4805 93.3059L100.366 91.7311L101.252 90.1563C96.8565 87.6837 91.9328 86.4637 86.5243 86.4637V88.2706ZM100.366 91.7311L99.4875 93.3097C103.345 95.4574 106.354 98.4267 108.539 102.242L110.107 101.344L111.675 100.445C109.161 96.0577 105.675 92.6187 101.245 90.1524L100.366 91.7311ZM110.107 101.344L108.539 102.242C110.721 106.049 111.825 110.328 111.825 115.121H113.632H115.438C115.438 109.747 114.193 104.841 111.675 100.445L110.107 101.344ZM113.632 115.121H111.825C111.825 119.915 110.721 124.194 108.539 128.001L110.107 128.899L111.675 129.798C114.193 125.402 115.438 120.496 115.438 115.121H113.632ZM110.107 128.899L108.532 128.014C106.39 131.822 103.407 134.787 99.5516 136.933L100.43 138.512L101.309 140.091C105.742 137.623 109.21 134.18 111.682 129.785L110.107 128.899ZM100.43 138.512L99.5446 136.937C95.7375 139.079 91.4333 140.166 86.5884 140.166V141.972V143.779C91.9968 143.779 96.9206 142.559 101.316 140.087L100.43 138.512ZM86.5884 135.82V137.627C90.7191 137.627 94.4923 136.683 97.864 134.763L96.9699 133.193L96.0758 131.623C93.2955 133.206 90.1477 134.014 86.5884 134.014V135.82ZM96.9699 133.193L97.871 134.759C101.27 132.804 103.939 130.112 105.851 126.708L104.275 125.823L102.7 124.939C101.109 127.772 98.9073 129.994 96.0689 131.627L96.9699 133.193ZM104.275 125.823L105.856 126.699C107.77 123.244 108.71 119.37 108.71 115.121H106.903H105.096C105.096 118.819 104.284 122.08 102.695 124.948L104.275 125.823ZM106.903 115.121H108.71C108.71 110.874 107.77 107.017 105.851 103.599L104.275 104.484L102.7 105.368C104.284 108.188 105.096 111.423 105.096 115.121H106.903ZM104.275 104.484L105.856 103.608C103.944 100.157 101.269 97.4563 97.8547 95.5387L96.9699 97.1141L96.0851 98.6894C98.9083 100.275 101.104 102.488 102.695 105.359L104.275 104.484ZM96.9699 97.1141L97.8803 95.5534C94.503 93.5833 90.7017 92.6157 86.5243 92.6157V94.4226V96.2294C90.1224 96.2294 93.2848 97.0562 96.0595 98.6748L96.9699 97.1141ZM86.5243 94.4226V92.6157C82.3469 92.6157 78.5456 93.5833 75.1683 95.5534L76.0787 97.1141L76.9891 98.6748C79.7638 97.0562 82.9263 96.2294 86.5243 96.2294V94.4226ZM76.0787 97.1141L75.1846 95.544C71.8141 97.4633 69.1656 100.163 67.2569 103.608L68.8373 104.484L70.4178 105.359C72.0122 102.482 74.1913 100.268 76.9728 98.6842L76.0787 97.1141ZM68.8373 104.484L67.2619 103.599C65.3423 107.017 64.4031 110.874 64.4031 115.121H66.2099H68.0167C68.0167 111.423 68.8291 108.188 70.4127 105.368L68.8373 104.484ZM66.2099 115.121H64.4031C64.4031 119.37 65.3424 123.244 67.2569 126.699L68.8373 125.823L70.4178 124.948C68.829 122.08 68.0167 118.819 68.0167 115.121H66.2099ZM68.8373 125.823L67.2619 126.708C69.1739 130.112 71.8428 132.804 75.2418 134.759L76.1428 133.193L77.0439 131.627C74.2054 129.994 72.004 127.772 70.4127 124.939L68.8373 125.823ZM76.1428 133.193L75.258 134.768C78.6671 136.683 82.4575 137.627 86.5884 137.627V135.82V134.014C83.0294 134.014 79.856 133.206 77.0276 131.618L76.1428 133.193ZM157.096 89.4881H158.902V87.6813H157.096V89.4881ZM157.096 95.512V97.3188H158.902V95.512H157.096ZM127.938 95.512V93.7052H126.131V95.512H127.938ZM127.938 113.007H126.131V114.818L127.942 114.814L127.938 113.007ZM154.276 112.943H156.083V111.131L154.272 111.136L154.276 112.943ZM154.276 118.966V120.773H156.083V118.966H154.276ZM127.938 118.966V117.16H126.131V118.966H127.938ZM127.938 140.819V142.626H129.745V140.819H127.938ZM121.209 140.819H119.402V142.626H121.209V140.819ZM121.209 89.4881V87.6813H119.402V89.4881H121.209ZM157.096 89.4881H155.289V95.512H157.096H158.902V89.4881H157.096ZM157.096 95.512V93.7052H127.938V95.512V97.3188H157.096V95.512ZM127.938 95.512H126.131V113.007H127.938H129.745V95.512H127.938ZM127.938 113.007L127.942 114.814L154.28 114.749L154.276 112.943L154.272 111.136L127.933 111.2L127.938 113.007ZM154.276 112.943H152.469V118.966H154.276H156.083V112.943H154.276ZM154.276 118.966V117.16H127.938V118.966V120.773H154.276V118.966ZM127.938 118.966H126.131V140.819H127.938H129.745V118.966H127.938ZM127.938 140.819V139.012H121.209V140.819V142.626H127.938V140.819ZM121.209 140.819H123.016V89.4881H121.209H119.402V140.819H121.209ZM121.209 89.4881V91.295H157.096V89.4881V87.6813H121.209V89.4881ZM186.391 140.819V142.626H188.198V140.819H186.391ZM179.662 140.819H177.856V142.626H179.662V140.819ZM179.662 89.4881V87.6813H177.856V89.4881H179.662ZM186.391 89.4881H188.198V87.6813H186.391V89.4881ZM186.391 140.819V139.012H179.662V140.819V142.626H186.391V140.819ZM179.662 140.819H181.469V89.4881H179.662H177.856V140.819H179.662ZM179.662 89.4881V91.295H186.391V89.4881V87.6813H179.662V89.4881ZM186.391 89.4881H184.584V140.819H186.391H188.198V89.4881H186.391ZM202.05 89.4881L203.621 88.5958L203.101 87.6813H202.05V89.4881ZM221.851 124.349L220.28 125.242L221.851 128.008L223.422 125.242L221.851 124.349ZM241.653 89.4881V87.6813H240.601L240.082 88.5958L241.653 89.4881ZM247.549 89.4881H249.356V87.6813H247.549V89.4881ZM247.549 140.819V142.626H249.356V140.819H247.549ZM240.82 140.819H239.013V142.626H240.82V140.819ZM240.82 102.946H242.627V96.083L239.247 102.056L240.82 102.946ZM224.287 132.168V133.974H225.34L225.859 133.057L224.287 132.168ZM219.416 132.168L217.844 133.057L218.362 133.974H219.416V132.168ZM202.883 102.946L204.455 102.056L201.076 96.083V102.946H202.883ZM202.883 140.819V142.626H204.69V140.819H202.883ZM196.154 140.819H194.347V142.626H196.154V140.819ZM196.154 89.4881V87.6813H194.347V89.4881H196.154ZM202.05 89.4881L200.479 90.3805L220.28 125.242L221.851 124.349L223.422 123.457L203.621 88.5958L202.05 89.4881ZM221.851 124.349L223.422 125.242L243.224 90.3805L241.653 89.4881L240.082 88.5958L220.28 123.457L221.851 124.349ZM241.653 89.4881V91.295H247.549V89.4881V87.6813H241.653V89.4881ZM247.549 89.4881H245.742V140.819H247.549H249.356V89.4881H247.549ZM247.549 140.819V139.012H240.82V140.819V142.626H247.549V140.819ZM240.82 140.819H242.627V102.946H240.82H239.013V140.819H240.82ZM240.82 102.946L239.247 102.056L222.714 131.278L224.287 132.168L225.859 133.057L242.393 103.835L240.82 102.946ZM224.287 132.168V130.361H219.416V132.168V133.974H224.287V132.168ZM219.416 132.168L220.989 131.278L204.455 102.056L202.883 102.946L201.31 103.835L217.844 133.057L219.416 132.168ZM202.883 102.946H201.076V140.819H202.883H204.69V102.946H202.883ZM202.883 140.819V139.012H196.154V140.819V142.626H202.883V140.819ZM196.154 140.819H197.961V89.4881H196.154H194.347V140.819H196.154ZM196.154 89.4881V91.295H202.05V89.4881V87.6813H196.154V89.4881ZM263.099 89.4881L264.67 88.5958L264.151 87.6813H263.099V89.4881ZM282.901 124.349L281.33 125.242L282.901 128.008L284.472 125.242L282.901 124.349ZM302.703 89.4881V87.6813H301.651L301.131 88.5958L302.703 89.4881ZM308.598 89.4881H310.405V87.6813H308.598V89.4881ZM308.598 140.819V142.626H310.405V140.819H308.598ZM301.869 140.819H300.063V142.626H301.869V140.819ZM301.869 102.946H303.676V96.083L300.297 102.056L301.869 102.946ZM285.336 132.168V133.974H286.39L286.909 133.057L285.336 132.168ZM280.466 132.168L278.893 133.057L279.412 133.974H280.466V132.168ZM263.932 102.946L265.505 102.056L262.125 96.083V102.946H263.932ZM263.932 140.819V142.626H265.739V140.819H263.932ZM257.203 140.819H255.397V142.626H257.203V140.819ZM257.203 89.4881V87.6813H255.397V89.4881H257.203ZM263.099 89.4881L261.528 90.3805L281.33 125.242L282.901 124.349L284.472 123.457L264.67 88.5958L263.099 89.4881ZM282.901 124.349L284.472 125.242L304.274 90.3805L302.703 89.4881L301.131 88.5958L281.33 123.457L282.901 124.349ZM302.703 89.4881V91.295H308.598V89.4881V87.6813H302.703V89.4881ZM308.598 89.4881H306.791V140.819H308.598H310.405V89.4881H308.598ZM308.598 140.819V139.012H301.869V140.819V142.626H308.598V140.819ZM301.869 140.819H303.676V102.946H301.869H300.063V140.819H301.869ZM301.869 102.946L300.297 102.056L283.763 131.278L285.336 132.168L286.909 133.057L303.442 103.835L301.869 102.946ZM285.336 132.168V130.361H280.466V132.168V133.974H285.336V132.168ZM280.466 132.168L282.038 131.278L265.505 102.056L263.932 102.946L262.36 103.835L278.893 133.057L280.466 132.168ZM263.932 102.946H262.125V140.819H263.932H265.739V102.946H263.932ZM263.932 140.819V139.012H257.203V140.819V142.626H263.932V140.819ZM257.203 140.819H259.01V89.4881H257.203H255.397V140.819H257.203ZM257.203 89.4881V91.295H263.099V89.4881V87.6813H257.203V89.4881ZM354.716 89.4881H356.523V87.6813H354.716V89.4881ZM354.716 95.4479V97.2547H356.523V95.4479H354.716ZM324.982 95.4479V93.6411H323.175V95.4479H324.982ZM324.982 111.597H323.175V113.404H324.982V111.597ZM352.473 111.597H354.28V109.79H352.473V111.597ZM352.473 117.557V119.363H354.28V117.557H352.473ZM324.982 117.557V115.75H323.175V117.557H324.982ZM324.982 134.859H323.175V136.666H324.982V134.859ZM355.293 134.859H357.1V133.052H355.293V134.859ZM355.293 140.819V142.626H357.1V140.819H355.293ZM318.253 140.819H316.446V142.626H318.253V140.819ZM318.253 89.4881V87.6813H316.446V89.4881H318.253ZM354.716 89.4881H352.909V95.4479H354.716H356.523V89.4881H354.716ZM354.716 95.4479V93.6411H324.982V95.4479V97.2547H354.716V95.4479ZM324.982 95.4479H323.175V111.597H324.982H326.788V95.4479H324.982ZM324.982 111.597V113.404H352.473V111.597V109.79H324.982V111.597ZM352.473 111.597H350.666V117.557H352.473H354.28V111.597H352.473ZM352.473 117.557V115.75H324.982V117.557V119.363H352.473V117.557ZM324.982 117.557H323.175V134.859H324.982H326.788V117.557H324.982ZM324.982 134.859V136.666H355.293V134.859V133.052H324.982V134.859ZM355.293 134.859H353.486V140.819H355.293H357.1V134.859H355.293ZM355.293 140.819V139.012H318.253V140.819V142.626H355.293V140.819ZM318.253 140.819H320.06V89.4881H318.253H316.446V140.819H318.253ZM318.253 89.4881V91.295H354.716V89.4881V87.6813H318.253V89.4881ZM396.427 140.819L394.905 141.791L395.437 142.626H396.427V140.819ZM384.764 122.555L386.287 121.583L385.711 120.681L384.644 120.752L384.764 122.555ZM369.384 122.683V120.876H367.577V122.683H369.384ZM369.384 140.819V142.626H371.191V140.819H369.384ZM362.655 140.819H360.849V142.626H362.655V140.819ZM362.655 89.4881V87.6813H360.849V89.4881H362.655ZM392.903 91.5388L392.169 93.1899L392.183 93.196L392.197 93.2019L392.903 91.5388ZM400.016 97.3063L398.497 98.2847L398.505 98.2965L400.016 97.3063ZM399.632 115.442L401.097 116.499V116.499L399.632 115.442ZM391.493 121.209L390.897 119.504L388.712 120.267L389.983 122.201L391.493 121.209ZM404.374 140.819V142.626H407.722L405.884 139.827L404.374 140.819ZM391.942 113.968L392.989 115.44L392.998 115.434L393.006 115.428L391.942 113.968ZM391.942 98.2676L390.877 99.7277L390.886 99.7337L390.894 99.7395L391.942 98.2676ZM369.384 95.512V93.7052H367.577V95.512H369.384ZM369.384 116.659H367.577V118.466H369.384V116.659ZM396.427 140.819L397.95 139.846L386.287 121.583L384.764 122.555L383.241 123.528L394.905 141.791L396.427 140.819ZM384.764 122.555L384.644 120.752C383.371 120.837 382.459 120.876 381.88 120.876V122.683V124.49C382.584 124.49 383.594 124.444 384.884 124.358L384.764 122.555ZM381.88 122.683V120.876H369.384V122.683V124.49H381.88V122.683ZM369.384 122.683H367.577V140.819H369.384H371.191V122.683H369.384ZM369.384 140.819V139.012H362.655V140.819V142.626H369.384V140.819ZM362.655 140.819H364.462V89.4881H362.655H360.849V140.819H362.655ZM362.655 89.4881V91.295H381.88V89.4881V87.6813H362.655V89.4881ZM381.88 89.4881V91.295C385.966 91.295 389.377 91.9492 392.169 93.1899L392.903 91.5388L393.637 89.8877C390.276 88.3942 386.34 87.6813 381.88 87.6813V89.4881ZM392.903 91.5388L392.197 93.2019C395.027 94.4038 397.095 96.1072 398.497 98.2847L400.016 97.3063L401.535 96.328C399.691 93.4642 397.016 91.3226 393.609 89.8757L392.903 91.5388ZM400.016 97.3063L398.505 98.2965C399.909 100.441 400.644 103.012 400.644 106.086H402.451H404.258C404.258 102.409 403.37 99.1278 401.527 96.3161L400.016 97.3063ZM402.451 106.086H400.644C400.644 109.389 399.796 112.126 398.166 114.385L399.632 115.442L401.097 116.499C403.227 113.546 404.258 110.045 404.258 106.086H402.451ZM399.632 115.442L398.166 114.385C396.538 116.643 394.154 118.366 390.897 119.504L391.493 121.209L392.089 122.915C395.924 121.575 398.966 119.453 401.097 116.499L399.632 115.442ZM391.493 121.209L389.983 122.201L402.864 141.811L404.374 140.819L405.884 139.827L393.003 120.217L391.493 121.209ZM404.374 140.819V139.012H396.427V140.819V142.626H404.374V140.819ZM381.368 116.659V118.466C386.106 118.466 390.051 117.532 392.989 115.44L391.942 113.968L390.894 112.496C388.791 113.993 385.687 114.853 381.368 114.853V116.659ZM391.942 113.968L393.006 115.428C396.043 113.215 397.529 110.017 397.529 106.086H395.723H393.916C393.916 108.99 392.882 111.047 390.877 112.508L391.942 113.968ZM395.723 106.086H397.529C397.529 102.155 396.041 98.9682 392.989 96.7956L391.942 98.2676L390.894 99.7395C392.883 101.156 393.916 103.181 393.916 106.086H395.723ZM391.942 98.2676L393.006 96.8074C390.065 94.6639 386.113 93.7052 381.368 93.7052V95.512V97.3188C385.68 97.3188 388.777 98.1972 390.877 99.7277L391.942 98.2676ZM381.368 95.512V93.7052H369.384V95.512V97.3188H381.368V95.512ZM369.384 95.512H367.577V116.659H369.384H371.191V95.512H369.384ZM369.384 116.659V118.466H381.368V116.659V114.853H369.384V116.659ZM438.715 90.2571L437.983 91.9092L437.993 91.9136L438.003 91.9179L438.715 90.2571ZM448.904 103.651V105.457H450.847L450.706 103.52L448.904 103.651ZM441.983 103.651L440.193 103.895L440.406 105.457H441.983V103.651ZM437.754 96.7296L436.67 98.175L436.676 98.1796L436.682 98.1842L437.754 96.7296ZM419.041 96.281L420.03 97.7933L420.037 97.7887L419.041 96.281ZM417.311 106.406L415.963 107.61L415.974 107.622L415.985 107.634L417.311 106.406ZM422.246 109.418L421.597 111.105L421.608 111.109L422.246 109.418ZM431.409 111.917L431.787 110.15L431.783 110.149L431.409 111.917ZM444.867 117.621L443.664 118.969L443.675 118.979L443.686 118.988L444.867 117.621ZM446.405 134.987L447.811 136.123L447.816 136.116L447.821 136.11L446.405 134.987ZM439.035 140.114L438.388 138.427L438.378 138.431L438.368 138.435L439.035 140.114ZM417.952 139.922L417.227 141.577L417.235 141.58L417.952 139.922ZM407.314 125.503V123.696H405.386L405.511 125.62L407.314 125.503ZM414.235 125.503L416.031 125.309L415.857 123.696H414.235V125.503ZM418.721 133.193L417.644 134.644L417.655 134.652L418.721 133.193ZM435.895 135.051L435.281 133.352L435.895 135.051ZM440.573 131.975L439.189 130.814L440.573 131.975ZM440.637 122.811L439.269 123.991L440.637 122.811ZM435.639 119.671L434.962 121.347L434.982 121.355L435.001 121.362L435.639 119.671ZM426.411 117.108L426.044 118.877L426.046 118.878L426.411 117.108ZM413.146 111.725L411.989 113.113L411.999 113.122L413.146 111.725ZM411.415 94.743L410.016 93.6004L410.013 93.6036L411.415 94.743ZM418.465 89.9367L419.094 91.6305V91.6305L418.465 89.9367ZM428.654 88.2706V90.0774C432.153 90.0774 435.253 90.6999 437.983 91.9092L438.715 90.2571L439.447 88.6051C436.196 87.1656 432.588 86.4637 428.654 86.4637V88.2706ZM438.715 90.2571L438.003 91.9179C440.737 93.0896 442.869 94.7226 444.456 96.8008L445.892 95.7042L447.328 94.6076C445.327 91.9864 442.674 89.988 439.427 88.5964L438.715 90.2571ZM445.892 95.7042L444.456 96.8008C446.037 98.8711 446.914 101.184 447.102 103.781L448.904 103.651L450.706 103.52C450.467 100.221 449.336 97.2368 447.328 94.6076L445.892 95.7042ZM448.904 103.651V101.844H441.983V103.651V105.457H448.904V103.651ZM441.983 103.651L443.773 103.406C443.318 100.07 441.626 97.3388 438.826 95.275L437.754 96.7296L436.682 98.1842C438.751 99.709 439.879 101.592 440.193 103.895L441.983 103.651ZM437.754 96.7296L438.838 95.2841C436.05 93.1933 432.495 92.2312 428.333 92.2312V94.0381V95.8449C431.948 95.8449 434.672 96.6771 436.67 98.175L437.754 96.7296ZM428.333 94.0381V92.2312C424.2 92.2312 420.71 93.0137 418.046 94.7732L419.041 96.281L420.037 97.7887C421.901 96.5577 424.606 95.8449 428.333 95.8449V94.0381ZM419.041 96.281L418.053 94.7687C415.398 96.5042 413.902 98.9375 413.902 101.984H415.709H417.516C417.516 100.332 418.241 98.9629 420.03 97.7932L419.041 96.281ZM415.709 101.984H413.902C413.902 104.136 414.571 106.051 415.963 107.61L417.311 106.406L418.659 105.203C417.915 104.369 417.516 103.336 417.516 101.984H415.709ZM417.311 106.406L415.985 107.634C417.313 109.067 419.238 110.197 421.597 111.104L422.246 109.418L422.894 107.732C420.81 106.93 419.446 106.052 418.637 105.179L417.311 106.406ZM422.246 109.418L421.608 111.109C423.994 112.009 427.149 112.865 431.036 113.685L431.409 111.917L431.783 110.149C427.98 109.347 425.025 108.536 422.883 107.728L422.246 109.418ZM431.409 111.917L431.032 113.684C437.109 114.983 441.232 116.799 443.664 118.969L444.867 117.621L446.07 116.273C442.948 113.487 438.1 111.5 431.787 110.15L431.409 111.917ZM444.867 117.621L443.686 118.988C446.089 121.063 447.29 123.716 447.29 127.105H449.096H450.903C450.903 122.718 449.284 119.048 446.048 116.253L444.867 117.621ZM449.096 127.105H447.29C447.29 129.704 446.521 131.932 444.989 133.865L446.405 134.987L447.821 136.11C449.878 133.514 450.903 130.488 450.903 127.105H449.096ZM446.405 134.987L444.999 133.852C443.437 135.787 441.261 137.325 438.388 138.427L439.035 140.114L439.682 141.801C443.047 140.51 445.785 138.631 447.811 136.123L446.405 134.987ZM439.035 140.114L438.368 138.435C435.488 139.579 432.258 140.166 428.654 140.166V141.972V143.779C432.654 143.779 436.345 143.127 439.702 141.793L439.035 140.114ZM428.654 141.972V140.166C424.89 140.166 421.572 139.519 418.669 138.263L417.952 139.922L417.235 141.58C420.655 143.059 424.472 143.779 428.654 143.779V141.972ZM417.952 139.922L418.677 138.267C415.813 137.011 413.57 135.272 411.894 133.062L410.454 134.154L409.015 135.246C411.098 137.992 413.853 140.098 417.227 141.577L417.952 139.922ZM410.454 134.154L411.894 133.062C410.241 130.884 409.309 128.344 409.117 125.386L407.314 125.503L405.511 125.62C405.746 129.241 406.908 132.469 409.015 135.246L410.454 134.154ZM407.314 125.503V127.31H414.235V125.503V123.696H407.314V125.503ZM414.235 125.503L412.439 125.697C412.837 129.38 414.608 132.391 417.644 134.644L418.721 133.193L419.798 131.742C417.536 130.064 416.317 127.949 416.031 125.309L414.235 125.503ZM418.721 133.193L417.655 134.652C420.731 136.898 424.594 137.948 429.102 137.948V136.141V134.334C425.152 134.334 422.094 133.419 419.786 131.734L418.721 133.193ZM429.102 136.141V137.948C431.796 137.948 434.273 137.56 436.51 136.751L435.895 135.051L435.281 133.352C433.502 133.996 431.45 134.334 429.102 134.334V136.141ZM435.895 135.051L436.51 136.751C438.747 135.941 440.599 134.756 441.958 133.137L440.573 131.975L439.189 130.814C438.326 131.843 437.059 132.709 435.281 133.352L435.895 135.051ZM440.573 131.975L441.958 133.137C443.33 131.5 444.046 129.597 444.046 127.49H442.24H440.433C440.433 128.714 440.038 129.802 439.189 130.814L440.573 131.975ZM442.24 127.49H444.046C444.046 125.245 443.399 123.247 442.006 121.632L440.637 122.811L439.269 123.991C440.012 124.854 440.433 125.974 440.433 127.49H442.24ZM440.637 122.811L442.006 121.632C440.669 120.081 438.698 118.895 436.277 117.981L435.639 119.671L435.001 121.362C437.108 122.157 438.47 123.065 439.269 123.991L440.637 122.811ZM435.639 119.671L436.316 117.996C433.949 117.04 430.752 116.16 426.776 115.339L426.411 117.108L426.046 118.878C429.93 119.68 432.886 120.508 434.962 121.347L435.639 119.671ZM426.411 117.108L426.777 115.339C420.918 114.125 416.827 112.409 414.292 110.329L413.146 111.725L411.999 113.122C415.189 115.74 419.941 117.613 426.044 118.877L426.411 117.108ZM413.146 111.725L414.302 110.337C411.951 108.377 410.723 105.67 410.723 101.984H408.916H407.109C407.109 106.587 408.701 110.373 411.989 113.113L413.146 111.725ZM408.916 101.984H410.723C410.723 99.5996 411.427 97.5937 412.818 95.8824L411.415 94.743L410.013 93.6036C408.071 95.9936 407.109 98.8153 407.109 101.984H408.916ZM411.415 94.743L412.815 95.8856C414.287 94.0829 416.35 92.6497 419.094 91.6305L418.465 89.9367L417.835 88.243C414.598 89.4453 411.962 91.2163 410.016 93.6004L411.415 94.743ZM418.465 89.9367L419.094 91.6305C421.848 90.6073 425.026 90.0774 428.654 90.0774V88.2706V86.4637C424.677 86.4637 421.062 87.0446 417.835 88.243L418.465 89.9367ZM463.071 140.819V142.626H464.878V140.819H463.071ZM456.342 140.819H454.536V142.626H456.342V140.819ZM456.342 89.4881V87.6813H454.536V89.4881H456.342ZM463.071 89.4881H464.878V87.6813H463.071V89.4881ZM463.071 140.819V139.012H456.342V140.819V142.626H463.071V140.819ZM456.342 140.819H458.149V89.4881H456.342H454.536V140.819H456.342ZM456.342 89.4881V91.295H463.071V89.4881V87.6813H456.342V89.4881ZM463.071 89.4881H461.264V140.819H463.071H464.878V89.4881H463.071ZM483.792 138.512L482.906 140.087L482.913 140.091L483.792 138.512ZM474.115 128.899L472.548 129.798L474.115 128.899ZM474.051 101.344L472.484 100.445L472.48 100.452L472.477 100.458L474.051 101.344ZM483.728 91.7311L482.849 90.1524L482.842 90.1563L483.728 91.7311ZM511.476 91.7311L510.59 93.3059L510.597 93.3097L511.476 91.7311ZM521.217 101.344L522.784 100.445L521.217 101.344ZM521.217 128.899L519.649 128.001L519.645 128.007L519.642 128.014L521.217 128.899ZM511.54 138.512L510.661 136.933L510.654 136.937L511.54 138.512ZM508.08 133.193L508.974 134.763L508.981 134.759L508.08 133.193ZM515.385 125.823L516.961 126.708L516.966 126.699L515.385 125.823ZM515.385 104.484L513.805 105.359L513.81 105.368L515.385 104.484ZM508.08 97.1141L507.169 98.6748L507.182 98.6822L507.195 98.6894L508.08 97.1141ZM487.188 97.1141L488.083 98.6842L488.091 98.6795L488.099 98.6748L487.188 97.1141ZM479.947 104.484L481.522 105.368L481.528 105.359L479.947 104.484ZM479.947 125.823L478.367 126.699L478.372 126.708L479.947 125.823ZM487.253 133.193L486.352 134.759L486.36 134.764L486.368 134.768L487.253 133.193ZM497.698 141.972V140.166C492.853 140.166 488.525 139.079 484.671 136.933L483.792 138.512L482.913 140.091C487.348 142.559 492.289 143.779 497.698 143.779V141.972ZM483.792 138.512L484.678 136.937C480.862 134.791 477.872 131.821 475.683 128.001L474.115 128.899L472.548 129.798C475.059 134.181 478.519 137.619 482.906 140.087L483.792 138.512ZM474.115 128.899L475.683 128.001C473.502 124.194 472.398 119.915 472.398 115.121H470.591H468.784C468.784 120.496 470.03 125.402 472.548 129.798L474.115 128.899ZM470.591 115.121H472.398C472.398 110.322 473.483 106.039 475.626 102.229L474.051 101.344L472.477 100.458C470.005 104.851 468.784 109.753 468.784 115.121H470.591ZM474.051 101.344L475.619 102.242C477.808 98.422 480.798 95.4522 484.614 93.3059L483.728 91.7311L482.842 90.1563C478.455 92.6239 474.995 96.0624 472.484 100.445L474.051 101.344ZM483.728 91.7311L484.607 93.3097C488.461 91.1643 492.789 90.0774 497.634 90.0774V88.2706V86.4637C492.225 86.4637 487.283 87.6838 482.849 90.1524L483.728 91.7311ZM497.634 88.2706V90.0774C502.479 90.0774 506.783 91.1644 510.59 93.3059L511.476 91.7311L512.362 90.1563C507.966 87.6837 503.043 86.4637 497.634 86.4637V88.2706ZM511.476 91.7311L510.597 93.3097C514.455 95.4574 517.463 98.4267 519.649 102.242L521.217 101.344L522.784 100.445C520.271 96.0577 516.785 92.6187 512.355 90.1524L511.476 91.7311ZM521.217 101.344L519.649 102.242C521.83 106.049 522.935 110.328 522.935 115.121H524.741H526.548C526.548 109.747 525.303 104.841 522.784 100.445L521.217 101.344ZM524.741 115.121H522.935C522.935 119.915 521.83 124.194 519.649 128.001L521.217 128.899L522.784 129.798C525.303 125.402 526.548 120.496 526.548 115.121H524.741ZM521.217 128.899L519.642 128.014C517.5 131.822 514.516 134.787 510.661 136.933L511.54 138.512L512.419 140.091C516.852 137.623 520.32 134.18 522.792 129.785L521.217 128.899ZM511.54 138.512L510.654 136.937C506.847 139.079 502.543 140.166 497.698 140.166V141.972V143.779C503.107 143.779 508.03 142.559 512.426 140.087L511.54 138.512ZM497.698 135.82V137.627C501.829 137.627 505.602 136.683 508.974 134.763L508.08 133.193L507.186 131.623C504.405 133.206 501.257 134.014 497.698 134.014V135.82ZM508.08 133.193L508.981 134.759C512.38 132.804 515.049 130.112 516.961 126.708L515.385 125.823L513.81 124.939C512.219 127.772 510.017 129.994 507.179 131.627L508.08 133.193ZM515.385 125.823L516.966 126.699C518.88 123.244 519.819 119.37 519.819 115.121H518.013H516.206C516.206 118.819 515.393 122.08 513.805 124.948L515.385 125.823ZM518.013 115.121H519.819C519.819 110.874 518.88 107.017 516.961 103.599L515.385 104.484L513.81 105.368C515.393 108.188 516.206 111.423 516.206 115.121H518.013ZM515.385 104.484L516.966 103.608C515.053 100.157 512.379 97.4563 508.964 95.5387L508.08 97.1141L507.195 98.6894C510.018 100.275 512.214 102.488 513.805 105.359L515.385 104.484ZM508.08 97.1141L508.99 95.5534C505.613 93.5833 501.811 92.6157 497.634 92.6157V94.4226V96.2294C501.232 96.2294 504.395 97.0562 507.169 98.6748L508.08 97.1141ZM497.634 94.4226V92.6157C493.457 92.6157 489.655 93.5833 486.278 95.5534L487.188 97.1141L488.099 98.6748C490.874 97.0562 494.036 96.2294 497.634 96.2294V94.4226ZM487.188 97.1141L486.294 95.544C482.924 97.4633 480.275 100.163 478.367 103.608L479.947 104.484L481.528 105.359C483.122 102.482 485.301 100.268 488.083 98.6842L487.188 97.1141ZM479.947 104.484L478.372 103.599C476.452 107.017 475.513 110.874 475.513 115.121H477.32H479.126C479.126 111.423 479.939 108.188 481.522 105.368L479.947 104.484ZM477.32 115.121H475.513C475.513 119.37 476.452 123.244 478.367 126.699L479.947 125.823L481.528 124.948C479.939 122.08 479.126 118.819 479.126 115.121H477.32ZM479.947 125.823L478.372 126.708C480.284 130.112 482.953 132.804 486.352 134.759L487.253 133.193L488.154 131.627C485.315 129.994 483.114 127.772 481.522 124.939L479.947 125.823ZM487.253 133.193L486.368 134.768C489.777 136.683 493.567 137.627 497.698 137.627V135.82V134.014C494.139 134.014 490.966 133.206 488.137 131.618L487.253 133.193ZM538.599 89.4881L540.025 88.3793L539.483 87.6813H538.599V89.4881ZM569.679 129.476L568.253 130.585L571.486 134.745V129.476H569.679ZM569.679 89.1677V87.3609H567.872V89.1677H569.679ZM576.472 89.1677H578.279V87.3609H576.472V89.1677ZM576.472 140.499V142.305H578.279V140.499H576.472ZM570.128 140.499L568.701 141.607L569.244 142.305H570.128V140.499ZM539.047 100.51L540.474 99.4017L537.241 95.2416V100.51H539.047ZM539.047 140.819V142.626H540.854V140.819H539.047ZM532.319 140.819H530.512V142.626H532.319V140.819ZM532.319 89.4881V87.6813H530.512V89.4881H532.319ZM538.599 89.4881L537.172 90.597L568.253 130.585L569.679 129.476L571.106 128.367L540.025 88.3793L538.599 89.4881ZM569.679 129.476H571.486V89.1677H569.679H567.872V129.476H569.679ZM569.679 89.1677V90.9746H576.472V89.1677V87.3609H569.679V89.1677ZM576.472 89.1677H574.665V140.499H576.472H578.279V89.1677H576.472ZM576.472 140.499V138.692H570.128V140.499V142.305H576.472V140.499ZM570.128 140.499L571.554 139.39L540.474 99.4017L539.047 100.51L537.621 101.619L568.701 141.607L570.128 140.499ZM539.047 100.51H537.241V140.819H539.047H540.854V100.51H539.047ZM539.047 140.819V139.012H532.319V140.819V142.626H539.047V140.819ZM532.319 140.819H534.126V89.4881H532.319H530.512V140.819H532.319ZM532.319 89.4881V91.295H538.599V89.4881V87.6813H532.319V89.4881Z" fill="white" mask="url(#path-3-outside-2_1911_13297)"/>
</svg>
