<svg width="132" height="35" viewBox="0 0 132 35" fill="none" xmlns="http://www.w3.org/2000/svg">
<path d="M7.82905 17.1628L15.8563 8.59475L15.9802 8.46218V7.71585H10.9161L10.7773 7.86806L4.46455 14.8256V7.71094H0V27.2039H4.46455V19.6768L11.5057 27.0615L11.6445 27.2039H16.6739V26.3446L16.5451 26.2121L7.8241 17.1628H7.82905Z" fill="#2F2F37"/>
<path d="M30.7452 7.74219H30.2794V18.8389C30.2794 21.7997 28.778 23.4986 26.1667 23.4986C23.3819 23.4986 21.7864 21.7997 21.7864 18.8389V7.74219H17.3516V18.8389C17.3516 24.1614 20.8003 27.6034 26.1419 27.6034C31.4835 27.6034 34.7192 24.2449 34.7192 18.8389V7.74219H30.7452ZM24.6356 23.7735C25.1063 23.8963 25.6216 23.9601 26.1667 23.9601C27.8068 23.9601 29.0505 23.3464 29.8235 22.2465C29.0505 23.3513 27.8068 23.9601 26.1667 23.9601C25.6216 23.9601 25.1063 23.8963 24.6356 23.7735C24.1648 23.6508 23.7337 23.4642 23.3522 23.2187C23.7337 23.4642 24.1648 23.6459 24.6356 23.7735ZM17.8173 18.8389C17.8173 19.5362 17.8768 20.1941 17.9908 20.803C17.8768 20.1941 17.8173 19.5411 17.8173 18.8389ZM34.2534 18.8389C34.2534 24.3333 30.8542 27.1418 26.1419 27.1418C24.4572 27.1418 22.8616 26.7589 21.5287 25.988C22.8616 26.7589 24.4522 27.1369 26.1419 27.1369C30.8542 27.1369 34.2534 24.3235 34.2534 18.834V18.8389Z" fill="#2F2F37"/>
<path d="M45.8471 14.9352C43.1366 14.6161 42.0763 14.0907 42.0763 13.0596C42.0763 11.8026 43.3547 11.0514 45.4953 11.0514C47.398 11.0514 48.9985 12.0039 49.5386 12.8976L49.7616 13.2658L50.1481 13.0694L52.9577 11.6357L53.364 11.4294L53.1608 11.0219C51.8824 8.43922 49.1918 7.07422 45.3813 7.07422C41.5411 7.10368 37.6662 8.93022 37.6662 12.9467C37.6662 17.4983 41.5956 18.5736 45.4408 19.0302C47.1305 19.2119 49.3702 19.6391 49.3702 21.3036C49.3702 23.4591 46.4268 23.626 45.525 23.626C43.1664 23.626 41.3578 22.6342 40.6839 20.9697L40.4906 20.4983L40.0348 20.7291L37.0914 22.2414L36.7148 22.4329L36.8734 22.8208C38.2113 26.086 41.0258 27.6719 45.4705 27.6719C50.6139 27.6719 53.805 25.2267 53.805 21.2938C53.805 16.5457 49.9796 15.4262 45.8471 14.9205V14.9352ZM39.5194 9.56362C39.237 9.84349 38.9892 10.1528 38.7811 10.4965C38.9843 10.1528 39.237 9.84349 39.5194 9.56362ZM38.3005 11.6209C38.1915 12.0285 38.132 12.4704 38.132 12.9516C38.132 12.4753 38.1915 12.0334 38.3005 11.6209ZM46.3971 18.6963C46.6845 18.7454 46.962 18.7995 47.2246 18.8682C46.962 18.8044 46.6845 18.7454 46.3971 18.6963ZM42.1605 26.847C41.7591 26.7439 41.3726 26.6163 41.0109 26.4641C39.7325 25.9289 38.6721 25.0794 37.8991 23.8323C37.6761 23.4738 37.4779 23.0859 37.3045 22.6637L40.2478 21.1514C41.0753 23.194 43.2457 24.0974 45.52 24.0974C47.7944 24.0974 49.831 23.3265 49.831 21.3134C49.831 23.3314 47.7399 24.0974 45.52 24.0974C43.3002 24.0974 41.0753 23.194 40.2478 21.1514L37.3045 22.6637C37.4779 23.0859 37.6761 23.4787 37.8991 23.8323C38.6721 25.0794 39.7275 25.9289 41.0109 26.4641C41.3776 26.6163 41.7591 26.7439 42.1605 26.847ZM48.4584 26.8814C48.9242 26.7636 49.3702 26.6212 49.7913 26.4444C49.3702 26.6212 48.9242 26.7685 48.4584 26.8814ZM53.3392 21.3036C53.3392 19.9189 52.9824 18.8682 52.3779 18.0629C52.9874 18.8682 53.3392 19.9189 53.3392 21.3036Z" fill="#2F2F37"/>
<path d="M56.7656 7.71094H56.2998V8.17248V26.7423V27.2039H56.7656H60.2738H60.7396V26.7423V8.17248V7.71094H60.2738H56.7656Z" fill="#2F2F37"/>
<path d="M64.0195 7.71094H63.5537V8.17248V11.3542V11.8158H64.0195H69.4998V26.7423V27.2039H69.9656H73.4986H73.9644V26.7423V11.8158H79.4398H79.9055V11.3542V8.17248V7.71094H79.4398H64.0195Z" fill="#2F2F37"/>
<path d="M98.076 7.74219H97.8382L97.6995 7.93368L92.2142 15.4068L86.7289 7.93368L86.5901 7.74219H81.8184V27.2351H86.2829V14.6801L91.4114 21.6328L91.5502 21.8193H92.7146L92.8534 21.6328L98.1206 14.6752V27.2302H102.585V7.74219H98.076Z" fill="#2F2F37"/>
<path d="M113.836 15.1891C111.126 14.87 110.066 14.3446 110.066 13.3135C110.066 12.0565 111.344 11.3053 113.485 11.3053C115.387 11.3053 116.988 12.2578 117.528 13.1515L117.751 13.5197L118.137 13.3233L120.947 11.8896L121.353 11.6834L121.15 11.2758C119.872 8.69312 117.181 7.32812 113.371 7.32812C109.53 7.35759 105.655 9.18413 105.655 13.2006C105.655 17.7522 109.585 18.8275 113.43 19.2841C115.12 19.4658 117.359 19.893 117.359 21.5575C117.359 23.713 114.416 23.8799 113.514 23.8799C111.156 23.8799 109.347 22.8881 108.673 21.2236L108.48 20.7522L108.024 20.983L105.081 22.4953L104.704 22.6868L104.863 23.0747C106.201 26.3399 109.015 27.9258 113.46 27.9258C118.603 27.9258 121.794 25.4806 121.794 21.5477C121.794 16.7996 117.969 15.6801 113.836 15.1744V15.1891ZM121.328 21.5575C121.328 20.1729 120.972 19.1221 120.367 18.3168C120.977 19.1221 121.328 20.1729 121.328 21.5575ZM120.744 11.4771C120.298 10.5835 119.698 9.88627 118.995 9.35107C119.698 9.88627 120.298 10.5786 120.744 11.4771ZM107.509 9.81753C107.226 10.0974 106.978 10.4067 106.77 10.7504C106.974 10.4067 107.226 10.0974 107.509 9.81753ZM106.295 11.8748C106.186 12.2824 106.126 12.7243 106.126 13.2055C106.126 12.7292 106.186 12.2873 106.295 11.8748ZM114.386 18.9502C114.674 18.9993 114.951 19.0534 115.214 19.1221C114.951 19.0583 114.674 18.9993 114.386 18.9502ZM110.15 27.101C109.748 26.9978 109.362 26.8702 109 26.718C107.722 26.1828 106.666 25.3333 105.888 24.0862C105.665 23.7277 105.467 23.3398 105.294 22.9176L108.237 21.4053C109.065 23.4479 111.235 24.3513 113.509 24.3513C115.784 24.3513 117.82 23.5804 117.82 21.5673C117.82 23.5853 115.729 24.3513 113.509 24.3513C111.289 24.3513 109.065 23.4479 108.237 21.4053L105.294 22.9176C105.467 23.3398 105.665 23.7326 105.888 24.0862C106.661 25.3333 107.717 26.1828 109 26.718C109.367 26.8702 109.748 26.9978 110.15 27.101ZM116.453 27.1353C116.918 27.0175 117.364 26.8751 117.786 26.6983C117.364 26.8751 116.918 27.0224 116.453 27.1353Z" fill="#2F2F37"/>
</svg>
