<svg width="129" height="24" viewBox="0 0 129 24" fill="none" xmlns="http://www.w3.org/2000/svg">
<g id="Group">
<path id="Vector" d="M8.30436 11.7622L16.8239 2.58348L16.954 2.44V1.64185H11.5822L11.4342 1.80327L4.7351 9.25566V1.64185H0V22.5193H4.7351V14.4571L12.2099 22.3624L12.3579 22.5148H17.6938V21.5956L17.5593 21.4521L8.30436 11.7577V11.7622Z" fill="white"/>
<path id="Vector_2" d="M32.6308 1.66919H32.1376V13.5563C32.1376 16.7264 30.5458 18.5469 27.7702 18.5469C24.8152 18.5469 23.1203 16.7264 23.1203 13.5563V1.66919H18.4121V13.5563C18.4121 19.2599 22.0755 22.9413 27.7433 22.9413C33.4111 22.9413 36.8458 19.3451 36.8458 13.5563V1.66919H32.6308Z" fill="white"/>
<path id="Vector_3" d="M48.655 9.37257C45.7762 9.03179 44.6553 8.46681 44.6553 7.36375C44.6553 6.01855 46.0094 5.21591 48.2828 5.21591C50.3006 5.21591 52 6.23378 52.5785 7.19335L52.8161 7.58794L53.2286 7.3772L56.2105 5.84367L56.641 5.62396L56.4257 5.18901C55.0671 2.42687 52.2153 0.965088 48.1707 0.965088C44.0948 0.996476 39.9829 2.9515 39.9829 7.25613C39.9829 12.1302 44.153 13.2826 48.2335 13.7714C50.0271 13.9642 52.4036 14.426 52.4036 16.2062C52.4036 18.5154 49.2782 18.6948 48.3232 18.6948C45.8211 18.6948 43.9019 17.6321 43.1845 15.8519L42.9827 15.3497L42.5029 15.6008L39.3776 17.2196L38.9785 17.4258L39.1489 17.8428C40.5703 21.3403 43.5522 23.0353 48.2738 23.0353C53.7309 23.0353 57.1208 20.4166 57.1208 16.2062C57.1208 11.1213 53.0627 9.91962 48.6774 9.38154L48.655 9.37257ZM53.8654 11.2828C54.3496 11.5518 54.7891 11.8657 55.1657 12.2468C54.7936 11.8657 54.3496 11.5518 53.8654 11.2828ZM45.4803 9.15734C45.2785 9.06318 45.0947 8.96005 44.9333 8.84346C45.0947 8.96005 45.2785 9.06766 45.4803 9.15734ZM41.9335 3.6241C41.633 3.92452 41.3685 4.25634 41.1532 4.61954C41.373 4.25185 41.633 3.92004 41.9335 3.6241ZM40.6421 5.82574C40.5255 6.26517 40.4627 6.73599 40.4627 7.24716C40.4627 6.73599 40.5255 6.26068 40.6421 5.82574ZM49.2334 13.4037C49.5383 13.4575 49.8343 13.5158 50.1123 13.5875C49.8343 13.5158 49.5428 13.4575 49.2334 13.4037ZM43.5118 21.7215C42.1532 21.1475 41.0322 20.2373 40.2116 18.9011C39.9784 18.5199 39.7677 18.1029 39.5794 17.6455L42.7047 16.0268C43.5836 18.215 45.8883 19.1791 48.3007 19.1791C50.7131 19.1791 52.8744 18.354 52.8744 16.1972C52.8744 18.3585 50.6593 19.1791 48.3007 19.1791C45.9422 19.1791 43.5836 18.215 42.7047 16.0268L39.5794 17.6455C39.7632 18.0984 39.974 18.5154 40.2116 18.9011C41.0322 20.2373 42.1532 21.1475 43.5118 21.7215ZM51.4216 22.1699C51.9148 22.0443 52.3901 21.8919 52.8385 21.6991C52.3946 21.8874 51.9193 22.0443 51.4216 22.1699Z" fill="white"/>
<path id="Vector_4" d="M60.2432 1.64185H59.75V2.13508V22.0216V22.5148H60.2432H63.965H64.4582V22.0216V2.13508V1.64185H63.965H60.2432Z" fill="white"/>
<path id="Vector_5" d="M67.9425 1.64185H67.4492V2.13508V5.54292V6.03616H67.9425H73.7582V22.0216V22.5148H74.2514H78.0001H78.4933V22.0216V6.03616H84.309H84.8023V5.54292V2.13508V1.64185H84.309H67.9425Z" fill="white"/>
<path id="Vector_6" d="M104.083 1.66919H103.832L103.684 1.87097L97.8593 9.8749L92.0346 1.87097L91.8867 1.66919H86.8242V22.5467H91.5593V9.10365L97.0029 16.5516L97.1509 16.7533H98.3884L98.5364 16.556L104.128 9.10365V22.5511H108.863V1.66919H104.079H104.083Z" fill="white"/>
<path id="Vector_7" d="M120.534 9.37257C117.655 9.03179 116.534 8.46681 116.534 7.36375C116.534 6.01855 117.888 5.21591 120.162 5.21591C122.18 5.21591 123.879 6.23378 124.457 7.19335L124.695 7.58794L125.108 7.3772L128.089 5.84367L128.52 5.62396L128.305 5.18901C126.946 2.42687 124.094 0.965088 120.05 0.965088C115.974 0.996476 111.862 2.9515 111.862 7.25613C111.862 12.1302 116.032 13.2826 120.112 13.7714C121.906 13.9642 124.282 14.426 124.282 16.2062C124.282 18.5154 121.157 18.6948 120.202 18.6948C117.7 18.6948 115.781 17.6321 115.063 15.8519L114.862 15.3497L114.382 15.6008L111.256 17.2196L110.857 17.4258L111.028 17.8428C112.449 21.3403 115.431 23.0353 120.153 23.0353C125.61 23.0353 129 20.4166 129 16.2062C129 11.1213 124.942 9.91962 120.556 9.38154L120.534 9.37257ZM125.744 11.2783C126.229 11.5473 126.668 11.8612 127.045 12.2423C126.672 11.8612 126.229 11.5473 125.744 11.2783ZM117.359 9.15286C117.157 9.05869 116.974 8.95556 116.812 8.83898C116.974 8.95556 117.157 9.06318 117.359 9.15286ZM127.856 5.39976C127.385 4.44018 126.749 3.69584 126 3.12189C126.749 3.69135 127.385 4.44018 127.856 5.39976ZM113.812 3.61961C113.512 3.92004 113.247 4.25185 113.032 4.61506C113.252 4.24737 113.512 3.91556 113.812 3.61961ZM112.521 5.82125C112.404 6.26068 112.342 6.7315 112.342 7.24268C112.342 6.7315 112.404 6.2562 112.521 5.82125ZM121.112 13.3992C121.417 13.453 121.713 13.5113 121.991 13.583C121.713 13.5113 121.422 13.453 121.112 13.3992ZM115.391 21.717C114.032 21.1431 112.911 20.2328 112.091 18.8966C111.857 18.5154 111.647 18.0984 111.458 17.6411L114.584 16.0223C115.462 18.2105 117.767 19.1746 120.18 19.1746C122.592 19.1746 124.753 18.3495 124.753 16.1927C124.753 18.354 122.538 19.1746 120.18 19.1746C117.821 19.1746 115.462 18.2105 114.584 16.0223L111.458 17.6411C111.642 18.0939 111.853 18.511 112.091 18.8966C112.911 20.2328 114.032 21.1431 115.391 21.717ZM123.301 22.1654C123.794 22.0399 124.269 21.8874 124.717 21.6946C124.274 21.8829 123.798 22.0399 123.301 22.1654Z" fill="white"/>
</g>
</svg>
