<svg xmlns="http://www.w3.org/2000/svg" width="122" height="21" viewBox="0 0 122 21" fill="none">
  <path d="M7.82905 10.0891L15.8563 1.52102L15.9802 1.38845V0.642117H10.9161L10.7773 0.794329L4.46455 7.75189V0.637207H0V20.1302H4.46455V12.603L11.5057 19.9878L11.6445 20.1302H16.6739V19.2709L16.5451 19.1383L7.8241 10.0891H7.82905Z" fill="#2F2F37"/>
  <path d="M30.7452 0.668457H30.2794V11.7652C30.2794 14.726 28.778 16.4248 26.1667 16.4248C23.3819 16.4248 21.7864 14.726 21.7864 11.7652V0.668457H17.3516V11.7652C17.3516 17.0877 20.8003 20.5297 26.1419 20.5297C31.4835 20.5297 34.7192 17.1712 34.7192 11.7652V0.668457H30.7452ZM24.6356 16.6998C25.1063 16.8226 25.6216 16.8864 26.1667 16.8864C27.8068 16.8864 29.0505 16.2726 29.8235 15.1728C29.0505 16.2775 27.8068 16.8864 26.1667 16.8864C25.6216 16.8864 25.1063 16.8226 24.6356 16.6998C24.1648 16.5771 23.7337 16.3905 23.3522 16.145C23.7337 16.3905 24.1648 16.5721 24.6356 16.6998ZM17.8173 11.7652C17.8173 12.4624 17.8768 13.1204 17.9908 13.7292C17.8768 13.1204 17.8173 12.4673 17.8173 11.7652ZM34.2534 11.7652C34.2534 17.2596 30.8542 20.0681 26.1419 20.0681C24.4572 20.0681 22.8616 19.6851 21.5287 18.9143C22.8616 19.6851 24.4522 20.0632 26.1419 20.0632C30.8542 20.0632 34.2534 17.2497 34.2534 11.7603V11.7652Z" fill="#2F2F37"/>
  <path d="M45.8471 7.86101C43.1366 7.54186 42.0763 7.01648 42.0763 5.98537C42.0763 4.72839 43.3547 3.97715 45.4953 3.97715C47.398 3.97715 48.9985 4.9297 49.5386 5.82334L49.7616 6.19159L50.1481 5.99519L52.9577 4.56145L53.364 4.35523L53.1608 3.94769C51.8824 1.365 49.1918 0 45.3813 0C41.5411 0.0294604 37.6662 1.856 37.6662 5.87244C37.6662 10.4241 41.5956 11.4994 45.4408 11.956C47.1305 12.1377 49.3702 12.5649 49.3702 14.2294C49.3702 16.3849 46.4268 16.5518 45.525 16.5518C43.1664 16.5518 41.3578 15.56 40.6839 13.8955L40.4906 13.4241L40.0348 13.6549L37.0914 15.1672L36.7148 15.3587L36.8734 15.7466C38.2113 19.0118 41.0258 20.5977 45.4705 20.5977C50.6139 20.5977 53.805 18.1525 53.805 14.2195C53.805 9.47151 49.9796 8.35202 45.8471 7.84628V7.86101ZM39.5194 2.4894C39.237 2.76928 38.9892 3.07861 38.7811 3.42231C38.9843 3.07861 39.237 2.76928 39.5194 2.4894ZM38.3005 4.54672C38.1915 4.95425 38.132 5.39616 38.132 5.87735C38.132 5.40107 38.1915 4.95916 38.3005 4.54672ZM46.3971 11.6221C46.6845 11.6712 46.962 11.7252 47.2246 11.794C46.962 11.7301 46.6845 11.6712 46.3971 11.6221ZM42.1605 19.7728C41.7591 19.6697 41.3726 19.5421 41.0109 19.3898C39.7325 18.8546 38.6721 18.0052 37.8991 16.758C37.6761 16.3996 37.4779 16.0117 37.3045 15.5895L40.2478 14.0772C41.0753 16.1197 43.2457 17.0232 45.52 17.0232C47.7944 17.0232 49.831 16.2523 49.831 14.2392C49.831 16.2572 47.7399 17.0232 45.52 17.0232C43.3002 17.0232 41.0753 16.1197 40.2478 14.0772L37.3045 15.5895C37.4779 16.0117 37.6761 16.4045 37.8991 16.758C38.6721 18.0052 39.7275 18.8546 41.0109 19.3898C41.3776 19.5421 41.7591 19.6697 42.1605 19.7728ZM48.4584 19.8072C48.9242 19.6894 49.3702 19.547 49.7913 19.3702C49.3702 19.547 48.9242 19.6943 48.4584 19.8072ZM53.3392 14.2294C53.3392 12.8447 52.9824 11.794 52.3779 10.9887C52.9874 11.794 53.3392 12.8447 53.3392 14.2294Z" fill="#2F2F37"/>
  <path d="M56.7656 0.637207H56.2998V1.09875V19.6686V20.1302H56.7656H60.2738H60.7396V19.6686V1.09875V0.637207H60.2738H56.7656Z" fill="#2F2F37"/>
  <path d="M64.0195 0.637207H63.5537V1.09875V4.28047V4.74202H64.0195H69.4998V19.6686V20.1302H69.9656H73.4986H73.9644V19.6686V4.74202H79.4398H79.9055V4.28047V1.09875V0.637207H79.4398H64.0195Z" fill="#2F2F37"/>
  <path d="M98.076 0.668457H97.8382L97.6995 0.859949L92.2142 8.33306L86.7289 0.859949L86.5901 0.668457H81.8184V20.1614H86.2829V7.60638L91.4114 14.559L91.5502 14.7456H92.7146L92.8534 14.559L98.1206 7.60147V20.1565H102.585V0.668457H98.076Z" fill="#2F2F37"/>
  <path d="M113.836 8.11589C111.126 7.79674 110.066 7.27136 110.066 6.24025C110.066 4.98327 111.344 4.23203 113.485 4.23203C115.387 4.23203 116.988 5.18459 117.528 6.07822L117.751 6.44647L118.137 6.25007L120.947 4.81633L121.353 4.61011L121.15 4.20257C119.872 1.61988 117.181 0.254883 113.371 0.254883C109.53 0.284343 105.655 2.11089 105.655 6.12732C105.655 10.6789 109.585 11.7543 113.43 12.2109C115.12 12.3926 117.359 12.8197 117.359 14.4842C117.359 16.6398 114.416 16.8067 113.514 16.8067C111.156 16.8067 109.347 15.8149 108.673 14.1504L108.48 13.679L108.024 13.9098L105.081 15.4221L104.704 15.6136L104.863 16.0015C106.201 19.2666 109.015 20.8526 113.46 20.8526C118.603 20.8526 121.794 18.4074 121.794 14.4744C121.794 9.7264 117.969 8.6069 113.836 8.10116V8.11589ZM121.328 14.4842C121.328 13.0996 120.972 12.0489 120.367 11.2436C120.977 12.0489 121.328 13.0996 121.328 14.4842ZM120.744 4.40389C120.298 3.51026 119.698 2.81303 118.995 2.27783C119.698 2.81303 120.298 3.50535 120.744 4.40389ZM107.509 2.74429C107.226 3.02416 106.978 3.33349 106.77 3.6772C106.974 3.33349 107.226 3.02416 107.509 2.74429ZM106.295 4.8016C106.186 5.20914 106.126 5.65104 106.126 6.13223C106.126 5.65595 106.186 5.21405 106.295 4.8016ZM114.386 11.877C114.674 11.9261 114.951 11.9801 115.214 12.0489C114.951 11.985 114.674 11.9261 114.386 11.877ZM110.15 20.0277C109.748 19.9246 109.362 19.7969 109 19.6447C107.722 19.1095 106.666 18.2601 105.888 17.0129C105.665 16.6545 105.467 16.2666 105.294 15.8443L108.237 14.332C109.065 16.3746 111.235 17.2781 113.509 17.2781C115.784 17.2781 117.82 16.5072 117.82 14.4941C117.82 16.5121 115.729 17.2781 113.509 17.2781C111.289 17.2781 109.065 16.3746 108.237 14.332L105.294 15.8443C105.467 16.2666 105.665 16.6594 105.888 17.0129C106.661 18.2601 107.717 19.1095 109 19.6447C109.367 19.7969 109.748 19.9246 110.15 20.0277ZM116.453 20.0621C116.918 19.9442 117.364 19.8018 117.786 19.6251C117.364 19.8018 116.918 19.9491 116.453 20.0621Z" fill="#2F2F37"/>
</svg>