<svg width="142" height="26" viewBox="0 0 142 26" fill="none" xmlns="http://www.w3.org/2000/svg">
<g clip-path="url(#clip0_1_8613)">
<path d="M21.9979 15.9532V11.6591C21.9979 9.80322 20.4941 8.30273 18.6415 8.30273C16.7889 8.30273 15.2852 9.80651 15.2852 11.6591V15.9532L18.6415 18.306L21.9979 15.9532Z" fill="#394FFF"/>
<path d="M4.22818 9.03029C3.01397 8.17804 1.33908 8.47419 0.486832 9.6884C-0.365418 10.9026 -0.069269 12.5775 1.14494 13.4297C2.35915 14.282 4.03404 13.9858 4.88629 12.7716C5.73854 11.5574 5.44239 9.88254 4.22818 9.03029Z" fill="#01E5E3"/>
<path d="M18.6402 5.61089C20.1231 5.61089 21.3252 4.40873 21.3252 2.9258C21.3252 1.44287 20.1231 0.240723 18.6402 0.240723C17.1572 0.240723 15.9551 1.44287 15.9551 2.9258C15.9551 4.40873 17.1572 5.61089 18.6402 5.61089Z" fill="url(#paint0_linear_1_8613)"/>
<path d="M36.7945 9.69182C35.9422 8.47761 34.2674 8.18146 33.0531 9.03371C31.8389 9.88596 31.5428 11.5608 32.395 12.7751C33.2473 13.9893 34.9222 14.2854 36.1364 13.4332C37.3506 12.5809 37.6467 10.906 36.7945 9.69182Z" fill="#394FFF"/>
<path d="M30.193 14.3148C29.1301 12.7946 27.0341 12.426 25.5171 13.4889L21.9995 15.9535V22.403C21.9995 22.403 21.9995 22.4227 21.9995 22.4326C22.0061 21.3664 21.5092 20.3135 20.5681 19.6521L18.6432 18.3029L16.7182 19.6521C15.7771 20.3102 15.2802 21.3631 15.2868 22.4326C15.2868 22.4227 15.2868 22.4128 15.2868 22.403V15.9535L11.7692 13.4889C10.249 12.426 8.15622 12.7946 7.09338 14.3148C6.03053 15.835 6.39907 17.9278 7.9193 18.9907L16.7215 25.1539C16.7215 25.1539 16.7347 25.1637 16.7412 25.167C16.7215 25.1539 16.705 25.1374 16.6853 25.1242C16.7182 25.1473 16.7478 25.1703 16.7807 25.19C16.8334 25.2262 16.886 25.2591 16.9387 25.2888C16.942 25.2888 16.9453 25.2921 16.9485 25.2953C16.9913 25.3184 17.0308 25.3447 17.0736 25.3644C17.1229 25.3908 17.1756 25.4171 17.2249 25.4401C17.2776 25.4632 17.3302 25.4862 17.3829 25.5092C17.4257 25.5257 17.4717 25.5421 17.5178 25.5586C17.577 25.5783 17.6396 25.6014 17.6988 25.6178C17.7317 25.6277 17.7646 25.6343 17.7942 25.6441C17.8041 25.6441 17.8172 25.6507 17.8271 25.654C17.8896 25.6705 17.9522 25.6836 18.0147 25.6968C18.0377 25.7001 18.064 25.7034 18.0871 25.71C18.1134 25.7132 18.1364 25.7165 18.1628 25.7231C18.2187 25.7297 18.2746 25.7396 18.3273 25.7429C18.3536 25.7429 18.3799 25.7461 18.4063 25.7494C18.4425 25.7494 18.4819 25.7527 18.5181 25.756C18.5576 25.756 18.5971 25.7593 18.6399 25.7593C18.6794 25.7593 18.7189 25.7593 18.7616 25.756C18.8011 25.756 18.8373 25.756 18.8735 25.7494C18.8998 25.7494 18.9262 25.7494 18.9525 25.7429C19.0084 25.7363 19.0644 25.7297 19.117 25.7231C19.1433 25.7198 19.1664 25.7165 19.1927 25.71C19.2157 25.7067 19.2421 25.7034 19.2651 25.6968C19.3276 25.6836 19.3901 25.6705 19.4526 25.654C19.4625 25.654 19.4757 25.6474 19.4856 25.6441C19.5185 25.6343 19.5514 25.6277 19.581 25.6178C19.6435 25.6014 19.7027 25.5783 19.762 25.5586C19.808 25.5421 19.8508 25.5257 19.8969 25.5092C19.9495 25.4862 20.0022 25.4632 20.0548 25.4401C20.1075 25.4171 20.1568 25.3908 20.2095 25.3644C20.2522 25.3414 20.295 25.3184 20.3345 25.2953C20.3378 25.2953 20.3411 25.2921 20.3444 25.2888C20.397 25.2559 20.453 25.223 20.5056 25.19C20.5385 25.167 20.5681 25.1473 20.601 25.1242C20.5813 25.1374 20.5648 25.1539 20.5451 25.167C20.5517 25.1637 20.5583 25.1604 20.5648 25.1539L29.367 18.9907C30.8873 17.9278 31.2558 15.8317 30.193 14.3148ZM15.889 24.3312C15.889 24.3312 15.8824 24.3213 15.8791 24.3148C15.8989 24.3444 15.9219 24.3707 15.9416 24.397C15.9252 24.374 15.9054 24.3542 15.889 24.3312ZM21.3908 24.3312C21.3743 24.3542 21.3546 24.374 21.3381 24.397C21.3579 24.3674 21.3809 24.3411 21.4006 24.3148C21.3974 24.3213 21.3941 24.3246 21.3908 24.3312Z" fill="url(#paint1_linear_1_8613)"/>
<path d="M53.4456 14.5874L59.6977 7.85166L59.7931 7.74636V7.16064H55.851L55.7424 7.2791L50.8264 12.748V7.16064H47.3516V22.4814H50.8264V16.565L56.3117 22.3662L56.4203 22.4781H60.336V21.8036L60.2373 21.6983L53.4456 14.5841V14.5874Z" fill="white"/>
<path d="M71.2976 7.18066H70.9356V15.9039C70.9356 18.2303 69.7675 19.5663 67.7306 19.5663C65.5622 19.5663 64.3183 18.2303 64.3183 15.9039V7.18066H60.8633V15.9039C60.8633 20.0895 63.5517 22.791 67.7109 22.791C71.8701 22.791 74.3907 20.152 74.3907 15.9039V7.18066H71.2976Z" fill="white"/>
<path d="M83.058 12.8343C80.9455 12.5842 80.1229 12.1696 80.1229 11.3602C80.1229 10.373 81.1166 9.78398 82.7849 9.78398C84.2656 9.78398 85.5128 10.5309 85.9372 11.2351L86.1116 11.5247L86.4144 11.37L88.6026 10.2447L88.9185 10.0834L88.7605 9.76424C87.7635 7.73727 85.6707 6.66455 82.7026 6.66455C79.7115 6.68758 76.6941 8.12226 76.6941 11.2812C76.6941 14.858 79.7543 15.7037 82.7487 16.0623C84.0649 16.2038 85.8089 16.5428 85.8089 17.8491C85.8089 19.5437 83.5154 19.6753 82.8145 19.6753C80.9784 19.6753 79.57 18.8955 79.0436 17.5891L78.8955 17.2206L78.5434 17.4049L76.2499 18.5928L75.957 18.7441L76.0821 19.0501C77.1252 21.6168 79.3134 22.8606 82.7783 22.8606C86.7829 22.8606 89.2706 20.9389 89.2706 17.8491C89.2706 14.1176 86.2926 13.2358 83.0745 12.8409L83.058 12.8343ZM86.8816 14.2361C87.237 14.4335 87.5595 14.6639 87.8359 14.9436C87.5628 14.6639 87.237 14.4335 86.8816 14.2361ZM80.7283 12.6764C80.5802 12.6073 80.4453 12.5316 80.3269 12.446C80.4453 12.5316 80.5802 12.6106 80.7283 12.6764ZM78.1255 8.61584C77.905 8.83631 77.7109 9.07981 77.5529 9.34634C77.7142 9.07652 77.905 8.83302 78.1255 8.61584ZM77.1778 10.2315C77.0923 10.554 77.0462 10.8995 77.0462 11.2746C77.0462 10.8995 77.0923 10.5507 77.1778 10.2315ZM83.4825 15.7925C83.7063 15.832 83.9234 15.8748 84.1274 15.9274C83.9234 15.8748 83.7095 15.832 83.4825 15.7925ZM79.2838 21.8965C78.2867 21.4753 77.4641 20.8073 76.8619 19.8267C76.6908 19.547 76.5362 19.241 76.398 18.9054L78.6915 17.7175C79.3364 19.3233 81.0278 20.0307 82.7981 20.0307C84.5684 20.0307 86.1544 19.4253 86.1544 17.8425C86.1544 19.4286 84.5289 20.0307 82.7981 20.0307C81.0672 20.0307 79.3364 19.3233 78.6915 17.7175L76.398 18.9054C76.5329 19.2377 76.6875 19.5437 76.8619 19.8267C77.4641 20.8073 78.2867 21.4753 79.2838 21.8965ZM85.0883 22.2255C85.4502 22.1334 85.799 22.0215 86.1281 21.88C85.8023 22.0182 85.4535 22.1334 85.0883 22.2255Z" fill="white"/>
<path d="M91.5592 7.16064H91.1973V7.5226V22.1162V22.4781H91.5592H94.2904H94.6523V22.1162V7.5226V7.16064H94.2904H91.5592Z" fill="white"/>
<path d="M97.2096 7.16064H96.8477V7.5226V10.0234V10.3854H97.2096H101.477V22.1162V22.4781H101.839H104.59H104.952V22.1162V10.3854H109.22H109.582V10.0234V7.5226V7.16064H109.22H97.2096Z" fill="white"/>
<path d="M123.732 7.18066H123.547L123.439 7.32874L119.164 13.2024L114.89 7.32874L114.781 7.18066H111.066V22.5014H114.541V12.6364L118.536 18.102L118.645 18.25H119.553L119.661 18.1053L123.765 12.6364V22.5047H127.239V7.18066H123.728H123.732Z" fill="white"/>
<path d="M135.804 12.8343C133.692 12.5842 132.869 12.1696 132.869 11.3602C132.869 10.373 133.863 9.78398 135.531 9.78398C137.012 9.78398 138.259 10.5309 138.683 11.2351L138.858 11.5247L139.16 11.37L141.349 10.2447L141.665 10.0834L141.507 9.76424C140.51 7.73727 138.417 6.66455 135.449 6.66455C132.458 6.68758 129.44 8.12226 129.44 11.2812C129.44 14.858 132.5 15.7037 135.495 16.0623C136.811 16.2038 138.555 16.5428 138.555 17.8491C138.555 19.5437 136.261 19.6753 135.561 19.6753C133.724 19.6753 132.316 18.8955 131.79 17.5891L131.642 17.2206L131.289 17.4049L128.996 18.5928L128.703 18.7441L128.828 19.0501C129.871 21.6168 132.059 22.8606 135.524 22.8606C139.529 22.8606 142.017 20.9389 142.017 17.8491C142.017 14.1176 139.039 13.2358 135.821 12.8409L135.804 12.8343ZM139.628 14.2328C139.983 14.4302 140.306 14.6606 140.582 14.9403C140.309 14.6606 139.983 14.4302 139.628 14.2328ZM133.474 12.6731C133.326 12.604 133.191 12.5283 133.073 12.4427C133.191 12.5283 133.326 12.6073 133.474 12.6731ZM141.178 9.9189C140.832 9.21472 140.365 8.66849 139.815 8.2473C140.365 8.6652 140.832 9.21472 141.178 9.9189ZM130.872 8.61255C130.651 8.83302 130.457 9.07652 130.299 9.34305C130.46 9.07323 130.651 8.82973 130.872 8.61255ZM129.924 10.2282C129.838 10.5507 129.792 10.8962 129.792 11.2713C129.792 10.8962 129.838 10.5474 129.924 10.2282ZM136.229 15.7892C136.452 15.8287 136.67 15.8715 136.874 15.9241C136.67 15.8715 136.456 15.8287 136.229 15.7892ZM132.03 21.8932C131.033 21.472 130.21 20.804 129.608 19.8234C129.437 19.5437 129.282 19.2377 129.144 18.9021L131.438 17.7142C132.083 19.32 133.774 20.0274 135.544 20.0274C137.314 20.0274 138.901 19.422 138.901 17.8392C138.901 19.4253 137.275 20.0274 135.544 20.0274C133.813 20.0274 132.083 19.32 131.438 17.7142L129.144 18.9021C129.279 19.2344 129.434 19.5404 129.608 19.8234C130.21 20.804 131.033 21.472 132.03 21.8932ZM137.834 22.2222C138.196 22.1301 138.545 22.0182 138.874 21.8767C138.548 22.0149 138.2 22.1301 137.834 22.2222Z" fill="white"/>
</g>
<defs>
<linearGradient id="paint0_linear_1_8613" x1="15.9551" y1="2.9258" x2="21.3252" y2="2.9258" gradientUnits="userSpaceOnUse">
<stop stop-color="#01E5E3"/>
<stop offset="0.04" stop-color="#05D7E5"/>
<stop offset="0.19" stop-color="#15AEED"/>
<stop offset="0.35" stop-color="#228BF3"/>
<stop offset="0.5" stop-color="#2C71F8"/>
<stop offset="0.66" stop-color="#335EFC"/>
<stop offset="0.83" stop-color="#3752FE"/>
<stop offset="1" stop-color="#394FFF"/>
</linearGradient>
<linearGradient id="paint1_linear_1_8613" x1="6.47805" y1="19.3197" x2="30.7984" y2="19.3197" gradientUnits="userSpaceOnUse">
<stop stop-color="#01E5E3"/>
<stop offset="0.02" stop-color="#04DCE4"/>
<stop offset="0.14" stop-color="#14B1EC"/>
<stop offset="0.26" stop-color="#218EF3"/>
<stop offset="0.38" stop-color="#2B72F8"/>
<stop offset="0.5" stop-color="#335EFC"/>
<stop offset="0.63" stop-color="#3752FE"/>
<stop offset="0.75" stop-color="#394FFF"/>
</linearGradient>
<clipPath id="clip0_1_8613">
<rect width="142" height="25.5181" fill="white" transform="translate(0 0.240723)"/>
</clipPath>
</defs>
</svg>
