<svg width="132" height="24" viewBox="0 0 132 24" fill="none" xmlns="http://www.w3.org/2000/svg">
<path fill-rule="evenodd" clip-rule="evenodd" d="M17.0047 7.77443C18.6987 7.77448 20.0691 9.13641 20.0691 10.8135V14.6406L23.2693 12.419C24.6549 11.459 26.564 11.7924 27.5349 13.166H27.5398C28.5082 14.5398 28.1715 16.4329 26.7859 17.3955L18.7556 22.9707C18.7506 22.9757 18.7431 22.9784 18.7381 22.9834C18.7558 22.9709 18.7711 22.9579 18.7888 22.9453C18.7611 22.9654 18.7332 22.9859 18.7029 23.0059C18.655 23.0384 18.6043 23.0657 18.5564 23.0957C18.5539 23.0957 18.5482 23.1016 18.5457 23.1016C18.5079 23.1216 18.4702 23.1441 18.4324 23.1641C18.3869 23.1866 18.3408 23.2089 18.2927 23.2315C18.2449 23.2539 18.1971 23.274 18.1492 23.294C18.1089 23.3089 18.0684 23.3239 18.0281 23.3389C17.9726 23.3589 17.9166 23.3795 17.8611 23.3946C17.8308 23.4021 17.8026 23.4095 17.7722 23.417C17.7621 23.4195 17.7521 23.4223 17.742 23.4248C17.6863 23.4374 17.6302 23.4519 17.572 23.4619C17.5495 23.4645 17.5292 23.4692 17.5066 23.4717C17.4839 23.4742 17.461 23.4799 17.4383 23.4824C17.3878 23.4899 17.3373 23.497 17.2869 23.502C17.2617 23.5045 17.2388 23.5068 17.2136 23.5069C17.1784 23.5094 17.1454 23.5127 17.1101 23.5127C17.0747 23.5152 17.0361 23.5147 17.0008 23.5147C16.9629 23.5147 16.9273 23.5127 16.8894 23.5127C16.8542 23.5127 16.8212 23.5069 16.7859 23.5069C16.7607 23.5044 16.7379 23.502 16.7127 23.502C16.6622 23.497 16.6117 23.4899 16.5613 23.4824C16.5385 23.4799 16.5157 23.4767 16.4929 23.4717C16.4703 23.4692 16.4501 23.4669 16.4275 23.4619C16.3719 23.4519 16.3132 23.4399 16.2576 23.4248C16.2475 23.4223 16.2374 23.4195 16.2273 23.417C16.197 23.4095 16.1688 23.4021 16.1384 23.3946C16.0804 23.377 16.027 23.3589 15.9715 23.3389C15.9312 23.3239 15.8906 23.3089 15.8504 23.294C15.8025 23.274 15.7547 23.2539 15.7068 23.2315C15.6613 23.2114 15.6127 23.1891 15.5672 23.1641C15.5294 23.1441 15.4917 23.124 15.4539 23.1016C15.4513 23.1016 15.4457 23.0957 15.4431 23.0957C15.3953 23.0682 15.3474 23.0383 15.2996 23.0059C15.2718 22.9858 15.2415 22.9654 15.2136 22.9453C15.2313 22.9579 15.2467 22.9709 15.2644 22.9834C15.2594 22.9784 15.2459 22.9707 15.2459 22.9707L7.2156 17.3955C5.82749 16.4354 5.49173 14.5398 6.46267 13.166C7.43117 11.7901 9.3428 11.4564 10.7283 12.419L13.9363 14.6475V20.5069C13.9287 19.5418 14.384 18.5889 15.241 17.9922L16.9636 16.7949L13.9402 14.6983V10.8135C13.9402 9.13387 15.3106 7.77443 17.0047 7.77443ZM14.4851 22.2266C14.5002 22.2465 14.5179 22.2663 14.533 22.2862C14.5128 22.2612 14.493 22.2359 14.4754 22.211C14.4804 22.216 14.4851 22.2266 14.4851 22.2266ZM19.4558 22.2862C19.471 22.2661 19.4895 22.2466 19.5047 22.2266C19.5097 22.2216 19.5119 22.216 19.5144 22.211C19.4942 22.236 19.4735 22.2611 19.4558 22.2862ZM17.0388 16.7998L18.7556 17.9922C19.6128 18.5889 20.0679 19.5417 20.0603 20.5069V14.7041L17.0388 16.7998ZM0.443135 9.03615C1.21949 7.93851 2.74889 7.67094 3.85622 8.44045C4.96358 9.2101 5.234 10.7263 4.45778 11.8242C3.68152 12.9222 2.15214 13.1905 1.0447 12.4209C-0.0627878 11.6513 -0.333116 10.1342 0.443135 9.03615ZM30.155 8.44045C31.265 7.67088 32.7928 7.9383 33.5691 9.03615C34.3453 10.1366 34.0748 11.6512 32.9675 12.4209C31.8575 13.1905 30.3297 12.9223 29.5535 11.8242C28.7774 10.7239 29.048 9.21014 30.155 8.44045ZM16.9968 0.486348C18.3498 0.480972 19.4511 1.56385 19.4568 2.90529C19.4623 4.24656 18.3702 5.33792 17.0174 5.34377C15.6642 5.34939 14.5621 4.26642 14.5564 2.92482C14.551 1.58343 15.6438 0.491967 16.9968 0.486348Z" fill="url(#paint0_linear_1360_322)"/>
<path d="M46.4869 11.7676L52.0195 5.85943L52.1049 5.76802V5.25339H48.6146L48.5189 5.35834L44.1679 10.156V5.25H41.0908V18.6914H44.1679V13.5011L49.021 18.5932L49.1166 18.6914H52.5831V18.0989L52.4943 18.0075L46.4835 11.7676H46.4869Z" fill="#18181B"/>
<path d="M62.2821 5.27148H61.9611V12.9233C61.9611 14.9649 60.9263 16.1364 59.1265 16.1364C57.2071 16.1364 56.1074 14.9649 56.1074 12.9233V5.27148H53.0508V12.9233C53.0508 16.5934 55.4278 18.9668 59.1094 18.9668C62.791 18.9668 65.0211 16.651 65.0211 12.9233V5.27148H62.2821ZM58.0712 16.326C58.3956 16.4106 58.7508 16.4546 59.1265 16.4546C60.2569 16.4546 61.1141 16.0314 61.6469 15.273C61.1141 16.0348 60.2569 16.4546 59.1265 16.4546C58.7508 16.4546 58.3956 16.4106 58.0712 16.326C57.7467 16.2413 57.4496 16.1127 57.1866 15.9434C57.4496 16.1127 57.7467 16.2379 58.0712 16.326ZM53.3718 12.9233C53.3718 13.4041 53.4128 13.8577 53.4913 14.2776C53.4128 13.8577 53.3718 13.4074 53.3718 12.9233ZM64.7001 12.9233C64.7001 16.7119 62.3573 18.6486 59.1094 18.6486C57.9482 18.6486 56.8485 18.3845 55.9298 17.8529C56.8485 18.3845 57.9448 18.6452 59.1094 18.6452C62.3573 18.6452 64.7001 16.7052 64.7001 12.9199V12.9233Z" fill="#18181B"/>
<path d="M72.6898 10.2311C70.8216 10.0111 70.0908 9.64878 70.0908 8.93778C70.0908 8.07102 70.9719 7.553 72.4473 7.553C73.7587 7.553 74.8619 8.20984 75.2341 8.82605L75.3878 9.07998L75.6542 8.94455L77.5906 7.95591L77.8707 7.81371L77.7306 7.53269C76.8495 5.75179 74.995 4.81055 72.3687 4.81055C69.7219 4.83086 67.0512 6.09036 67.0512 8.8599C67.0512 11.9985 69.7595 12.74 72.4097 13.0548C73.5743 13.1801 75.118 13.4747 75.118 14.6224C75.118 16.1088 73.0893 16.2239 72.4678 16.2239C70.8421 16.2239 69.5956 15.54 69.1311 14.3922L68.9979 14.0672L68.6837 14.2263L66.6551 15.2691L66.3955 15.4012L66.5048 15.6686C67.4269 17.9202 69.3668 19.0138 72.4302 19.0138C75.9752 19.0138 78.1746 17.3277 78.1746 14.6157C78.1746 11.3417 75.5381 10.5697 72.6898 10.221V10.2311ZM68.3285 6.52712C68.1339 6.72011 67.9631 6.93341 67.8197 7.17041C67.9597 6.93341 68.1339 6.72011 68.3285 6.52712ZM67.4884 7.94575C67.4132 8.22677 67.3723 8.53149 67.3723 8.86329C67.3723 8.53487 67.4132 8.23015 67.4884 7.94575ZM73.0689 12.8246C73.2669 12.8585 73.4582 12.8957 73.6392 12.9431C73.4582 12.8991 73.2669 12.8585 73.0689 12.8246ZM70.1488 18.445C69.8722 18.3739 69.6058 18.2858 69.3565 18.1809C68.4754 17.8118 67.7445 17.2261 67.2117 16.3661C67.0581 16.119 66.9215 15.8515 66.8019 15.5603L68.8306 14.5175C69.4009 15.926 70.8968 16.5489 72.4644 16.5489C74.0319 16.5489 75.4356 16.0174 75.4356 14.6292C75.4356 16.0208 73.9944 16.5489 72.4644 16.5489C70.9343 16.5489 69.4009 15.926 68.8306 14.5175L66.8019 15.5603C66.9215 15.8515 67.0581 16.1223 67.2117 16.3661C67.7445 17.2261 68.472 17.8118 69.3565 18.1809C69.6092 18.2858 69.8722 18.3739 70.1488 18.445ZM74.4896 18.4687C74.8106 18.3874 75.118 18.2892 75.4083 18.1673C75.118 18.2892 74.8106 18.3908 74.4896 18.4687ZM77.8536 14.6224C77.8536 13.6677 77.6077 12.9431 77.191 12.3879C77.6111 12.9431 77.8536 13.6677 77.8536 14.6224Z" fill="#18181B"/>
<path d="M80.2136 5.25H79.8926V5.56826V18.3732V18.6914H80.2136H82.6316H82.9526V18.3732V5.56826V5.25H82.6316H80.2136Z" fill="#18181B"/>
<path d="M85.2136 5.25H84.8926V5.56826V7.76223V8.08049H85.2136H88.9908V18.3732V18.6914H89.3119H91.7469H92.068V18.3732V8.08049H95.8418H96.1628V7.76223V5.56826V5.25H95.8418H85.2136Z" fill="#18181B"/>
<path d="M108.686 5.27148H108.522L108.426 5.40353L104.646 10.5566L100.865 5.40353L100.769 5.27148H97.4805V18.7129H100.558V10.0555L104.092 14.8498L104.188 14.9784H104.991L105.086 14.8498L108.717 10.0522V18.7095H111.794V5.27148H108.686Z" fill="#18181B"/>
<path d="M119.549 10.4069C117.681 10.1868 116.95 9.82456 116.95 9.11356C116.95 8.2468 117.831 7.72879 119.307 7.72879C120.618 7.72879 121.721 8.38562 122.093 9.00183L122.247 9.25576L122.514 9.12033L124.45 8.13169L124.73 7.98949L124.59 7.70847C123.709 5.92757 121.854 4.98633 119.228 4.98633C116.581 5.00664 113.911 6.26614 113.911 9.03568C113.911 12.1743 116.619 12.9158 119.269 13.2306C120.434 13.3559 121.977 13.6505 121.977 14.7982C121.977 16.2846 119.949 16.3997 119.327 16.3997C117.702 16.3997 116.455 15.7158 115.99 14.568L115.857 14.243L115.543 14.4021L113.514 15.4449L113.255 15.577L113.364 15.8444C114.286 18.096 116.226 19.1895 119.29 19.1895C122.835 19.1895 125.034 17.5034 125.034 14.7915C125.034 11.5174 122.397 10.7455 119.549 10.3968V10.4069ZM124.713 14.7982C124.713 13.8434 124.467 13.1189 124.05 12.5636C124.47 13.1189 124.713 13.8434 124.713 14.7982ZM124.31 7.84729C124.003 7.23108 123.589 6.7503 123.104 6.38126C123.589 6.7503 124.003 7.22769 124.31 7.84729ZM115.188 6.7029C114.993 6.89589 114.822 7.10919 114.679 7.3462C114.819 7.10919 114.993 6.89589 115.188 6.7029ZM114.351 8.12153C114.276 8.40255 114.235 8.70727 114.235 9.03907C114.235 8.71065 114.276 8.40594 114.351 8.12153ZM119.928 13.0004C120.126 13.0343 120.318 13.0715 120.499 13.1189C120.318 13.0749 120.126 13.0343 119.928 13.0004ZM117.008 18.6207C116.732 18.5496 116.465 18.4616 116.216 18.3567C115.335 17.9876 114.607 17.4019 114.071 16.5419C113.917 16.2947 113.781 16.0273 113.661 15.7361L115.69 14.6933C116.26 16.1017 117.756 16.7247 119.324 16.7247C120.891 16.7247 122.295 16.1932 122.295 14.805C122.295 16.1965 120.854 16.7247 119.324 16.7247C117.794 16.7247 116.26 16.1017 115.69 14.6933L113.661 15.7361C113.781 16.0273 113.917 16.2981 114.071 16.5419C114.604 17.4019 115.331 17.9876 116.216 18.3567C116.469 18.4616 116.732 18.5496 117.008 18.6207ZM121.352 18.6444C121.673 18.5632 121.981 18.465 122.271 18.3431C121.981 18.465 121.673 18.5666 121.352 18.6444Z" fill="#18181B"/>
<defs>
<linearGradient id="paint0_linear_1360_322" x1="0.410906" y1="9.73175" x2="27.6641" y2="16.3353" gradientUnits="userSpaceOnUse">
<stop stop-color="#0091FF"/>
<stop offset="0.682692" stop-color="#0055FF"/>
<stop offset="1" stop-color="#004DFF"/>
</linearGradient>
</defs>
</svg>
