<svg width="512" height="92" viewBox="0 0 512 92" fill="none" xmlns="http://www.w3.org/2000/svg">
<rect width="224" height="92" rx="46" fill="white"/>
<rect x="288" width="224" height="92" rx="46" fill="white"/>
<path d="M56.7834 48.7023V43.8644C56.7834 41.7735 55.0892 40.083 53.0021 40.083C50.9149 40.083 49.2207 41.7772 49.2207 43.8644V48.7023L53.0021 51.3529L56.7834 48.7023Z" fill="#394FFF"/>
<path d="M36.7636 40.9025C35.3956 39.9423 33.5086 40.276 32.5485 41.6439C31.5883 43.0119 31.922 44.8989 33.2899 45.859C34.6579 46.8192 36.5449 46.4856 37.505 45.1176C38.4652 43.7496 38.1315 41.8627 36.7636 40.9025Z" fill="#01E5E3"/>
<path d="M53.0007 37.0502C54.6714 37.0502 56.0258 35.6958 56.0258 34.0251C56.0258 32.3544 54.6714 31 53.0007 31C51.33 31 49.9756 32.3544 49.9756 34.0251C49.9756 35.6958 51.33 37.0502 53.0007 37.0502Z" fill="url(#paint0_linear_844_305)"/>
<path d="M73.4533 41.6476C72.4931 40.2796 70.6061 39.946 69.2382 40.9061C67.8702 41.8663 67.5366 43.7533 68.4967 45.1213C69.4569 46.4892 71.3439 46.8229 72.7118 45.8627C74.0798 44.9025 74.4134 43.0156 73.4533 41.6476Z" fill="#394FFF"/>
<path d="M66.0162 46.8564C64.8188 45.1436 62.4573 44.7284 60.7482 45.9259L56.7852 48.7026V55.9687C56.7852 55.9687 56.7852 55.991 56.7852 56.0021C56.7926 54.8009 56.2329 53.6146 55.1726 52.8695L53.0039 51.3495L50.8351 52.8695C49.7749 53.6109 49.2151 54.7972 49.2225 56.0021C49.2225 55.991 49.2225 55.9798 49.2225 55.9687V48.7026L45.2595 45.9259C43.5468 44.7284 41.189 45.1436 39.9915 46.8564C38.7941 48.5691 39.2093 50.9269 40.922 52.1243L50.8389 59.0679C50.8389 59.0679 50.8537 59.0791 50.8611 59.0828C50.8389 59.0679 50.8203 59.0494 50.7981 59.0346C50.8351 59.0605 50.8685 59.0865 50.9056 59.1087C50.9649 59.1495 51.0242 59.1866 51.0835 59.2199C51.0872 59.2199 51.0909 59.2236 51.0946 59.2274C51.1428 59.2533 51.1873 59.283 51.2355 59.3052C51.2911 59.3349 51.3504 59.3645 51.4061 59.3905C51.4654 59.4164 51.5247 59.4424 51.584 59.4683C51.6322 59.4869 51.6841 59.5054 51.736 59.5239C51.8027 59.5462 51.8732 59.5721 51.9399 59.5907C51.977 59.6018 52.014 59.6092 52.0474 59.6203C52.0585 59.6203 52.0734 59.6277 52.0845 59.6314C52.1549 59.65 52.2254 59.6648 52.2958 59.6796C52.3217 59.6833 52.3514 59.6871 52.3773 59.6945C52.407 59.6982 52.433 59.7019 52.4626 59.7093C52.5256 59.7167 52.5887 59.7278 52.648 59.7315C52.6776 59.7315 52.7073 59.7352 52.7369 59.739C52.7777 59.739 52.8222 59.7427 52.863 59.7464C52.9075 59.7464 52.952 59.7501 53.0002 59.7501C53.0446 59.7501 53.0891 59.7501 53.1373 59.7464C53.1818 59.7464 53.2226 59.7464 53.2634 59.739C53.293 59.739 53.3227 59.739 53.3523 59.7315C53.4154 59.7241 53.4784 59.7167 53.5377 59.7093C53.5674 59.7056 53.5933 59.7019 53.623 59.6945C53.6489 59.6908 53.6786 59.6871 53.7045 59.6796C53.775 59.6648 53.8454 59.65 53.9158 59.6314C53.927 59.6314 53.9418 59.624 53.9529 59.6203C53.99 59.6092 54.0271 59.6018 54.0604 59.5907C54.1309 59.5721 54.1976 59.5462 54.2643 59.5239C54.3162 59.5054 54.3644 59.4869 54.4163 59.4683C54.4756 59.4424 54.5349 59.4164 54.5943 59.3905C54.6536 59.3645 54.7092 59.3349 54.7685 59.3052C54.8167 59.2793 54.8649 59.2533 54.9094 59.2274C54.9131 59.2274 54.9168 59.2236 54.9205 59.2199C54.9798 59.1829 55.0428 59.1458 55.1022 59.1087C55.1392 59.0828 55.1726 59.0605 55.2097 59.0346C55.1874 59.0494 55.1689 59.0679 55.1466 59.0828C55.1541 59.0791 55.1615 59.0754 55.1689 59.0679L65.0857 52.1243C66.7984 50.9269 67.2136 48.5654 66.0162 46.8564ZM49.9009 58.1411C49.9009 58.1411 49.8935 58.13 49.8898 58.1226C49.912 58.156 49.938 58.1856 49.9602 58.2153C49.9417 58.1893 49.9195 58.1671 49.9009 58.1411ZM56.0994 58.1411C56.0809 58.1671 56.0586 58.1893 56.0401 58.2153C56.0623 58.1819 56.0883 58.1523 56.1105 58.1226C56.1068 58.13 56.1031 58.1337 56.0994 58.1411Z" fill="url(#paint1_linear_844_305)"/>
<path d="M92.2134 47.1633L99.2571 39.5747L99.3646 39.456V38.7961H94.9234L94.8011 38.9296L89.2625 45.091V38.7961H85.3477V56.0569H89.2625V49.3914L95.4424 55.9272L95.5648 56.0532H99.9763V55.2933L99.8651 55.1746L92.2134 47.1596V47.1633Z" fill="black"/>
<path d="M112.326 38.8184H111.918V48.6462C111.918 51.2672 110.602 52.7723 108.307 52.7723C105.864 52.7723 104.463 51.2672 104.463 48.6462V38.8184H100.57V48.6462C100.57 53.3618 103.599 56.4054 108.285 56.4054C112.971 56.4054 115.811 53.4322 115.811 48.6462V38.8184H112.326Z" fill="black"/>
<path d="M125.575 45.1881C123.195 44.9063 122.269 44.4392 122.269 43.5273C122.269 42.4151 123.388 41.7515 125.268 41.7515C126.936 41.7515 128.341 42.593 128.819 43.3864L129.016 43.7126L129.357 43.5384L131.822 42.2705L132.178 42.0889L132 41.7293C130.877 39.4456 128.519 38.2371 125.175 38.2371C121.805 38.263 118.406 39.8794 118.406 43.4383C118.406 47.468 121.853 48.4208 125.227 48.8249C126.71 48.9843 128.675 49.3661 128.675 50.8379C128.675 52.7471 126.091 52.8954 125.301 52.8954C123.232 52.8954 121.646 52.0168 121.053 50.545L120.886 50.1298L120.489 50.3374L117.905 51.6757L117.575 51.8463L117.716 52.191C118.891 55.0827 121.357 56.484 125.26 56.484C129.772 56.484 132.575 54.319 132.575 50.8379C132.575 46.6339 129.22 45.6404 125.594 45.1955L125.575 45.1881ZM129.883 46.7674C130.284 46.9898 130.647 47.2493 130.958 47.5644C130.651 47.2493 130.284 46.9898 129.883 46.7674ZM122.951 45.0101C122.784 44.9323 122.632 44.847 122.498 44.7506C122.632 44.847 122.784 44.936 122.951 45.0101ZM120.018 40.4354C119.77 40.6838 119.551 40.9582 119.373 41.2584C119.555 40.9545 119.77 40.6801 120.018 40.4354ZM118.951 42.2557C118.854 42.619 118.802 43.0082 118.802 43.4309C118.802 43.0082 118.854 42.6153 118.951 42.2557ZM126.054 48.5209C126.306 48.5654 126.55 48.6136 126.78 48.6729C126.55 48.6136 126.309 48.5654 126.054 48.5209ZM121.323 55.3978C120.2 54.9232 119.273 54.1707 118.595 53.0659C118.402 52.7508 118.228 52.406 118.072 52.0279L120.656 50.6896C121.383 52.4987 123.288 53.2958 125.282 53.2958C127.277 53.2958 129.064 52.6136 129.064 50.8305C129.064 52.6174 127.232 53.2958 125.282 53.2958C123.333 53.2958 121.383 52.4987 120.656 50.6896L118.072 52.0279C118.224 52.4023 118.398 52.7471 118.595 53.0659C119.273 54.1707 120.2 54.9232 121.323 55.3978ZM127.863 55.7685C128.271 55.6647 128.663 55.5386 129.034 55.3792C128.667 55.5349 128.274 55.6647 127.863 55.7685Z" fill="black"/>
<path d="M135.153 38.7959H134.745V39.2037V55.6452V56.053H135.153H138.23H138.638V55.6452V39.2037V38.7959H138.23H135.153Z" fill="black"/>
<path d="M141.519 38.7961H141.111V39.2039V42.0214V42.4292H141.519H146.327V55.6454V56.0532H146.735H149.834H150.242V55.6454V42.4292H155.05H155.458V42.0214V39.2039V38.7961H155.05H141.519Z" fill="black"/>
<path d="M171.4 38.8188H171.192L171.07 38.9857L166.254 45.6031L161.439 38.9857L161.316 38.8188H157.131V56.0796H161.046V44.9654L165.546 51.1231L165.669 51.2899H166.692L166.814 51.1268L171.437 44.9654V56.0834H175.352V38.8188H171.396H171.4Z" fill="black"/>
<path d="M185.001 45.1878C182.621 44.9061 181.694 44.439 181.694 43.527C181.694 42.4149 182.814 41.7513 184.693 41.7513C186.362 41.7513 187.767 42.5928 188.245 43.3861L188.441 43.7124L188.783 43.5381L191.248 42.2703L191.604 42.0886L191.426 41.729C190.302 39.4454 187.945 38.2368 184.601 38.2368C181.231 38.2628 177.831 39.8791 177.831 43.438C177.831 47.4678 181.279 48.4205 184.653 48.8246C186.136 48.984 188.1 49.3659 188.1 50.8376C188.1 52.7469 185.516 52.8952 184.727 52.8952C182.658 52.8952 181.072 52.0165 180.478 50.5448L180.312 50.1296L179.915 50.3372L177.331 51.6755L177.001 51.846L177.142 52.1908C178.317 55.0824 180.782 56.4837 184.686 56.4837C189.198 56.4837 192 54.3187 192 50.8376C192 46.6337 188.645 45.6401 185.02 45.1953L185.001 45.1878ZM189.309 46.7634C189.709 46.9858 190.073 47.2454 190.384 47.5605C190.076 47.2454 189.709 46.9858 189.309 46.7634ZM182.376 45.0062C182.21 44.9283 182.058 44.8431 181.924 44.7467C182.058 44.8431 182.21 44.932 182.376 45.0062ZM191.055 41.9033C190.666 41.1099 190.139 40.4945 189.52 40.02C190.139 40.4908 190.666 41.1099 191.055 41.9033ZM179.444 40.4315C179.196 40.6799 178.977 40.9542 178.799 41.2545C178.981 40.9505 179.196 40.6762 179.444 40.4315ZM178.376 42.2517C178.28 42.615 178.228 43.0043 178.228 43.4269C178.228 43.0043 178.28 42.6113 178.376 42.2517ZM185.479 48.5169C185.731 48.5614 185.976 48.6096 186.206 48.6689C185.976 48.6096 185.735 48.5614 185.479 48.5169ZM180.749 55.3938C179.626 54.9193 178.699 54.1667 178.02 53.062C177.828 52.7469 177.653 52.4021 177.498 52.024L180.082 50.6857C180.808 52.4948 182.714 53.2918 184.708 53.2918C186.703 53.2918 188.49 52.6097 188.49 50.8265C188.49 52.6134 186.658 53.2918 184.708 53.2918C182.758 53.2918 180.808 52.4948 180.082 50.6857L177.498 52.024C177.65 52.3984 177.824 52.7432 178.02 53.062C178.699 54.1667 179.626 54.9193 180.749 55.3938ZM187.289 55.7645C187.696 55.6607 188.089 55.5347 188.46 55.3753C188.093 55.531 187.7 55.6607 187.289 55.7645Z" fill="black"/>
<path d="M248 38.1592L264 54" stroke="#90909A" stroke-width="2"/>
<path d="M248 53.8408L264 38" stroke="#90909A" stroke-width="2"/>
<path d="M338.475 44.6624L338.09 45.0267L338.476 45.3897L346.436 52.876L342.91 56.3022L331.5 45.1714V44.8286L342.91 33.6978L346.437 37.1247L338.475 44.6624Z" fill="#222222" stroke="white"/>
<path d="M365 44.3745C365 48.3745 359 48.3745 359 44.3745C359 40.3745 365 40.3745 365 44.3745Z" fill="#222222"/>
<path d="M379 44.3745C379 48.3745 373 48.3745 373 44.3745C373 40.3745 379 40.3745 379 44.3745Z" fill="#222222"/>
<path d="M393 44.3745C393 48.3745 387 48.3745 387 44.3745C387 40.3745 393 40.3745 393 44.3745Z" fill="#222222"/>
<path d="M461.524 45.3897L461.91 45.0267L461.525 44.6624L453.563 37.1247L457.09 33.6978L468.5 44.8286V45.1714L457.09 56.3022L453.564 52.876L461.524 45.3897Z" fill="#222222" stroke="white"/>
<path d="M412.73 32.1458C412.739 32.0042 412.745 31.8733 412.752 31.7503C412.769 31.4209 412.784 31.1487 412.808 30.8809C413.052 28.0882 414.973 25.9575 417.649 25.8284L412.73 32.1458ZM412.73 32.1458H412.727H412.724H412.721H412.717H412.714H412.71H412.707H412.704H412.7H412.697H412.694H412.69H412.687H412.684H412.68H412.677H412.674H412.67H412.667H412.664H412.66H412.657H412.654H412.65H412.647H412.644H412.64H412.637H412.634H412.63H412.627H412.624H412.621H412.617H412.614H412.611H412.607H412.604H412.601H412.598H412.594H412.591H412.588H412.584H412.581H412.578H412.575H412.571H412.568H412.565H412.562H412.558H412.555H412.552H412.549H412.545H412.542H412.539H412.536H412.532H412.529H412.526H412.523H412.519H412.516H412.513H412.51H412.506H412.503H412.5H412.497H412.494H412.49H412.487H412.484H412.481H412.478H412.474H412.471H412.468H412.465H412.462H412.458H412.455H412.452H412.449H412.446H412.442H412.439H412.436H412.433H412.43H412.427H412.423H412.42H412.417H412.414H412.411H412.408H412.404H412.401H412.398H412.395H412.392H412.389H412.386H412.382H412.379H412.376H412.373H412.37H412.367H412.364H412.36H412.357H412.354H412.351H412.348H412.345H412.342H412.339H412.335H412.332H412.329H412.326H412.323H412.32H412.317H412.314H412.311H412.307H412.304H412.301H412.298H412.295H412.292H412.289H412.286H412.283H412.28H412.277H412.273H412.27H412.267H412.264H412.261H412.258H412.255H412.252H412.249H412.246H412.243H412.24H412.237H412.234H412.23H412.227H412.224H412.221H412.218H412.215H412.212H412.209H412.206H412.203H412.2H412.197H412.194H412.191H412.188H412.185H412.182H412.179H412.176H412.173H412.17H412.167H412.164H412.161H412.157H412.154H412.151H412.148H412.145H412.142H412.139H412.136H412.133H412.13H412.127H412.124H412.121H412.118H412.115H412.112H412.109H412.106H412.103H412.1H412.097H412.094H412.091H412.088H412.085H412.082H412.079H412.076H412.073H412.07H412.067H412.065H412.062H412.059H412.056H412.053H412.05H412.047H412.044H412.041H412.038H412.035H412.032H412.029H412.026H412.023H412.02H412.017H412.014H412.011H412.008H412.005H412.002H411.999H411.996H411.993H411.99H411.987H411.985H411.982H411.979H411.976H411.973H411.97H411.967H411.964H411.961H411.958H411.955H411.952H411.949H411.946H411.943H411.941H411.938H411.935H411.932H411.929H411.926H411.923H411.92H411.917H411.914H411.911H411.908H411.905H411.903H411.9H411.897H411.894H411.891H411.888H411.885H411.882H411.879H411.876H411.873H411.871H411.868H411.865H411.862H411.859H411.856H411.853H411.85H411.847H411.844H411.842H411.839H411.836H411.833H411.83H411.827H411.824H411.821H411.818H411.816H411.813H411.81H411.807H411.804H411.801H411.798H411.795H411.792H411.79H411.787H411.784H411.781H411.778H411.775H411.772H411.769H411.767H411.764H411.761H411.758H411.755H411.752H411.749H411.746H411.744H411.741H411.738H411.735H411.732H411.729H411.726H411.724H411.721H411.718H411.715H411.712H411.709H411.706H411.704H411.701H411.698H411.695H411.692H411.689H411.686H411.684H411.681H411.678H411.675H411.672H411.669H411.666H411.664H411.661H411.658H411.655H411.652H411.649H411.647H411.644H411.641H411.638H411.635H411.632H411.629H411.627H411.624H411.621H411.618H411.615H411.612H411.61H411.607H411.604H411.601H411.598H411.595H411.593H411.59H411.587H411.584H411.581H411.578H411.576H411.573H411.57H411.567H411.564H411.561H411.559H411.556H411.553H411.55H411.547H411.544H411.542H411.539H411.536H411.533H411.53H411.527H411.525H411.522H411.519H411.516H411.513H411.511H411.508H411.505H411.502H411.499H411.496H411.494H411.491H411.488H411.485H411.482H411.479H411.477H411.474H411.471H411.468H411.465H411.463H411.46H411.457H411.454H411.451H411.448H411.446H411.443H411.44H411.437H411.434H411.431H411.429H411.426H411.423H411.42H411.417H411.415H411.412H411.409H411.406H411.403H411.4H411.398H411.395C410.535 32.1458 409.676 32.1498 408.817 32.1538C406.782 32.1633 404.749 32.1727 402.716 32.1289C402.716 32.1289 402.716 32.1289 402.716 32.1289L412.73 32.1458ZM424.35 25.8255L424.35 25.8255C426.975 25.9398 428.934 28.1097 429.195 30.8939C429.221 31.1739 429.23 31.4606 429.24 31.7981C429.243 31.9073 429.246 32.0217 429.251 32.143H429.251H429.253H429.256H429.258H429.261H429.264H429.266H429.269H429.271H429.274H429.277H429.279H429.282H429.284H429.287H429.289H429.292H429.295H429.297H429.3H429.302H429.305H429.307H429.31H429.313H429.315H429.318H429.32H429.323H429.326H429.328H429.331H429.333H429.336H429.338H429.341H429.344H429.346H429.349H429.351H429.354H429.356H429.359H429.362H429.364H429.367H429.369H429.372H429.374H429.377H429.379H429.382H429.385H429.387H429.39H429.392H429.395H429.397H429.4H429.403H429.405H429.408H429.41H429.413H429.415H429.418H429.42H429.423H429.426H429.428H429.431H429.433H429.436H429.438H429.441H429.443H429.446H429.449H429.451H429.454H429.456H429.459H429.461H429.464H429.466H429.469H429.471H429.474H429.477H429.479H429.482H429.484H429.487H429.489H429.492H429.494H429.497H429.499H429.502H429.505H429.507H429.51H429.512H429.515H429.517H429.52H429.522H429.525H429.527H429.53H429.532H429.535H429.538H429.54H429.543H429.545H429.548H429.55H429.553H429.555H429.558H429.56H429.563H429.565H429.568H429.57H429.573H429.576H429.578H429.581H429.583H429.586H429.588H429.591H429.593H429.596H429.598H429.601H429.603H429.606H429.608H429.611H429.613H429.616H429.619H429.621H429.624H429.626H429.629H429.631H429.634H429.636H429.639H429.641H429.644H429.646H429.649H429.651H429.654H429.656H429.659H429.661H429.664H429.666H429.669H429.671H429.674H429.676H429.679H429.681H429.684H429.687H429.689H429.692H429.694H429.697H429.699H429.702H429.704H429.707H429.709H429.712H429.714H429.717H429.719H429.722H429.724H429.727H429.729H429.732H429.734H429.737H429.739H429.742H429.744H429.747H429.749H429.752H429.754H429.757H429.759H429.762H429.764H429.767H429.769H429.772H429.774H429.777H429.779H429.782H429.784H429.787H429.789H429.792H429.794H429.797H429.799H429.802H429.804H429.807H429.809H429.812H429.814H429.817H429.819H429.822H429.824H429.827H429.829H429.832H429.834H429.837H429.839H429.842H429.844H429.847H429.849H429.852H429.854H429.857H429.859H429.862H429.864H429.867H429.869H429.872H429.874H429.877H429.879H429.882H429.884H429.887H429.889H429.892H429.894H429.897H429.899H429.902H429.904H429.907H429.909H429.912H429.914H429.917H429.919H429.922H429.924H429.927H429.929H429.932H429.934H429.937H429.939H429.942H429.944H429.947H429.949H429.951H429.954H429.956H429.959H429.961H429.964H429.966H429.969H429.971H429.974H429.976H429.979H429.981H429.984H429.986H429.989H429.991H429.994H429.996H429.999H430.001H430.004H430.006H430.009H430.011H430.014H430.016H430.019H430.021H430.024H430.026H430.029H430.031H430.033H430.036H430.038H430.041H430.043H430.046H430.048H430.051H430.053H430.056H430.058H430.061H430.063H430.066H430.068H430.071H430.073H430.076H430.078H430.081H430.083H430.086H430.088H430.091H430.093H430.095H430.098H430.1H430.103H430.105H430.108H430.11H430.113H430.115H430.118H430.12H430.123H430.125H430.128H430.13H430.133H430.135H430.138H430.14H430.143H430.145H430.148H430.15H430.152H430.155H430.157H430.16H430.162H430.165H430.167H430.17H430.172H430.175H430.177H430.18H430.182H430.185H430.187H430.19H430.192H430.195H430.197H430.199H430.202H430.204H430.207H430.209H430.212H430.214H430.217H430.219H430.222H430.224H430.227H430.229H430.232H430.234H430.237H430.239H430.242H430.244H430.247H430.249H430.251H430.254H430.256H430.259H430.261H430.264H430.266H430.269H430.271H430.274H430.276H430.279H430.281H430.284H430.286H430.289H430.291H430.294H430.296H430.298H430.301H430.303H430.306C431.197 32.143 432.088 32.1442 432.979 32.1455C435.117 32.1484 437.254 32.1514 439.39 32.1373M424.35 25.8255L439.39 32.1373M424.35 25.8255C422.12 25.7287 419.878 25.7201 417.649 25.8284L424.35 25.8255ZM439.39 32.1373C439.976 32.1329 440.461 32.2574 440.792 32.6021C441.121 32.9442 441.249 33.4507 441.247 34.0879V34.0881C441.223 42.1794 441.218 50.2676 441.25 58.3585V58.3586C441.253 59.1601 441.035 59.6741 440.592 59.9603C440.179 60.2267 439.625 60.2513 439.086 60.25L439.39 32.1373ZM424.199 45.4148H423.949V45.1648C423.949 45.6644 423.947 46.1543 423.945 46.6374C423.941 47.7624 423.936 48.8505 423.957 49.9386C423.975 51.02 423.513 51.4968 422.508 51.4684C421.53 51.44 420.55 51.4173 419.572 51.4514C418.498 51.4883 418.027 51.0114 418.062 49.8478C418.095 48.7776 418.088 47.706 418.08 46.6141C418.076 46.1308 418.073 45.6435 418.073 45.1506V45.4006H417.823M424.199 45.4148C424.198 45.8302 424.197 46.2384 424.195 46.6415C424.191 47.7652 424.186 48.8488 424.207 49.9339L424.207 49.9343C424.217 50.5038 424.102 50.9724 423.797 51.292C423.49 51.6151 423.039 51.7335 422.501 51.7183L422.501 51.7183C421.523 51.6899 420.55 51.6675 419.58 51.7012L419.58 51.7012C419.012 51.7207 418.539 51.6073 418.22 51.2721C417.904 50.9403 417.794 50.4475 417.812 49.8403L417.812 49.84C417.845 48.7747 417.838 47.7109 417.83 46.6215C417.827 46.2185 417.824 45.812 417.823 45.4006M424.199 45.4148C424.199 45.3318 424.199 45.2484 424.199 45.1648H438.735V45.4148M424.199 45.4148H438.735M417.823 45.4006H403.246M417.823 45.4006C417.823 45.3175 417.823 45.2342 417.823 45.1506H403.246V45.4006M403.246 45.4006H402.996V57.6156H403.246M403.246 45.4006V57.6156M403.246 57.6156V57.8656H438.735V57.6156M403.246 57.6156H438.735M438.735 57.6156H438.985V45.4148H438.735M438.735 57.6156V45.4148M403.123 34.7802C403.124 35.4174 403.129 36.0488 403.133 36.6758C403.144 38.38 403.156 40.0517 403.099 41.7192L403.123 34.7802ZM403.123 34.7802H438.81C438.81 35.2914 438.812 35.7996 438.814 36.3053C438.82 38.3394 438.826 40.3332 438.755 42.3262C438.746 42.3401 438.727 42.3622 438.696 42.3911C438.632 42.4504 438.535 42.5178 438.417 42.5822C438.175 42.7154 437.909 42.8022 437.752 42.8032C432.327 42.8399 426.902 42.8377 421.476 42.8355C420.184 42.8349 418.892 42.8344 417.6 42.8344C416.377 42.8344 415.154 42.8321 413.931 42.8297C410.705 42.8235 407.477 42.8172 404.249 42.8543L403.123 34.7802ZM426.735 32.0607H415.271C414.798 30.2985 416.035 28.2609 418.102 28.2609C418.695 28.2609 419.288 28.2596 419.881 28.2583C421.066 28.2558 422.251 28.2533 423.437 28.2609C424.705 28.2691 425.561 28.6053 426.081 29.2354C426.577 29.8368 426.81 30.7564 426.735 32.0607ZM420.3 49.0983V45.3694H421.729V49.0983H420.3Z" fill="#222222" stroke="#222222" stroke-width="0.5"/>
<defs>
<linearGradient id="paint0_linear_844_305" x1="49.9756" y1="34.0251" x2="56.0258" y2="34.0251" gradientUnits="userSpaceOnUse">
<stop stop-color="#01E5E3"/>
<stop offset="0.04" stop-color="#05D7E5"/>
<stop offset="0.19" stop-color="#15AEED"/>
<stop offset="0.35" stop-color="#228BF3"/>
<stop offset="0.5" stop-color="#2C71F8"/>
<stop offset="0.66" stop-color="#335EFC"/>
<stop offset="0.83" stop-color="#3752FE"/>
<stop offset="1" stop-color="#394FFF"/>
</linearGradient>
<linearGradient id="paint1_linear_844_305" x1="39.2983" y1="52.495" x2="66.6983" y2="52.495" gradientUnits="userSpaceOnUse">
<stop stop-color="#01E5E3"/>
<stop offset="0.02" stop-color="#04DCE4"/>
<stop offset="0.14" stop-color="#14B1EC"/>
<stop offset="0.26" stop-color="#218EF3"/>
<stop offset="0.38" stop-color="#2B72F8"/>
<stop offset="0.5" stop-color="#335EFC"/>
<stop offset="0.63" stop-color="#3752FE"/>
<stop offset="0.75" stop-color="#394FFF"/>
</linearGradient>
</defs>
</svg>
