<svg width="26" height="26" viewBox="0 0 40 40" fill="none" xmlns="http://www.w3.org/2000/svg">
<g clip-path="url(#clip0_504_499)">
<path fill-rule="evenodd" clip-rule="evenodd" d="M20.0001 9.72969C14.3279 9.72969 9.72982 14.3278 9.72982 20C9.72982 25.672 14.3279 30.2702 20.0001 30.2702C25.6722 30.2702 30.2703 25.672 30.2703 20C30.2703 14.3278 25.6722 9.72969 20.0001 9.72969ZM20.0001 26.6666C16.3182 26.6666 13.3334 23.6818 13.3334 20C13.3334 16.318 16.3182 13.3333 20.0001 13.3333C23.6819 13.3333 26.6667 16.318 26.6667 20C26.6667 23.6818 23.6819 26.6666 20.0001 26.6666Z" fill="white"/>
<path d="M30.676 11.7239C32.0014 11.7239 33.076 10.6494 33.076 9.3239C33.076 7.99843 32.0014 6.92398 30.676 6.92398C29.3505 6.92398 28.276 7.99843 28.276 9.3239C28.276 10.6494 29.3505 11.7239 30.676 11.7239Z" fill="white"/>
<path fill-rule="evenodd" clip-rule="evenodd" d="M20 0C14.5683 0 13.8872 0.0230469 11.754 0.120391C9.62523 0.2175 8.17133 0.555547 6.89914 1.05C5.58398 1.56109 4.46859 2.245 3.3568 3.35687C2.24492 4.46867 1.56102 5.58406 1.04992 6.89922C0.555469 8.17133 0.217422 9.62523 0.120312 11.754C0.0229687 13.8872 0 14.5683 0 20C0 25.4316 0.0229687 26.1127 0.120312 28.2459C0.217422 30.3746 0.555469 31.8285 1.04992 33.1006C1.56102 34.4158 2.24492 35.5312 3.3568 36.6431C4.46859 37.7549 5.58398 38.4388 6.89914 38.9499C8.17133 39.4443 9.62523 39.7824 11.754 39.8795C13.8872 39.9768 14.5683 39.9998 20 39.9998C25.4316 39.9998 26.1127 39.9768 28.2459 39.8795C30.3746 39.7824 31.8285 39.4443 33.1006 38.9499C34.4158 38.4388 35.5312 37.7549 36.6431 36.6431C37.7549 35.5312 38.4388 34.4158 38.9499 33.1006C39.4443 31.8285 39.7824 30.3746 39.8795 28.2459C39.9768 26.1127 39.9998 25.4316 39.9998 20C39.9998 14.5683 39.9768 13.8872 39.8795 11.754C39.7824 9.62523 39.4443 8.17133 38.9499 6.89922C38.4388 5.58406 37.7549 4.46867 36.6431 3.35687C35.5312 2.245 34.4158 1.56109 33.1006 1.05C31.8285 0.555547 30.3746 0.2175 28.2459 0.120391C26.1127 0.0230469 25.4316 0 20 0ZM20 3.60367C25.3402 3.60367 25.9727 3.62398 28.0816 3.72023C30.0316 3.80922 31.0905 4.135 31.7953 4.40883C32.7288 4.77164 33.3951 5.20508 34.0949 5.90492C34.7948 6.60476 35.2282 7.27109 35.591 8.20453C35.8649 8.9093 36.1907 9.96828 36.2797 11.9182C36.3759 14.0272 36.3962 14.6598 36.3962 20C36.3962 25.3402 36.3759 25.9727 36.2797 28.0816C36.1907 30.0316 35.8649 31.0905 35.591 31.7953C35.2282 32.7288 34.7948 33.3951 34.0949 34.0949C33.3951 34.7948 32.7288 35.2282 31.7953 35.591C31.0905 35.8649 30.0316 36.1907 28.0816 36.2796C25.973 36.3759 25.3405 36.3962 20 36.3962C14.6593 36.3962 14.027 36.3759 11.9182 36.2796C9.96828 36.1907 8.9093 35.8649 8.20453 35.591C7.27101 35.2282 6.60476 34.7948 5.90484 34.0949C5.205 33.3951 4.77156 32.7288 4.40883 31.7953C4.13492 31.0905 3.80914 30.0316 3.72016 28.0816C3.62391 25.9727 3.60359 25.3402 3.60359 20C3.60359 14.6598 3.62391 14.0272 3.72016 11.9182C3.80914 9.96828 4.13492 8.9093 4.40883 8.20453C4.77156 7.27109 5.205 6.60476 5.90484 5.90492C6.60476 5.20508 7.27101 4.77164 8.20453 4.40883C8.9093 4.135 9.96828 3.80922 11.9182 3.72023C14.0272 3.62398 14.6598 3.60367 20 3.60367Z" fill="white"/>
</g>
<defs>
<clipPath id="clip0_504_499">
<rect width="40" height="40" fill="white"/>
</clipPath>
</defs>
</svg>
