<svg width="50" height="48" viewBox="0 0 50 48" fill="none" xmlns="http://www.w3.org/2000/svg">
<path opacity="0.3" d="M25 7.37894V47.1679C25.422 47.1679 25.8688 47.0935 26.2163 46.8949L26.3155 46.8452C31.0813 44.239 39.3965 41.5086 44.7828 40.7888L45.5026 40.6895C47.8855 40.3916 49.8216 38.1577 49.8216 35.7748V5.79034C49.8216 2.83657 47.4139 0.602658 44.4601 0.850874C39.2476 1.27284 31.3543 3.904 26.9361 6.65919L26.3155 7.03142C25.9432 7.25481 25.4716 7.37894 25 7.37894Z" fill="#0055FF"/>
<path d="M0.178467 5.81477V35.7743C0.178467 38.1572 2.11452 40.3912 4.49739 40.689L5.31656 40.7883C10.7277 41.5081 19.0677 44.2633 23.8334 46.8944C24.1561 47.093 24.5532 47.1677 25 47.1677V7.37853C24.5284 7.37853 24.0568 7.2544 23.6845 7.031L23.2625 6.75799C18.8443 3.97798 10.9262 1.32209 5.71363 0.875305H5.5647C2.61093 0.62709 0.178467 2.83618 0.178467 5.81477Z" fill="#0055FF"/>
<path d="M42.3751 1.12413V11.7725C42.3751 12.7654 41.2829 13.3611 40.439 12.815L37.4108 10.8045L34.3826 12.815C33.5634 13.3611 32.4465 12.7654 32.4465 11.7725V3.95369C35.6981 2.66297 39.322 1.62056 42.3751 1.12413Z" fill="#0055FF"/>
</svg>
