<svg width="46" height="52" viewBox="0 0 46 52" fill="none" xmlns="http://www.w3.org/2000/svg">
<path d="M34.6752 6.17756V2.34336C34.6752 1.33566 33.8396 0.5 32.8318 0.5C31.8241 0.5 30.9885 1.33566 30.9885 2.34336V6.03009H15.0127V2.34336C15.0127 1.33566 14.1771 0.5 13.1694 0.5C12.1617 0.5 11.326 1.33566 11.326 2.34336V6.17756C4.68988 6.79202 1.47014 10.7491 0.978575 16.6233C0.929419 17.3361 1.5193 17.9259 2.20749 17.9259H43.7937C44.5065 17.9259 45.0964 17.3115 45.0226 16.6233C44.5311 10.7491 41.3113 6.79202 34.6752 6.17756Z" fill="#0055FF"/>
<path opacity="0.3" d="M42.6626 21.6129C44.0144 21.6129 45.1205 22.7189 45.1205 24.0707V39.2109C45.1205 46.5844 41.4337 51.5 32.8314 51.5H13.1688C4.56643 51.5 0.8797 46.5844 0.8797 39.2109V24.0707C0.8797 22.7189 1.98572 21.6129 3.33752 21.6129H42.6626Z" fill="#0055FF"/>
<path opacity="0.4" d="M14.3975 34.2948C13.7585 34.2948 13.1195 34.0244 12.6525 33.582C12.2101 33.115 11.9397 32.476 11.9397 31.8369C11.9397 31.1979 12.2101 30.5589 12.6525 30.0919C13.3407 29.4037 14.4221 29.1825 15.3315 29.5757C15.651 29.6986 15.9214 29.8707 16.1426 30.0919C16.585 30.5589 16.8553 31.1979 16.8553 31.8369C16.8553 32.476 16.585 33.115 16.1426 33.582C15.6756 34.0244 15.0366 34.2948 14.3975 34.2948Z" fill="#0055FF"/>
<path opacity="0.4" d="M23.0001 34.2948C22.361 34.2948 21.722 34.0244 21.255 33.582C20.8126 33.115 20.5422 32.476 20.5422 31.8369C20.5422 31.1979 20.8126 30.5589 21.255 30.0919C21.4762 29.8707 21.7466 29.6986 22.0661 29.5757C22.9755 29.1825 24.0569 29.4037 24.7451 30.0919C25.1875 30.5589 25.4579 31.1979 25.4579 31.8369C25.4579 32.476 25.1875 33.115 24.7451 33.582C24.6222 33.6803 24.4993 33.7786 24.3764 33.8769C24.229 33.9752 24.0815 34.049 23.934 34.0981C23.7866 34.1719 23.6391 34.221 23.4916 34.2456C23.3196 34.2702 23.1721 34.2948 23.0001 34.2948Z" fill="#0055FF"/>
<path d="M31.6022 34.295C30.9632 34.295 30.3242 34.0247 29.8572 33.5823C29.4148 33.1153 29.1444 32.4762 29.1444 31.8372C29.1444 31.1982 29.4148 30.5591 29.8572 30.0922C30.103 29.871 30.3487 29.6989 30.6683 29.576C31.1107 29.3794 31.6022 29.3302 32.0938 29.4286C32.2413 29.4531 32.3887 29.5023 32.5362 29.576C32.6837 29.6252 32.8311 29.6989 32.9786 29.7972C33.1015 29.8955 33.2244 29.9938 33.3473 30.0922C33.7897 30.5591 34.06 31.1982 34.06 31.8372C34.06 32.4762 33.7897 33.1153 33.3473 33.5823C33.2244 33.6806 33.1015 33.7789 32.9786 33.8772C32.8311 33.9755 32.6837 34.0493 32.5362 34.0984C32.3887 34.1721 32.2413 34.2213 32.0938 34.2459C31.9217 34.2705 31.7497 34.295 31.6022 34.295Z" fill="#0055FF"/>
<path opacity="0.4" d="M14.3975 42.8974C14.078 42.8974 13.7585 42.8237 13.4635 42.7008C13.144 42.5779 12.8982 42.4058 12.6525 42.1846C12.2101 41.7176 11.9397 41.0786 11.9397 40.4396C11.9397 39.8005 12.2101 39.1615 12.6525 38.6945C12.8982 38.4733 13.144 38.3013 13.4635 38.1784C13.906 37.9817 14.3975 37.9326 14.8891 38.0309C15.0365 38.0555 15.184 38.1046 15.3315 38.1784C15.479 38.2275 15.6264 38.3013 15.7739 38.3996L16.1426 38.6945C16.585 39.1615 16.8553 39.8005 16.8553 40.4396C16.8553 41.0786 16.585 41.7176 16.1426 42.1846C16.0197 42.2829 15.8968 42.4058 15.7739 42.4796C15.6264 42.5779 15.479 42.6516 15.3315 42.7008C15.184 42.7745 15.0365 42.8237 14.8891 42.8482C14.717 42.8728 14.5696 42.8974 14.3975 42.8974Z" fill="#0055FF"/>
<path opacity="0.4" d="M23.0001 42.8971C22.361 42.8971 21.722 42.6268 21.255 42.1844C20.8126 41.7174 20.5422 41.0784 20.5422 40.4393C20.5422 39.8003 20.8126 39.1615 21.255 38.6945C22.1644 37.7851 23.8357 37.7851 24.7451 38.6945C25.1875 39.1615 25.4579 39.8003 25.4579 40.4393C25.4579 41.0784 25.1875 41.7174 24.7451 42.1844C24.2781 42.6268 23.6391 42.8971 23.0001 42.8971Z" fill="#0055FF"/>
<path d="M31.6022 42.8971C30.9632 42.8971 30.3242 42.6268 29.8572 42.1844C29.4148 41.7174 29.1444 41.0784 29.1444 40.4393C29.1444 39.8003 29.4148 39.1615 29.8572 38.6945C30.7666 37.7851 32.4379 37.7851 33.3473 38.6945C33.7897 39.1615 34.06 39.8003 34.06 40.4393C34.06 41.0784 33.7897 41.7174 33.3473 42.1844C32.8803 42.6268 32.2413 42.8971 31.6022 42.8971Z" fill="#0055FF"/>
</svg>
