<svg width="50" height="52" viewBox="0 0 50 52" fill="none" xmlns="http://www.w3.org/2000/svg">
<path opacity="0.3" d="M16.8332 31.7726H5.38007C2.68234 31.7726 0.475098 33.9798 0.475098 36.6776V51.3925H16.8332V31.7726Z" fill="#0055FF"/>
<path d="M28.2623 21.9626H21.7142C19.0163 21.9626 16.8091 24.1699 16.8091 26.8676V51.3925H33.1673V26.8676C33.1673 24.1699 30.9846 21.9626 28.2623 21.9626Z" fill="#0055FF"/>
<path opacity="0.3" d="M44.6201 39.1301H33.167V51.3925H49.5251V44.035C49.5251 41.3373 47.3179 39.1301 44.6201 39.1301Z" fill="#0055FF"/>
<path d="M32.3812 9.3323C33.1415 8.57203 33.4358 7.6646 33.1905 6.87981C32.9453 6.09501 32.185 5.53096 31.1059 5.35929L28.7515 4.96687C28.6534 4.94234 28.4327 4.79517 28.3836 4.69707L27.0838 2.09743C26.1028 0.110915 23.8711 0.110915 22.8901 2.09743L21.5903 4.69707C21.5412 4.79517 21.3205 4.94234 21.2224 4.96687L18.8679 5.35929C17.7888 5.53096 17.0531 6.09501 16.7833 6.87981C16.5381 7.6646 16.8324 8.57203 17.5926 9.3323L19.4075 11.1717C19.4811 11.2452 19.5792 11.5396 19.5546 11.6377L19.0396 13.8939C18.6472 15.5616 19.2849 16.3218 19.7018 16.6407C20.1188 16.935 21.0262 17.3274 22.5222 16.4445L24.7294 15.1447C24.8275 15.0711 25.1464 15.0711 25.2445 15.1447L27.4517 16.4445C28.1384 16.8614 28.7025 16.9841 29.1439 16.9841C29.6589 16.9841 30.0268 16.7878 30.2475 16.6407C30.6645 16.3464 31.3021 15.5861 30.9097 13.8939L30.3947 11.6377C30.3702 11.515 30.4437 11.2452 30.5418 11.1717L32.3812 9.3323Z" fill="#0055FF"/>
</svg>
