<svg width="31" height="28" viewBox="0 0 31 28" fill="none" xmlns="http://www.w3.org/2000/svg">
<path opacity="0.3" d="M16.2903 3.81887C15.8991 4.0536 15.501 4.39723 15.501 4.85346V27.1447C15.501 27.5623 15.8682 27.9441 16.2307 27.737L16.2903 27.7072C19.1497 26.1434 24.1389 24.5052 27.3706 24.0733L27.8025 24.0137C29.2323 23.835 30.3939 22.4946 30.3939 21.0649V3.07422C30.3939 1.30196 28.9493 -0.0383882 27.177 0.110541C24.0495 0.363721 19.3136 1.94242 16.6626 3.59553L16.2903 3.81887Z" fill="#0055FF"/>
<path d="M0.607422 3.08888V21.0646C0.607422 22.4943 1.76906 23.8347 3.19878 24.0134L3.69027 24.073C6.93694 24.5049 11.941 26.158 14.8004 27.7367C15.1429 27.9474 15.5004 27.5746 15.5004 27.1724V4.85321C15.5004 4.39698 15.1022 4.05334 14.711 3.81862L14.4579 3.65481C11.8069 1.9868 7.05603 0.39327 3.92852 0.125198H3.83916C2.0669 -0.0237318 0.607422 1.30172 0.607422 3.08888Z" fill="#0055FF"/>
<path d="M22.1734 1.19037C24.1405 0.571473 25.9259 2.14615 25.9259 4.20834V6.66352C25.9259 7.25924 25.2706 7.61664 24.7643 7.28899C23.6633 6.558 22.2314 6.558 21.1304 7.28899C20.6389 7.61664 19.9688 7.25924 19.9688 6.66352V4.24392C19.9688 2.87256 20.8653 1.60194 22.1734 1.19037Z" fill="#0055FF"/>
</svg>
