<svg width="324" height="160" viewBox="0 0 324 160" fill="none" xmlns="http://www.w3.org/2000/svg">
<circle cx="263.5" cy="60" r="60" fill="white"/>
<path d="M242.364 54.224V55.408H245.227V53.072H246.939V63.424H245.227V59.84H242.364V61.072H235.755V54.224H242.364ZM240.683 59.696V55.6H237.435V59.696H240.683ZM237.659 62.464H239.372V65.616H247.26V67.008H237.659V62.464ZM245.227 58.464V56.784H242.364V58.464H245.227ZM258.996 56.352V53.056H260.708V60.816H258.996V57.744H256.548V56.352H258.996ZM248.884 59.696C249.972 59.3227 250.82 58.72 251.428 57.888C252.036 57.056 252.34 56.1493 252.34 55.168V55.152H249.38V53.792H256.996V55.152H254.068V55.168C254.068 56.0747 254.356 56.9227 254.932 57.712C255.519 58.4907 256.34 59.0613 257.396 59.424L256.548 60.768C255.78 60.5013 255.113 60.112 254.548 59.6C253.993 59.088 253.556 58.48 253.236 57.776C252.916 58.544 252.457 59.216 251.86 59.792C251.273 60.368 250.569 60.7947 249.748 61.072L248.884 59.696ZM251.428 61.424H253.124V62.928H259.012V61.424H260.708V67.104H251.428V61.424ZM259.012 65.728V64.272H253.124V65.728H259.012ZM277.948 53.056V67.28H276.22V53.056H277.948ZM266.268 63.408C268.092 62.5227 269.462 61.472 270.38 60.256C271.297 59.0293 271.83 57.584 271.98 55.92H266.988V54.544H273.74C273.74 56.816 273.233 58.8053 272.22 60.512C271.206 62.208 269.526 63.6267 267.18 64.768L266.268 63.408ZM291.092 53.056V57.168H293.076V58.576H291.092V63.312H289.364V53.056H291.092ZM279.924 60.464C281.535 60.0053 282.815 59.344 283.764 58.48C284.713 57.616 285.263 56.6293 285.412 55.52H280.532V54.128H287.268C287.268 56.0053 286.692 57.6053 285.54 58.928C284.388 60.24 282.756 61.2107 280.644 61.84L279.924 60.464ZM282.052 62.272H283.78V65.616H291.652V67.008H282.052V62.272Z" fill="#0055FF"/>
<line x1="249.5" y1="157" x2="277.5" y2="157" stroke="#0055FF" stroke-width="6"/>
<circle cx="60" cy="60" r="60" fill="#0055FF"/>
<path d="M21.1394 60.704V63.008C22.5367 62.9227 23.7474 62.8 24.7714 62.64L24.8994 63.904C23.5234 64.1707 22.1047 64.3413 20.6434 64.416C19.182 64.4907 17.5874 64.528 15.8594 64.528L15.6674 63.12C17.2567 63.12 18.5047 63.104 19.4114 63.072V60.704H21.1394ZM16.0034 59.808C17.038 59.5307 17.8487 59.0667 18.4354 58.416C19.0327 57.7547 19.358 57.008 19.4114 56.176H16.3874V54.8H19.4114V53.168H21.1394V54.8H24.1954V56.176H21.1394C21.1927 56.976 21.518 57.6907 22.1154 58.32C22.7234 58.9493 23.5394 59.4027 24.5634 59.68L23.7794 61.008C22.958 60.784 22.254 60.4373 21.6674 59.968C21.0807 59.4987 20.622 58.9387 20.2914 58.288C19.9714 58.9707 19.5127 59.5573 18.9154 60.048C18.3287 60.5387 17.6194 60.9067 16.7874 61.152L16.0034 59.808ZM25.6194 53.04H27.3314V67.312H25.6194V53.04ZM36.6518 58.16V59.984H42.2358V61.36H29.3878V59.984H34.9398V58.16H36.6518ZM30.0118 57.552C30.8544 57.4773 31.6064 57.3227 32.2678 57.088C32.9398 56.8427 33.4731 56.544 33.8678 56.192C34.2624 55.84 34.5078 55.4613 34.6038 55.056H30.5558V53.696H41.0838V55.056H37.0358C37.1744 55.6747 37.6544 56.2187 38.4758 56.688C39.2971 57.1467 40.3478 57.4347 41.6278 57.552L41.0358 58.912C39.7664 58.7733 38.6731 58.464 37.7558 57.984C36.8491 57.504 36.2038 56.9013 35.8198 56.176C35.4358 56.912 34.7904 57.52 33.8838 58C32.9771 58.4693 31.8838 58.7733 30.6038 58.912L30.0118 57.552ZM30.8918 64.8C30.8918 64 31.3238 63.3867 32.1878 62.96C33.0518 62.5227 34.2571 62.304 35.8038 62.304C37.3398 62.304 38.5398 62.5227 39.4038 62.96C40.2678 63.3867 40.6998 64 40.6998 64.8C40.6998 65.5893 40.2678 66.1973 39.4038 66.624C38.5398 67.0507 37.3398 67.264 35.8038 67.264C34.2464 67.264 33.0358 67.0507 32.1718 66.624C31.3184 66.1973 30.8918 65.5893 30.8918 64.8ZM32.6198 64.8C32.6198 65.1947 32.8918 65.4933 33.4358 65.696C33.9798 65.888 34.7691 65.984 35.8038 65.984C36.8278 65.984 37.6064 65.888 38.1398 65.696C38.6838 65.4933 38.9558 65.1947 38.9558 64.8C38.9558 64.4053 38.6838 64.112 38.1398 63.92C37.6064 63.7173 36.8278 63.616 35.8038 63.616C34.7691 63.616 33.9798 63.7173 33.4358 63.92C32.8918 64.112 32.6198 64.4053 32.6198 64.8ZM57.7956 53.056V56.56H59.7636V57.984H57.7956V61.36H56.0676V53.056H57.7956ZM46.6756 54.384H50.0196V52.928H51.7316V54.384H55.0596V55.76H46.6756V54.384ZM47.4276 58.752C47.4276 58.2613 47.5716 57.824 47.8596 57.44C48.1476 57.056 48.553 56.7627 49.0756 56.56C49.5983 56.3467 50.1956 56.24 50.8676 56.24C51.5503 56.24 52.153 56.3467 52.6756 56.56C53.1983 56.7627 53.6036 57.056 53.8916 57.44C54.1903 57.824 54.3396 58.2613 54.3396 58.752C54.3396 59.2533 54.1903 59.696 53.8916 60.08C53.6036 60.4533 53.1983 60.7467 52.6756 60.96C52.153 61.1627 51.5503 61.264 50.8676 61.264C49.8436 61.264 49.0116 61.0347 48.3716 60.576C47.7423 60.1173 47.4276 59.5093 47.4276 58.752ZM48.6756 61.936H50.3716V63.2H56.0836V61.936H57.7956V67.104H48.6756V61.936ZM49.0596 58.752C49.0596 59.136 49.225 59.44 49.5556 59.664C49.8863 59.888 50.3236 60 50.8676 60C51.4223 60 51.8596 59.888 52.1796 59.664C52.5103 59.44 52.6756 59.136 52.6756 58.752C52.6756 58.368 52.5103 58.0693 52.1796 57.856C51.849 57.632 51.4116 57.52 50.8676 57.52C50.3236 57.52 49.8863 57.632 49.5556 57.856C49.225 58.0693 49.0596 58.368 49.0596 58.752ZM56.0836 65.744V64.512H50.3716V65.744H56.0836ZM67.932 53.968C67.932 54.48 67.884 54.976 67.788 55.456H70.524V53.056H72.252V61.52H70.524V59.856H67.164V58.464H70.524V56.832H67.372C66.892 57.9307 66.1347 58.8693 65.1 59.648C64.0653 60.4267 62.7907 61.0187 61.276 61.424L60.62 60.08C62.2413 59.6533 63.5213 59.0293 64.46 58.208C65.3987 57.376 65.9427 56.4213 66.092 55.344H61.372V53.968H67.932ZM62.636 62.128H72.252V67.232H70.524V63.488H62.636V62.128ZM79.9239 53.664V55.504H83.2519V53.664H84.9479V59.872H78.2279V53.664H79.9239ZM79.6199 60.928H88.8519V64.64H81.3479V65.808H89.3159V67.168H79.6519V63.376H87.1559V62.272H79.6199V60.928ZM83.2519 58.512V56.8H79.9239V58.512H83.2519ZM87.1399 53.056H88.8519V55.936H90.8199V57.344H88.8519V60.336H87.1399V53.056ZM94.8443 64.24V61.28H92.6203V59.904H94.6043V55.632H92.5563V54.256H103.276V55.632H101.212V59.904H103.228V61.28H100.988V64.24H104.38V65.632H91.5003V64.24H94.8443ZM99.5003 59.904V55.632H96.3323V59.904H99.5003ZM99.2763 64.24V61.28H96.5563V64.24H99.2763Z" fill="white"/>
<line x1="46" y1="157" x2="74" y2="157" stroke="#0055FF" stroke-width="6"/>
<g clip-path="url(#clip0_865_280)">
<path d="M175.833 73.3333L149.166 73.3333L159.166 84" stroke="#0055FF" stroke-width="1.92" stroke-linecap="round"/>
</g>
<defs>
<clipPath id="clip0_865_280">
<rect width="32" height="32" fill="white" transform="translate(178.5 92) rotate(-180)"/>
</clipPath>
</defs>
</svg>
