<svg width="31" height="31" viewBox="0 0 31 31" fill="none" xmlns="http://www.w3.org/2000/svg">
<path opacity="0.3" d="M10.599 24.7495C10.599 21.4987 7.9638 18.8635 4.71307 18.8635H3.72717C2.10852 18.8635 0.78418 20.1878 0.78418 21.8065V25.728C0.78418 28.4383 2.98131 30.6354 5.69161 30.6354C8.40191 30.6354 10.599 28.4383 10.599 25.728V24.7495Z" fill="#0055FF"/>
<path d="M17.4569 12.9775H13.528C11.9093 12.9775 10.585 14.3019 10.585 15.9205V25.728C10.585 28.4383 12.7821 30.6355 15.4924 30.6355C18.2027 30.6355 20.3999 28.4383 20.3999 25.728V15.9205C20.3999 14.3019 19.0903 12.9775 17.4569 12.9775Z" fill="#0055FF"/>
<path opacity="0.3" d="M27.2713 23.278H24.0781C22.0464 23.278 20.3994 24.925 20.3994 26.9567C20.3994 28.9884 22.0464 30.6354 24.0781 30.6354H25.7998C28.2378 30.6354 30.2143 28.659 30.2143 26.221C30.2143 24.6023 28.8899 23.278 27.2713 23.278Z" fill="#0055FF"/>
<path d="M19.928 5.39934C20.3841 4.94318 20.5607 4.39873 20.4136 3.92785C20.2664 3.45697 19.8102 3.11854 19.1628 3.01554L17.7502 2.78008C17.6913 2.76537 17.5589 2.67706 17.5294 2.6182L16.7495 1.05842C16.1609 -0.133488 14.8219 -0.133488 14.2333 1.05842L13.4534 2.6182C13.424 2.67706 13.2915 2.76537 13.2327 2.78008L11.82 3.01554C11.1725 3.11854 10.7311 3.45697 10.5693 3.92785C10.4221 4.39873 10.5987 4.94318 11.0548 5.39934L12.1438 6.50296C12.1879 6.54711 12.2467 6.7237 12.232 6.78256L11.923 8.1363C11.6876 9.13692 12.0702 9.59307 12.3203 9.78436C12.5705 9.96094 13.115 10.1964 14.0126 9.66667L15.3369 8.88678C15.3958 8.84264 15.5871 8.84264 15.6459 8.88678L16.9703 9.66667C17.3823 9.91683 17.7207 9.9904 17.9856 9.9904C18.2946 9.9904 18.5153 9.87265 18.6478 9.78436C18.8979 9.60778 19.2805 9.15163 19.0451 8.1363L18.7361 6.78256C18.6966 6.5851 18.8958 6.4315 19.0382 6.28911L19.928 5.39934Z" fill="#0055FF"/>
</svg>
