<svg width="323" height="160" viewBox="0 0 323 160" fill="none" xmlns="http://www.w3.org/2000/svg">
<circle cx="60" cy="60" r="60" fill="white"/>
<path d="M25.7154 57.68V53.04H27.4274V67.312H25.7154V59.056H22.7394V57.68H25.7154ZM15.4754 62.976C16.2114 62.624 16.846 62.112 17.3794 61.44C17.9234 60.7573 18.3394 59.984 18.6274 59.12C18.9154 58.256 19.0594 57.376 19.0594 56.48V54.192H20.7874V56.48C20.7874 57.3653 20.926 58.224 21.2034 59.056C21.4807 59.888 21.8807 60.6293 22.4034 61.28C22.926 61.92 23.55 62.4053 24.2754 62.736L23.2674 64.112C22.4887 63.728 21.8167 63.1787 21.2514 62.464C20.686 61.7493 20.2434 60.912 19.9234 59.952C19.6034 60.9547 19.1554 61.84 18.5794 62.608C18.0034 63.376 17.326 63.9573 16.5474 64.352L15.4754 62.976ZM42.2678 61.456V62.832H39.1478V67.28H37.4358V62.832H34.2358V67.28H32.5238V62.832H29.3878V61.456H42.2678ZM30.8918 53.552H40.7478V57.488H32.6678V58.864H41.0998V60.256H30.9238V56.208H39.0198V54.928H30.8918V53.552ZM55.0756 54.448V55.888H51.9556V57.12C51.9556 57.9093 52.105 58.688 52.4036 59.456C52.7023 60.2133 53.1236 60.896 53.6676 61.504C54.2223 62.1013 54.8676 62.5547 55.6036 62.864L54.6436 64.224C53.833 63.8613 53.1236 63.328 52.5156 62.624C51.9076 61.92 51.4383 61.104 51.1076 60.176C50.777 61.1787 50.3023 62.0693 49.6836 62.848C49.0756 63.616 48.3663 64.192 47.5556 64.576L46.5796 63.232C47.305 62.8907 47.9396 62.3947 48.4836 61.744C49.0383 61.0933 49.465 60.3627 49.7636 59.552C50.0623 58.7413 50.2116 57.9307 50.2116 57.12V55.888H47.0916V54.448H55.0756ZM56.6436 53.056H58.3716V67.28H56.6436V53.056ZM72.268 53.056V63.856H70.54V62.576H67.772V61.376H70.54V53.056H72.268ZM60.364 59.472C62.188 59.4613 63.8307 59.4293 65.292 59.376C66.764 59.3227 68.1613 59.216 69.484 59.056L69.58 60.272C68.556 60.4427 67.3613 60.5813 65.996 60.688V63.424H64.284V60.784C63.1747 60.8373 61.9427 60.864 60.588 60.864L60.364 59.472ZM61.436 56.096C61.436 55.6053 61.5853 55.168 61.884 54.784C62.1827 54.4 62.5987 54.1067 63.132 53.904C63.676 53.6907 64.2893 53.584 64.972 53.584C65.6547 53.584 66.2627 53.6907 66.796 53.904C67.3293 54.1067 67.7453 54.4 68.044 54.784C68.3427 55.168 68.492 55.6053 68.492 56.096C68.492 56.5973 68.3427 57.04 68.044 57.424C67.7453 57.7973 67.3293 58.0907 66.796 58.304C66.2733 58.5067 65.6653 58.608 64.972 58.608C64.2787 58.608 63.6653 58.5067 63.132 58.304C62.5987 58.0907 62.1827 57.7973 61.884 57.424C61.5853 57.04 61.436 56.5973 61.436 56.096ZM62.252 62.816H63.98V65.616H72.604V67.008H62.252V62.816ZM63.068 56.096C63.068 56.48 63.2387 56.784 63.58 57.008C63.932 57.2213 64.396 57.328 64.972 57.328C65.5373 57.328 65.9907 57.2213 66.332 57.008C66.6733 56.784 66.844 56.48 66.844 56.096C66.844 55.7013 66.6733 55.392 66.332 55.168C65.9907 54.944 65.5373 54.832 64.972 54.832C64.4067 54.832 63.948 54.944 63.596 55.168C63.244 55.392 63.068 55.7013 63.068 56.096ZM89.4759 53.056V67.28H87.7479V53.056H89.4759ZM77.7959 63.408C79.6199 62.5227 80.9905 61.472 81.9079 60.256C82.8252 59.0293 83.3585 57.584 83.5079 55.92H78.5159V54.544H85.2679C85.2679 56.816 84.7612 58.8053 83.7479 60.512C82.7345 62.208 81.0545 63.6267 78.7079 64.768L77.7959 63.408ZM102.62 53.056V57.168H104.604V58.576H102.62V63.312H100.892V53.056H102.62ZM91.4523 60.464C93.0629 60.0053 94.3429 59.344 95.2923 58.48C96.2416 57.616 96.7909 56.6293 96.9403 55.52H92.0603V54.128H98.7963C98.7963 56.0053 98.2203 57.6053 97.0683 58.928C95.9163 60.24 94.2843 61.2107 92.1723 61.84L91.4523 60.464ZM93.5803 62.272H95.3083V65.616H103.18V67.008H93.5803V62.272Z" fill="#0055FF"/>
<line x1="46" y1="157" x2="74" y2="157" stroke="#0055FF" stroke-width="6"/>
<circle cx="262.5" cy="60" r="60" fill="#0055FF"/>
<path d="M244.239 52.68V48.04H245.951V62.312H244.239V54.056H241.263V52.68H244.239ZM233.999 57.976C234.735 57.624 235.37 57.112 235.903 56.44C236.447 55.7573 236.863 54.984 237.151 54.12C237.439 53.256 237.583 52.376 237.583 51.48V49.192H239.311V51.48C239.311 52.3653 239.45 53.224 239.727 54.056C240.004 54.888 240.404 55.6293 240.927 56.28C241.45 56.92 242.074 57.4053 242.799 57.736L241.791 59.112C241.012 58.728 240.34 58.1787 239.775 57.464C239.21 56.7493 238.767 55.912 238.447 54.952C238.127 55.9547 237.679 56.84 237.103 57.608C236.527 58.376 235.85 58.9573 235.071 59.352L233.999 57.976ZM260.791 56.456V57.832H257.671V62.28H255.959V57.832H252.759V62.28H251.047V57.832H247.911V56.456H260.791ZM249.415 48.552H259.271V52.488H251.191V53.864H259.623V55.256H249.447V51.208H257.543V49.928H249.415V48.552ZM276.319 48.056V51.56H278.287V52.984H276.319V56.36H274.591V48.056H276.319ZM265.199 49.384H268.543V47.928H270.255V49.384H273.583V50.76H265.199V49.384ZM265.951 53.752C265.951 53.2613 266.095 52.824 266.383 52.44C266.671 52.056 267.076 51.7627 267.599 51.56C268.122 51.3467 268.719 51.24 269.391 51.24C270.074 51.24 270.676 51.3467 271.199 51.56C271.722 51.7627 272.127 52.056 272.415 52.44C272.714 52.824 272.863 53.2613 272.863 53.752C272.863 54.2533 272.714 54.696 272.415 55.08C272.127 55.4533 271.722 55.7467 271.199 55.96C270.676 56.1627 270.074 56.264 269.391 56.264C268.367 56.264 267.535 56.0347 266.895 55.576C266.266 55.1173 265.951 54.5093 265.951 53.752ZM267.199 56.936H268.895V58.2H274.607V56.936H276.319V62.104H267.199V56.936ZM267.583 53.752C267.583 54.136 267.748 54.44 268.079 54.664C268.41 54.888 268.847 55 269.391 55C269.946 55 270.383 54.888 270.703 54.664C271.034 54.44 271.199 54.136 271.199 53.752C271.199 53.368 271.034 53.0693 270.703 52.856C270.372 52.632 269.935 52.52 269.391 52.52C268.847 52.52 268.41 52.632 268.079 52.856C267.748 53.0693 267.583 53.368 267.583 53.752ZM274.607 60.744V59.512H268.895V60.744H274.607ZM286.455 48.968C286.455 49.48 286.407 49.976 286.311 50.456H289.047V48.056H290.775V56.52H289.047V54.856H285.687V53.464H289.047V51.832H285.895C285.415 52.9307 284.658 53.8693 283.623 54.648C282.589 55.4267 281.314 56.0187 279.799 56.424L279.143 55.08C280.765 54.6533 282.045 54.0293 282.983 53.208C283.922 52.376 284.466 51.4213 284.615 50.344H279.895V48.968H286.455ZM281.159 57.128H290.775V62.232H289.047V58.488H281.159V57.128ZM251.763 72.664V74.504H255.091V72.664H256.787V78.872H250.067V72.664H251.763ZM251.459 79.928H260.691V83.64H253.187V84.808H261.155V86.168H251.491V82.376H258.995V81.272H251.459V79.928ZM255.091 77.512V75.8H251.763V77.512H255.091ZM258.979 72.056H260.691V74.936H262.659V76.344H260.691V79.336H258.979V72.056ZM266.683 83.24V80.28H264.459V78.904H266.443V74.632H264.395V73.256H275.115V74.632H273.051V78.904H275.067V80.28H272.827V83.24H276.219V84.632H263.339V83.24H266.683ZM271.339 78.904V74.632H268.171V78.904H271.339ZM271.115 83.24V80.28H268.395V83.24H271.115Z" fill="white"/>
<line x1="248.5" y1="157" x2="276.5" y2="157" stroke="#0055FF" stroke-width="6"/>
<path d="M148.666 62.6667H175.333L165.333 52" stroke="#0055FF" stroke-width="1.92" stroke-linecap="round"/>
</svg>
