<svg width="27" height="32" viewBox="0 0 27 32" fill="none" xmlns="http://www.w3.org/2000/svg">
<path d="M22.7476 4.59646C21.5266 4.13996 20.5058 3.1095 20.5058 1.80602C20.5058 1.20139 20.0044 0.699997 19.3998 0.699997C18.7952 0.699997 18.2938 1.20139 18.2938 1.80602C18.2938 3.02769 17.3034 4.01805 16.0818 4.01805H10.9204C9.69871 4.01805 8.70834 3.02769 8.70834 1.80602C8.70834 1.20139 8.20695 0.699997 7.60232 0.699997C6.9977 0.699997 6.49631 1.20139 6.49631 1.80602C6.49631 3.1095 5.4755 4.13995 4.25457 4.59646C1.77523 5.52348 0.520834 7.58985 0.287853 10.374C0.258359 10.8016 0.612286 11.1556 1.0252 11.1556H25.9769C26.4046 11.1556 26.7585 10.7869 26.7143 10.374C26.4813 7.58985 25.2269 5.52348 22.7476 4.59646Z" fill="#0055FF"/>
<path opacity="0.3" d="M25.2983 13.3677C26.1094 13.3677 26.773 14.0313 26.773 14.8424V23.9265C26.773 28.3506 24.5609 31.3 19.3995 31.3H7.60197C2.44055 31.3 0.228516 28.3506 0.228516 23.9265V14.8424C0.228516 14.0313 0.892127 13.3677 1.70321 13.3677H25.2983Z" fill="#0055FF"/>
<path opacity="0.4" d="M8.33944 20.9769C7.95602 20.9769 7.5726 20.8146 7.29241 20.5492C7.02696 20.269 6.86475 19.8856 6.86475 19.5022C6.86475 19.1187 7.02696 18.7353 7.29241 18.4551C7.70532 18.0422 8.35418 17.9095 8.89982 18.1455C9.09153 18.2192 9.25375 18.3224 9.38647 18.4551C9.65191 18.7353 9.81413 19.1187 9.81413 19.5022C9.81413 19.8856 9.65191 20.269 9.38647 20.5492C9.10628 20.8146 8.72286 20.9769 8.33944 20.9769Z" fill="#0055FF"/>
<path opacity="0.4" d="M13.5011 20.9769C13.1176 20.9769 12.7342 20.8146 12.454 20.5492C12.1886 20.269 12.0264 19.8856 12.0264 19.5022C12.0264 19.1187 12.1886 18.7353 12.454 18.4551C12.5868 18.3224 12.749 18.2192 12.9407 18.1455C13.4863 17.9095 14.1352 18.0422 14.5481 18.4551C14.8135 18.7353 14.9758 19.1187 14.9758 19.5022C14.9758 19.8856 14.8135 20.269 14.5481 20.5492C14.4744 20.6082 14.4006 20.6672 14.3269 20.7262C14.3222 20.7293 14.3175 20.7324 14.3128 20.7354C14.156 20.8372 13.9805 20.9166 13.796 20.9474C13.6928 20.9621 13.6043 20.9769 13.5011 20.9769Z" fill="#0055FF"/>
<path d="M18.6622 20.977C18.2788 20.977 17.8954 20.8148 17.6152 20.5494C17.3497 20.2692 17.1875 19.8857 17.1875 19.5023C17.1875 19.1189 17.3497 18.7355 17.6152 18.4553C17.7626 18.3226 17.9101 18.2193 18.1018 18.1456C18.3673 18.0276 18.6622 17.9981 18.9571 18.0571C19.1416 18.0879 19.3171 18.1673 19.474 18.2691C19.4787 18.2721 19.4833 18.2752 19.488 18.2783C19.5618 18.3373 19.6355 18.3963 19.7092 18.4553C19.9747 18.7355 20.1369 19.1189 20.1369 19.5023C20.1369 19.8857 19.9747 20.2692 19.7092 20.5494C19.6355 20.6083 19.5618 20.6673 19.488 20.7263C19.4833 20.7294 19.4787 20.7325 19.474 20.7356C19.3171 20.8374 19.1416 20.9168 18.9571 20.9475C18.8539 20.9623 18.7507 20.977 18.6622 20.977Z" fill="#0055FF"/>
<path opacity="0.4" d="M8.33944 26.1384C8.14773 26.1384 7.95602 26.0942 7.77905 26.0204C7.58734 25.9467 7.43988 25.8435 7.29241 25.7108C7.02696 25.4306 6.86475 25.0472 6.86475 24.6637C6.86475 24.2803 7.02696 23.8969 7.29241 23.6167C7.43988 23.484 7.58734 23.3808 7.77905 23.307C8.0445 23.189 8.33944 23.1595 8.63438 23.2185C8.81883 23.2493 8.99437 23.3287 9.15122 23.4305C9.1559 23.4335 9.16058 23.4366 9.16527 23.4397L9.38647 23.6167C9.65191 23.8969 9.81413 24.2803 9.81413 24.6637C9.81413 25.0472 9.65191 25.4306 9.38647 25.7108C9.31273 25.7698 9.239 25.8435 9.16527 25.8877C9.16058 25.8908 9.1559 25.8939 9.15122 25.897C8.99437 25.9988 8.81883 26.0782 8.63438 26.1089C8.53115 26.1237 8.44267 26.1384 8.33944 26.1384Z" fill="#0055FF"/>
<path opacity="0.4" d="M13.5011 26.1383C13.1176 26.1383 12.7342 25.9761 12.454 25.7106C12.1886 25.4304 12.0264 25.047 12.0264 24.6636C12.0264 24.2802 12.1886 23.8969 12.454 23.6167C12.9997 23.0711 14.0025 23.0711 14.5481 23.6167C14.8135 23.8969 14.9758 24.2802 14.9758 24.6636C14.9758 25.047 14.8135 25.4304 14.5481 25.7106C14.2679 25.9761 13.8845 26.1383 13.5011 26.1383Z" fill="#0055FF"/>
<path d="M18.6622 26.1383C18.2788 26.1383 17.8954 25.9761 17.6152 25.7106C17.3497 25.4304 17.1875 25.047 17.1875 24.6636C17.1875 24.2802 17.3497 23.8969 17.6152 23.6167C18.1608 23.0711 19.1636 23.0711 19.7092 23.6167C19.9747 23.8969 20.1369 24.2802 20.1369 24.6636C20.1369 25.047 19.9747 25.4304 19.7092 25.7106C19.429 25.9761 19.0456 26.1383 18.6622 26.1383Z" fill="#0055FF"/>
</svg>
