<svg width="173" height="217" viewBox="0 0 173 217" fill="none" xmlns="http://www.w3.org/2000/svg">
<circle cx="86.5" cy="86" r="86" fill="#0055FF"/>
<path d="M34.9892 88.56V91.18C33.3892 91.24 31.8692 91.24 30.5692 91.24L30.8892 93.5C33.9892 93.5 38.2092 93.46 42.0892 92.68L41.8892 90.66C40.5692 90.84 39.1892 90.98 37.8092 91.06V88.56H34.9892ZM30.8892 86.92L32.1492 89.1C34.2492 88.56 35.6292 87.38 36.4092 85.9C37.2292 87.32 38.6092 88.42 40.6692 88.94L41.9092 86.8C39.2292 86.12 38.0092 84.56 37.8292 82.94H41.3492V80.74H37.8092V78.84H34.9892V80.74H31.4492V82.94H34.9492C34.7692 84.62 33.5892 86.26 30.8892 86.92ZM42.8492 96.78H45.6292V78.66H42.8492V96.78ZM54.7097 85.18V87.26H47.9897V89.46H64.3097V87.26H57.5297V85.18H54.7097ZM48.6297 84.04L49.5897 86.24C53.0697 85.92 55.2297 84.68 56.1697 83C57.0897 84.68 59.2497 85.92 62.7297 86.24L63.6697 84.04C60.3497 83.76 58.7697 82.7 58.2697 81.62H62.8697V79.44H49.4697V81.62H54.0297C53.5497 82.68 51.9497 83.76 48.6297 84.04ZM49.8297 93.56C49.8297 95.62 52.1697 96.76 56.1097 96.76C60.0497 96.76 62.3897 95.62 62.3897 93.56C62.3897 91.52 60.0497 90.36 56.1097 90.36C52.1697 90.36 49.8297 91.52 49.8297 93.56ZM52.6497 93.56C52.6497 92.78 53.7697 92.44 56.1097 92.44C58.4697 92.44 59.5697 92.78 59.5697 93.56C59.5697 94.36 58.4697 94.68 56.1097 94.68C53.7697 94.68 52.6497 94.36 52.6497 93.56ZM81.5395 78.68V89.26H84.3395V85.24H86.6795V82.94H84.3395V78.68H81.5395ZM70.0795 82.38H80.6795V80.18H76.7795V78.54H73.9795V80.18H70.0795V82.38ZM70.9395 85.98C70.9395 87.9 72.7595 89.18 75.3995 89.18C78.0195 89.18 79.8595 87.9 79.8595 85.98C79.8595 84.08 78.0195 82.78 75.3995 82.78C72.7595 82.78 70.9395 84.08 70.9395 85.98ZM72.4995 96.56H84.3395V89.94H81.5595V91.2H75.2795V89.94H72.4995V96.56ZM73.6195 85.98C73.6195 85.2 74.3395 84.82 75.3995 84.82C76.4395 84.82 77.1595 85.2 77.1595 85.98C77.1595 86.78 76.4395 87.16 75.3995 87.16C74.3395 87.16 73.6195 86.78 73.6195 85.98ZM75.2795 94.38V93.28H81.5595V94.38H75.2795ZM97.16 79.78H88.74V82.02H94.14C93.74 84.3 91.64 86.24 87.72 87.24L88.78 89.42C92.58 88.42 95.18 86.5 96.38 83.72H99.9V85.36H96.1V87.58H99.9V89.38H102.72V78.68H99.9V81.52H97.02C97.12 80.96 97.16 80.38 97.16 79.78ZM90.36 92.32H99.9V96.68H102.72V90.14H90.36V92.32ZM110.15 79.48V87.38H118.89V79.48H116.11V81.52H112.91V79.48H110.15ZM111.89 90.6H121.15V91.52H111.93V96.64H124.41V94.48H114.69V93.52H123.91V88.48H111.89V90.6ZM112.91 85.22V83.6H116.11V85.22H112.91ZM121.13 87.82H123.91V84.34H126.23V82.06H123.91V78.68H121.13V87.82ZM127.15 92.54V94.8H143.49V92.54H139.53V89.36H142.13V87.16H139.81V82.26H142.19V80.04H128.35V82.26H130.73V87.16H128.47V89.36H131.05V92.54H127.15ZM133.55 87.16V82.26H137.03V87.16H133.55ZM133.83 92.54V89.36H136.75V92.54H133.83Z" fill="white"/>
<line x1="72.5" y1="214" x2="100.5" y2="214" stroke="#0055FF" stroke-width="6"/>
</svg>
