<svg width="173" height="217" viewBox="0 0 173 217" fill="none" xmlns="http://www.w3.org/2000/svg">
<circle cx="86.5" cy="86" r="86" fill="#0055FF"/>
<path d="M39.6092 84.22V86.46H42.9292V96.78H45.7092V78.66H42.9292V84.22H39.6092ZM30.1892 90.9L31.9292 93.14C33.9092 92.16 35.2292 90.38 35.9892 88.16C36.7292 90.26 38.0092 91.92 39.9492 92.86L41.6092 90.62C38.5292 89.28 37.4092 85.96 37.4092 82.52V80.02H34.5892V82.52C34.5892 85.96 33.3492 89.46 30.1892 90.9ZM48.0097 89.24V91.44H51.6497V96.74H54.4697V91.44H57.9097V96.74H60.7297V91.44H64.3497V89.24H48.0097ZM49.8497 81.42H59.6497V82.58H49.8897V88.08H62.9297V85.86H52.7297V84.62H62.4897V79.22H49.8497V81.42ZM81.5395 78.68V89.26H84.3395V85.24H86.6795V82.94H84.3395V78.68H81.5395ZM70.0795 82.38H80.6795V80.18H76.7795V78.54H73.9795V80.18H70.0795V82.38ZM70.9395 85.98C70.9395 87.9 72.7595 89.18 75.3995 89.18C78.0195 89.18 79.8595 87.9 79.8595 85.98C79.8595 84.08 78.0195 82.78 75.3995 82.78C72.7595 82.78 70.9395 84.08 70.9395 85.98ZM72.4995 96.56H84.3395V89.94H81.5595V91.2H75.2795V89.94H72.4995V96.56ZM73.6195 85.98C73.6195 85.2 74.3395 84.82 75.3995 84.82C76.4395 84.82 77.1595 85.2 77.1595 85.98C77.1595 86.78 76.4395 87.16 75.3995 87.16C74.3395 87.16 73.6195 86.78 73.6195 85.98ZM75.2795 94.38V93.28H81.5595V94.38H75.2795ZM97.16 79.78H88.74V82.02H94.14C93.74 84.3 91.64 86.24 87.72 87.24L88.78 89.42C92.58 88.42 95.18 86.5 96.38 83.72H99.9V85.36H96.1V87.58H99.9V89.38H102.72V78.68H99.9V81.52H97.02C97.12 80.96 97.16 80.38 97.16 79.78ZM90.36 92.32H99.9V96.68H102.72V90.14H90.36V92.32ZM110.15 79.48V87.38H118.89V79.48H116.11V81.52H112.91V79.48H110.15ZM111.89 90.6H121.15V91.52H111.93V96.64H124.41V94.48H114.69V93.52H123.91V88.48H111.89V90.6ZM112.91 85.22V83.6H116.11V85.22H112.91ZM121.13 87.82H123.91V84.34H126.23V82.06H123.91V78.68H121.13V87.82ZM127.15 92.54V94.8H143.49V92.54H139.53V89.36H142.13V87.16H139.81V82.26H142.19V80.04H128.35V82.26H130.73V87.16H128.47V89.36H131.05V92.54H127.15ZM133.55 87.16V82.26H137.03V87.16H133.55ZM133.83 92.54V89.36H136.75V92.54H133.83Z" fill="white"/>
<line x1="72.5" y1="214" x2="100.5" y2="214" stroke="#0055FF" stroke-width="6"/>
</svg>
