<svg width="173" height="217" viewBox="0 0 173 217" fill="none" xmlns="http://www.w3.org/2000/svg">
<circle cx="86.5" cy="86" r="86" fill="white"/>
<path d="M39.6092 84.22V86.46H42.9292V96.78H45.7092V78.66H42.9292V84.22H39.6092ZM30.1892 90.9L31.9292 93.14C33.9092 92.16 35.2292 90.38 35.9892 88.16C36.7292 90.26 38.0092 91.92 39.9492 92.86L41.6092 90.62C38.5292 89.28 37.4092 85.96 37.4092 82.52V80.02H34.5892V82.52C34.5892 85.96 33.3492 89.46 30.1892 90.9ZM48.0097 89.24V91.44H51.6497V96.74H54.4697V91.44H57.9097V96.74H60.7297V91.44H64.3497V89.24H48.0097ZM49.8497 81.42H59.6497V82.58H49.8897V88.08H62.9297V85.86H52.7297V84.62H62.4897V79.22H49.8497V81.42ZM70.6395 80.38V82.7H74.2995V83.42C74.2995 86.46 72.9995 89.78 69.8795 91.16L71.4595 93.36C73.5795 92.42 74.9995 90.54 75.7795 88.26C76.5795 90.34 77.9595 92.04 80.0195 92.92L81.5595 90.7C78.4595 89.44 77.1595 86.32 77.1595 83.42V82.7H80.7795V80.38H70.6395ZM82.2795 96.74H85.0995V78.68H82.2795V96.74ZM100.04 78.68V89.12H96.7V91.02H100.04V92.34H102.84V78.68H100.04ZM87.48 86.58L87.84 88.8C89.16 88.8 90.62 88.78 92.16 88.72V91.06H89.68V96.44H103.26V94.22H92.48V91.92H94.96V88.54C96.36 88.42 97.76 88.26 99.12 88.02L98.96 86.06C95.16 86.52 90.78 86.56 87.48 86.58ZM88.76 82.52C88.76 84.46 90.64 85.74 93.28 85.74C95.92 85.74 97.8 84.46 97.8 82.52C97.8 80.6 95.92 79.26 93.28 79.26C90.64 79.26 88.76 80.6 88.76 82.52ZM91.42 82.52C91.42 81.68 92.2 81.3 93.28 81.3C94.4 81.3 95.14 81.68 95.14 82.52C95.14 83.32 94.4 83.7 93.28 83.7C92.2 83.7 91.42 83.32 91.42 82.52ZM121.93 78.68V96.74H124.73V78.68H121.93ZM109.65 91.54L111.11 93.76C117.61 90.62 119.37 86.12 119.37 80.52H110.63V82.74H116.49C116.09 86.66 114.19 89.36 109.65 91.54ZM138.57 78.68V91.54H141.37V85.9H143.73V83.62H141.37V78.68H138.57ZM126.97 87.66L128.13 89.86C133.57 88.34 136.51 84.98 136.51 80.02H127.77V82.24H133.45C133.03 84.62 130.89 86.6 126.97 87.66ZM129.63 96.44H141.97V94.22H132.43V90.24H129.63V96.44Z" fill="#0055FF"/>
<line x1="72.5" y1="214" x2="100.5" y2="214" stroke="#0055FF" stroke-width="6"/>
</svg>
