<svg width="173" height="217" viewBox="0 0 173 217" fill="none" xmlns="http://www.w3.org/2000/svg">
<circle cx="86.5" cy="86" r="86" fill="white"/>
<path d="M51.0144 80.1V89.02H59.6144V87.54H62.6544V91.82H65.4744V78.7H62.6544V81.44H59.6144V80.1H51.0144ZM53.4344 96.44H65.8344V94.22H56.2544V90.56H53.4344V96.44ZM53.7744 86.82V82.3H56.8744V86.82H53.7744ZM59.6144 85.32V83.66H62.6544V85.32H59.6144ZM77.5548 82.64V84.9H80.1148V88.58H82.9348V78.68H80.1148V82.64H77.5548ZM67.6348 86.7L69.0348 88.92C71.1348 88.24 72.5148 86.86 73.2948 85.12C74.0748 86.68 75.3748 87.92 77.3348 88.56L78.7148 86.4C76.0548 85.5 74.8748 83.58 74.6948 81.66H78.0948V79.44H68.3748V81.66H71.8148C71.6348 83.72 70.4348 85.78 67.6348 86.7ZM70.8548 96.56H82.9348V89.26H80.1548V90.78H73.6148V89.26H70.8548V96.56ZM73.6148 94.32V92.94H80.1548V94.32H73.6148ZM102.145 78.68V96.74H104.945V78.68H102.145ZM89.8647 91.54L91.3247 93.76C97.8247 90.62 99.5847 86.12 99.5847 80.52H90.8447V82.74H96.7047C96.3047 86.66 94.4047 89.36 89.8647 91.54ZM118.785 78.68V91.54H121.585V85.9H123.945V83.62H121.585V78.68H118.785ZM107.185 87.66L108.345 89.86C113.785 88.34 116.725 84.98 116.725 80.02H107.985V82.24H113.665C113.245 84.62 111.105 86.6 107.185 87.66ZM109.845 96.44H122.185V94.22H112.645V90.24H109.845V96.44Z" fill="#0055FF"/>
<line x1="72.5" y1="214" x2="100.5" y2="214" stroke="#0055FF" stroke-width="6"/>
</svg>
