<svg width="20" height="20" viewBox="0 0 20 20" fill="none" xmlns="http://www.w3.org/2000/svg">
<path fill-rule="evenodd" clip-rule="evenodd" d="M10.0001 4.86485C7.16397 4.86485 4.86491 7.16391 4.86491 10C4.86491 12.836 7.16397 15.1351 10.0001 15.1351C12.8361 15.1351 15.1351 12.836 15.1351 10C15.1351 7.16391 12.8361 4.86485 10.0001 4.86485ZM10.0001 13.3333C8.15909 13.3333 6.66671 11.8409 6.66671 10C6.66671 8.15902 8.15909 6.66664 10.0001 6.66664C11.841 6.66664 13.3333 8.15902 13.3333 10C13.3333 11.8409 11.841 13.3333 10.0001 13.3333Z" fill="white"/>
<path d="M15.338 5.86195C16.0007 5.86195 16.538 5.32472 16.538 4.66195C16.538 3.99922 16.0007 3.46199 15.338 3.46199C14.6752 3.46199 14.138 3.99922 14.138 4.66195C14.138 5.32472 14.6752 5.86195 15.338 5.86195Z" fill="white"/>
<path fill-rule="evenodd" clip-rule="evenodd" d="M10 0C7.28414 0 6.94359 0.0115234 5.87699 0.0601953C4.81262 0.10875 4.08566 0.277773 3.44957 0.525C2.79199 0.780547 2.2343 1.1225 1.6784 1.67844C1.12246 2.23434 0.780508 2.79203 0.524961 3.44961C0.277734 4.08566 0.108711 4.81262 0.0601562 5.87699C0.0114844 6.94359 0 7.28414 0 10C0 12.7158 0.0114844 13.0563 0.0601562 14.1229C0.108711 15.1873 0.277734 15.9143 0.524961 16.5503C0.780508 17.2079 1.12246 17.7656 1.6784 18.3216C2.2343 18.8775 2.79199 19.2194 3.44957 19.475C4.08566 19.7221 4.81262 19.8912 5.87699 19.9398C6.94359 19.9884 7.28414 19.9999 10 19.9999C12.7158 19.9999 13.0563 19.9884 14.1229 19.9398C15.1873 19.8912 15.9143 19.7221 16.5503 19.475C17.2079 19.2194 17.7656 18.8775 18.3216 18.3216C18.8775 17.7656 19.2194 17.2079 19.475 16.5503C19.7221 15.9143 19.8912 15.1873 19.9398 14.1229C19.9884 13.0563 19.9999 12.7158 19.9999 10C19.9999 7.28414 19.9884 6.94359 19.9398 5.87699C19.8912 4.81262 19.7221 4.08566 19.475 3.44961C19.2194 2.79203 18.8775 2.23434 18.3216 1.67844C17.7656 1.1225 17.2079 0.780547 16.5503 0.525C15.9143 0.277773 15.1873 0.10875 14.1229 0.0601953C13.0563 0.0115234 12.7158 0 10 0ZM10 1.80184C12.6701 1.80184 12.9864 1.81199 14.0408 1.86012C15.0158 1.90461 15.5453 2.0675 15.8977 2.20441C16.3644 2.38582 16.6975 2.60254 17.0475 2.95246C17.3974 3.30238 17.6141 3.63555 17.7955 4.10226C17.9325 4.45465 18.0954 4.98414 18.1398 5.9591C18.1879 7.01359 18.1981 7.32988 18.1981 10C18.1981 12.6701 18.1879 12.9864 18.1398 14.0408C18.0954 15.0158 17.9325 15.5453 17.7955 15.8977C17.6141 16.3644 17.3974 16.6975 17.0475 17.0475C16.6975 17.3974 16.3644 17.6141 15.8977 17.7955C15.5453 17.9325 15.0158 18.0954 14.0408 18.1398C12.9865 18.1879 12.6703 18.1981 10 18.1981C7.32965 18.1981 7.01348 18.1879 5.9591 18.1398C4.98414 18.0954 4.45465 17.9325 4.10226 17.7955C3.63551 17.6141 3.30238 17.3974 2.95242 17.0475C2.6025 16.6975 2.38578 16.3644 2.20441 15.8977C2.06746 15.5453 1.90457 15.0158 1.86008 14.0408C1.81195 12.9864 1.8018 12.6701 1.8018 10C1.8018 7.32988 1.81195 7.01359 1.86008 5.9591C1.90457 4.98414 2.06746 4.45465 2.20441 4.10226C2.38578 3.63555 2.6025 3.30238 2.95242 2.95246C3.30238 2.60254 3.63551 2.38582 4.10226 2.20441C4.45465 2.0675 4.98414 1.90461 5.9591 1.86012C7.01359 1.81199 7.32988 1.80184 10 1.80184Z" fill="white"/>
</svg>
