<svg width="38" height="26" viewBox="0 0 38 26" fill="none" xmlns="http://www.w3.org/2000/svg">
<path d="M21.9974 15.9532V11.6591C21.9974 9.80322 20.4936 8.30273 18.641 8.30273C16.7884 8.30273 15.2847 9.80651 15.2847 11.6591V15.9532L18.641 18.306L21.9974 15.9532Z" fill="#394FFF"/>
<path d="M4.22842 9.03029C3.01421 8.17804 1.33933 8.47419 0.487077 9.6884C-0.365174 10.9026 -0.0690249 12.5775 1.14518 13.4297C2.35939 14.282 4.03428 13.9858 4.88653 12.7716C5.73878 11.5574 5.44263 9.88254 4.22842 9.03029Z" fill="#01E5E3"/>
<path d="M18.6409 5.61089C20.1238 5.61089 21.326 4.40873 21.326 2.9258C21.326 1.44287 20.1238 0.240723 18.6409 0.240723C17.158 0.240723 15.9558 1.44287 15.9558 2.9258C15.9558 4.40873 17.158 5.61089 18.6409 5.61089Z" fill="url(#paint0_linear_402_3696)"/>
<path d="M36.7947 9.69182C35.9425 8.47761 34.2676 8.18146 33.0534 9.03371C31.8392 9.88596 31.543 11.5608 32.3953 12.7751C33.2475 13.9893 34.9224 14.2854 36.1366 13.4332C37.3508 12.5809 37.647 10.906 36.7947 9.69182Z" fill="#394FFF"/>
<path d="M30.1939 14.3148C29.1311 12.7946 27.035 12.426 25.5181 13.4889L22.0005 15.9535V22.403C22.0005 22.403 22.0005 22.4227 22.0005 22.4326C22.0071 21.3664 21.5102 20.3135 20.5691 19.6521L18.6442 18.3029L16.7192 19.6521C15.7781 20.3102 15.2812 21.3631 15.2878 22.4326C15.2878 22.4227 15.2878 22.4128 15.2878 22.403V15.9535L11.7702 13.4889C10.25 12.426 8.1572 12.7946 7.09435 14.3148C6.03151 15.835 6.40005 17.9278 7.92028 18.9907L16.7225 25.1539C16.7225 25.1539 16.7356 25.1637 16.7422 25.167C16.7225 25.1539 16.706 25.1374 16.6863 25.1242C16.7192 25.1473 16.7488 25.1703 16.7817 25.19C16.8344 25.2262 16.887 25.2591 16.9397 25.2888C16.9429 25.2888 16.9462 25.2921 16.9495 25.2953C16.9923 25.3184 17.0318 25.3447 17.0746 25.3644C17.1239 25.3908 17.1766 25.4171 17.2259 25.4401C17.2786 25.4632 17.3312 25.4862 17.3839 25.5092C17.4267 25.5257 17.4727 25.5421 17.5188 25.5586C17.578 25.5783 17.6405 25.6014 17.6998 25.6178C17.7327 25.6277 17.7656 25.6343 17.7952 25.6441C17.8051 25.6441 17.8182 25.6507 17.8281 25.654C17.8906 25.6705 17.9531 25.6836 18.0157 25.6968C18.0387 25.7001 18.065 25.7034 18.088 25.71C18.1144 25.7132 18.1374 25.7165 18.1637 25.7231C18.2197 25.7297 18.2756 25.7396 18.3283 25.7429C18.3546 25.7429 18.3809 25.7461 18.4072 25.7494C18.4434 25.7494 18.4829 25.7527 18.5191 25.756C18.5586 25.756 18.5981 25.7593 18.6409 25.7593C18.6803 25.7593 18.7198 25.7593 18.7626 25.756C18.8021 25.756 18.8383 25.756 18.8745 25.7494C18.9008 25.7494 18.9271 25.7494 18.9535 25.7429C19.0094 25.7363 19.0653 25.7297 19.118 25.7231C19.1443 25.7198 19.1673 25.7165 19.1937 25.71C19.2167 25.7067 19.243 25.7034 19.2661 25.6968C19.3286 25.6836 19.3911 25.6705 19.4536 25.654C19.4635 25.654 19.4767 25.6474 19.4865 25.6441C19.5194 25.6343 19.5523 25.6277 19.582 25.6178C19.6445 25.6014 19.7037 25.5783 19.7629 25.5586C19.809 25.5421 19.8518 25.5257 19.8978 25.5092C19.9505 25.4862 20.0031 25.4632 20.0558 25.4401C20.1084 25.4171 20.1578 25.3908 20.2104 25.3644C20.2532 25.3414 20.296 25.3184 20.3355 25.2953C20.3388 25.2953 20.3421 25.2921 20.3454 25.2888C20.398 25.2559 20.4539 25.223 20.5066 25.19C20.5395 25.167 20.5691 25.1473 20.602 25.1242C20.5823 25.1374 20.5658 25.1539 20.5461 25.167C20.5527 25.1637 20.5592 25.1604 20.5658 25.1539L29.368 18.9907C30.8883 17.9278 31.2568 15.8317 30.1939 14.3148ZM15.89 24.3312C15.89 24.3312 15.8834 24.3213 15.8801 24.3148C15.8998 24.3444 15.9229 24.3707 15.9426 24.397C15.9262 24.374 15.9064 24.3542 15.89 24.3312ZM21.3918 24.3312C21.3753 24.3542 21.3556 24.374 21.3391 24.397C21.3588 24.3674 21.3819 24.3411 21.4016 24.3148C21.3983 24.3213 21.395 24.3246 21.3918 24.3312Z" fill="url(#paint1_linear_402_3696)"/>
<defs>
<linearGradient id="paint0_linear_402_3696" x1="15.9558" y1="2.9258" x2="21.326" y2="2.9258" gradientUnits="userSpaceOnUse">
<stop stop-color="#01E5E3"/>
<stop offset="0.04" stop-color="#05D7E5"/>
<stop offset="0.19" stop-color="#15AEED"/>
<stop offset="0.35" stop-color="#228BF3"/>
<stop offset="0.5" stop-color="#2C71F8"/>
<stop offset="0.66" stop-color="#335EFC"/>
<stop offset="0.83" stop-color="#3752FE"/>
<stop offset="1" stop-color="#394FFF"/>
</linearGradient>
<linearGradient id="paint1_linear_402_3696" x1="6.47902" y1="19.3197" x2="30.7994" y2="19.3197" gradientUnits="userSpaceOnUse">
<stop stop-color="#01E5E3"/>
<stop offset="0.02" stop-color="#04DCE4"/>
<stop offset="0.14" stop-color="#14B1EC"/>
<stop offset="0.26" stop-color="#218EF3"/>
<stop offset="0.38" stop-color="#2B72F8"/>
<stop offset="0.5" stop-color="#335EFC"/>
<stop offset="0.63" stop-color="#3752FE"/>
<stop offset="0.75" stop-color="#394FFF"/>
</linearGradient>
</defs>
</svg>
