<svg width="95" height="17" viewBox="0 0 95 17" fill="none" xmlns="http://www.w3.org/2000/svg">
<path d="M6.09408 7.92284L12.3461 1.18711L12.4415 1.08181V0.496094H8.49947L8.39088 0.614553L3.47482 6.08343V0.496094H0V15.8169H3.47482V9.90046L8.96015 15.7017L9.06873 15.8136H12.9845V15.139L12.8858 15.0337L6.09408 7.91955V7.92284Z" fill="white"/>
<path d="M23.9453 0.516113H23.5833V9.23934C23.5833 11.5657 22.4152 12.9017 20.3783 12.9017C18.2099 12.9017 16.9661 11.5657 16.9661 9.23934V0.516113H13.511V9.23934C13.511 13.4249 16.1994 16.1264 20.3586 16.1264C24.5178 16.1264 27.0384 13.4874 27.0384 9.23934V0.516113H23.9453Z" fill="white"/>
<path d="M35.7057 6.16976C33.5932 5.91968 32.7706 5.50508 32.7706 4.6956C32.7706 3.70844 33.7643 3.11943 35.4326 3.11943C36.9134 3.11943 38.1605 3.86639 38.5849 4.57056L38.7593 4.86013L39.0621 4.70547L41.2503 3.58011L41.5662 3.41887L41.4082 3.09969C40.4112 1.07272 38.3184 0 35.3503 0C32.3592 0.0230338 29.3418 1.45771 29.3418 4.61663C29.3418 8.19345 32.402 9.03912 35.3964 9.39779C36.7126 9.53928 38.4566 9.8782 38.4566 11.1845C38.4566 12.8792 36.1631 13.0108 35.4622 13.0108C33.6261 13.0108 32.2178 12.2309 31.6913 10.9246L31.5432 10.5561L31.1911 10.7403L28.8976 11.9282L28.6047 12.0796L28.7298 12.3856C29.7729 14.9522 31.9611 16.196 35.426 16.196C39.4306 16.196 41.9183 14.2744 41.9183 11.1845C41.9183 7.45307 38.9403 6.57121 35.7222 6.17635L35.7057 6.16976ZM39.5293 7.57153C39.8847 7.76897 40.2072 7.9993 40.4836 8.279C40.2105 7.9993 39.8847 7.76897 39.5293 7.57153ZM33.376 6.01182C33.2279 5.94272 33.093 5.86703 32.9746 5.78148C33.093 5.86703 33.2279 5.94601 33.376 6.01182ZM30.7732 1.95129C30.5527 2.17176 30.3586 2.41526 30.2006 2.68179C30.3619 2.41197 30.5527 2.16847 30.7732 1.95129ZM29.8255 3.56695C29.74 3.88942 29.6939 4.23493 29.6939 4.61005C29.6939 4.23493 29.74 3.88613 29.8255 3.56695ZM36.1302 9.12796C36.354 9.16745 36.5711 9.21022 36.7751 9.26287C36.5711 9.21022 36.3572 9.16745 36.1302 9.12796ZM31.9315 15.2319C30.9344 14.8107 30.1118 14.1427 29.5096 13.1622C29.3385 12.8825 29.1839 12.5764 29.0457 12.2408L31.3392 11.0529C31.9841 12.6587 33.6755 13.3662 35.4458 13.3662C37.2161 13.3662 38.8021 12.7607 38.8021 11.178C38.8021 12.764 37.1766 13.3662 35.4458 13.3662C33.7149 13.3662 31.9841 12.6587 31.3392 11.0529L29.0457 12.2408C29.1806 12.5732 29.3352 12.8792 29.5096 13.1622C30.1118 14.1427 30.9344 14.8107 31.9315 15.2319ZM37.736 15.561C38.0979 15.4688 38.4467 15.357 38.7758 15.2155C38.45 15.3537 38.1012 15.4688 37.736 15.561Z" fill="white"/>
<path d="M44.2084 0.496094H43.8464V0.858053V15.4516V15.8136H44.2084H46.9395H47.3015V15.4516V0.858053V0.496094H46.9395H44.2084Z" fill="white"/>
<path d="M49.8583 0.496094H49.4963V0.858053V3.35886V3.72082H49.8583H54.1261V15.4516V15.8136H54.4881H57.239H57.6009V15.4516V3.72082H61.8688H62.2307V3.35886V0.858053V0.496094H61.8688H49.8583Z" fill="white"/>
<path d="M76.3801 0.516113H76.1959L76.0873 0.664188L71.8129 6.5378L67.5385 0.664188L67.4299 0.516113H63.7148V15.8369H67.1897V5.97183L71.1844 11.4374L71.293 11.5855H72.2012L72.3097 11.4407L76.413 5.97183V15.8402H79.8879V0.516113H76.3768H76.3801Z" fill="white"/>
<path d="M88.453 6.16976C86.3405 5.91968 85.5179 5.50508 85.5179 4.6956C85.5179 3.70844 86.5116 3.11943 88.1799 3.11943C89.6607 3.11943 90.9078 3.86639 91.3323 4.57056L91.5067 4.86013L91.8094 4.70547L93.9976 3.58011L94.3135 3.41887L94.1555 3.09969C93.1585 1.07272 91.0657 0 88.0977 0C85.1066 0.0230338 82.0891 1.45771 82.0891 4.61663C82.0891 8.19345 85.1493 9.03912 88.1437 9.39779C89.4599 9.53928 91.2039 9.8782 91.2039 11.1845C91.2039 12.8792 88.9104 13.0108 88.2095 13.0108C86.3734 13.0108 84.9651 12.2309 84.4386 10.9246L84.2905 10.5561L83.9384 10.7403L81.6449 11.9282L81.3521 12.0796L81.4771 12.3856C82.5202 14.9522 84.7084 16.196 88.1733 16.196C92.1779 16.196 94.6656 14.2744 94.6656 11.1845C94.6656 7.45307 91.6876 6.57121 88.4695 6.17635L88.453 6.16976ZM92.2766 7.56824C92.632 7.76568 92.9545 7.99601 93.2309 8.27571C92.9578 7.99601 92.632 7.76568 92.2766 7.56824ZM86.1233 6.00853C85.9753 5.93943 85.8403 5.86374 85.7219 5.77819C85.8403 5.86374 85.9753 5.94272 86.1233 6.00853ZM93.8265 3.25434C93.481 2.55017 93.0137 2.00394 92.4642 1.58275C93.0137 2.00065 93.481 2.55017 93.8265 3.25434ZM83.5205 1.948C83.3 2.16847 83.1059 2.41197 82.948 2.6785C83.1092 2.40868 83.3 2.16518 83.5205 1.948ZM82.5728 3.56366C82.4873 3.88613 82.4412 4.23164 82.4412 4.60676C82.4412 4.23164 82.4873 3.88284 82.5728 3.56366ZM88.8775 9.12467C89.1013 9.16416 89.3184 9.20693 89.5225 9.25958C89.3184 9.20693 89.1046 9.16416 88.8775 9.12467ZM84.6788 15.2286C83.6817 14.8074 82.8591 14.1395 82.2569 13.1589C82.0858 12.8792 81.9312 12.5732 81.793 12.2375L84.0865 11.0496C84.7314 12.6554 86.4228 13.3629 88.1931 13.3629C89.9634 13.3629 91.5494 12.7574 91.5494 11.1747C91.5494 12.7607 89.9239 13.3629 88.1931 13.3629C86.4623 13.3629 84.7314 12.6554 84.0865 11.0496L81.793 12.2375C81.9279 12.5699 82.0826 12.8759 82.2569 13.1589C82.8591 14.1395 83.6817 14.8074 84.6788 15.2286ZM90.4833 15.5577C90.8453 15.4655 91.1941 15.3537 91.5231 15.2122C91.1974 15.3504 90.8486 15.4655 90.4833 15.5577Z" fill="white"/>
</svg>
