<svg preserveAspectRatio="none" width="100%" height="100%" overflow="visible" style="display: block;" viewBox="0 0 304.721 56.1241" fill="none" xmlns="http://www.w3.org/2000/svg">
<g id="Frame 2147225979">
<path id="Union" d="M41.4424 17.7627C45.5711 17.7627 48.9111 21.0806 48.9111 25.168V34.4981L56.709 29.0821C60.0859 26.7421 64.7382 27.5552 67.1045 30.9034H67.1172C69.4771 34.2514 68.6578 38.8638 65.2812 41.21L45.709 54.7989C45.6967 54.8109 45.6782 54.817 45.666 54.8292C45.7091 54.7986 45.746 54.7679 45.7891 54.7374C45.7214 54.7861 45.6539 54.8351 45.5801 54.8838C45.463 54.9633 45.3397 55.0312 45.2227 55.1045C45.2166 55.1045 45.2045 55.1158 45.1982 55.1163C45.1058 55.1651 45.0133 55.2207 44.9209 55.2696C44.8101 55.3245 44.6989 55.3787 44.582 55.4336C44.465 55.4886 44.3475 55.5381 44.2305 55.587C44.1319 55.6236 44.0331 55.6597 43.9346 55.6963C43.7991 55.7452 43.6637 55.7945 43.5283 55.8311C43.4545 55.8494 43.3863 55.8675 43.3125 55.8858C43.2879 55.8919 43.2629 55.8982 43.2383 55.9043C43.1027 55.9349 42.9669 55.9717 42.8252 55.9961C42.7698 56.0023 42.7204 56.0145 42.665 56.0206C42.6097 56.0267 42.5544 56.0389 42.499 56.045C42.3758 56.0633 42.2522 56.0816 42.1289 56.0938C42.0673 56.0999 42.0118 56.1065 41.9502 56.1065C41.864 56.1126 41.7835 56.1182 41.6973 56.1182C41.6111 56.1243 41.5188 56.1241 41.4326 56.1241C41.3402 56.1241 41.2535 56.1182 41.1611 56.1182C41.0751 56.1182 40.9952 56.1065 40.9092 56.1065C40.8476 56.1004 40.792 56.0938 40.7305 56.0938C40.6072 56.0816 40.4836 56.0633 40.3604 56.045C40.305 56.0389 40.2497 56.0327 40.1943 56.0206C40.139 56.0145 40.0895 56.0083 40.0342 55.9961C39.8986 55.9717 39.7567 55.941 39.6211 55.9043C39.5964 55.8982 39.5715 55.8919 39.5469 55.8858C39.473 55.8675 39.4049 55.8494 39.3311 55.8311C39.1894 55.7884 39.0603 55.7452 38.9248 55.6963C38.8262 55.6597 38.7275 55.6236 38.6289 55.587C38.5118 55.5381 38.3944 55.4886 38.2773 55.4336C38.1665 55.3848 38.0493 55.3306 37.9385 55.2696C37.846 55.2207 37.7536 55.1713 37.6611 55.1163C37.6549 55.1159 37.6428 55.1045 37.6367 55.1045C37.5196 55.0373 37.4022 54.9633 37.2852 54.8838C37.2175 54.8351 37.1438 54.7861 37.0762 54.7374C37.1193 54.7679 37.1561 54.7986 37.1992 54.8292C37.1875 54.8175 37.1591 54.8006 37.1562 54.7989L17.585 41.21C14.2019 38.87 13.3819 34.2515 15.748 30.9034C18.1081 27.5492 22.7666 26.7363 26.1436 29.0821L33.9639 34.5137V48.793C33.9454 46.4407 35.0545 44.1183 37.1436 42.6641L41.3408 39.7481L33.9736 34.6387V25.168C33.9737 21.0746 37.3138 17.7629 41.4424 17.7627ZM35.3008 52.9844C35.3377 53.0333 35.381 53.082 35.418 53.1309C35.3687 53.0698 35.3195 53.0084 35.2764 52.9473C35.2887 52.9595 35.3008 52.9844 35.3008 52.9844ZM47.416 53.1309C47.4529 53.0821 47.4963 53.0332 47.5332 52.9844C47.5455 52.9722 47.5515 52.9595 47.5576 52.9473C47.5084 53.0084 47.4591 53.0699 47.416 53.1309ZM41.5273 39.7598L45.709 42.6641C47.798 44.1183 48.9072 46.4407 48.8887 48.793V34.6534L41.5273 39.7598ZM1.08008 20.837C2.97191 18.1611 6.69944 17.5074 9.39844 19.3829C12.0975 21.2586 12.757 24.9548 10.8652 27.6309C8.9734 30.307 5.24499 30.9607 2.5459 29.085C-0.152877 27.2092 -0.811663 23.5129 1.08008 20.837ZM73.4922 19.3829C76.1974 17.5073 79.9197 18.1609 81.8115 20.837C83.7031 23.5191 83.0435 27.2093 80.3447 29.085C77.6395 30.9607 73.9172 30.307 72.0254 27.6309C70.1337 24.9487 70.7931 21.2586 73.4922 19.3829ZM41.4238 5.30481e-05C44.7215 -0.0136426 47.4059 2.62604 47.4199 5.89556C47.4337 9.1653 44.7715 11.8272 41.4736 11.8409C38.1759 11.8544 35.4914 9.21503 35.4775 5.94537C35.4639 2.67575 38.1261 0.0137506 41.4238 5.30481e-05Z" fill="url(#paint0_linear_0_43)"/>
<g id="Group">
<path id="Vector" d="M113.292 27.4968L126.775 13.0968L126.983 12.874V11.6197H118.477L118.244 11.8755L107.641 23.5688V11.6114H100.142V44.3725H107.641V31.722L119.468 44.1332L119.701 44.3725H128.148V42.9284L127.932 42.7056L113.284 27.4968H113.292Z" fill="var(--fill-0, #1C1C1C)"/>
<path id="Vector_2" d="M151.788 11.6644H151.006V30.3143C151.006 35.2904 148.484 38.1456 144.098 38.1456C139.42 38.1456 136.74 35.2904 136.74 30.3143V11.6644H129.291V30.3143C129.291 39.2597 135.084 45.0445 144.056 45.0445C153.028 45.0445 158.463 39.4 158.463 30.3143V11.6644H151.788ZM141.526 38.6078C142.317 38.8141 143.182 38.9213 144.098 38.9213C146.853 38.9213 148.942 37.8898 150.24 36.0413C148.942 37.8981 146.853 38.9213 144.098 38.9213C143.182 38.9213 142.317 38.8141 141.526 38.6078C140.735 38.4015 140.011 38.0879 139.37 37.6753C140.011 38.0879 140.735 38.3932 141.526 38.6078ZM130.074 30.3143C130.074 31.4861 130.173 32.5919 130.365 33.6152C130.173 32.5919 130.074 31.4944 130.074 30.3143ZM157.681 30.3143C157.681 39.5485 151.971 44.2688 144.056 44.2688C141.226 44.2688 138.546 43.6251 136.307 42.3295C138.546 43.6251 141.218 44.2605 144.056 44.2605C151.971 44.2605 157.681 39.532 157.681 30.3061V30.3143Z" fill="var(--fill-0, #1C1C1C)"/>
<path id="Vector_3" d="M177.154 23.752C172.602 23.2156 170.821 22.3327 170.821 20.5997C170.821 18.4871 172.968 17.2246 176.563 17.2246C179.759 17.2246 182.448 18.8255 183.355 20.3274L183.729 20.9463L184.379 20.6162L189.098 18.2066L189.78 17.86L189.439 17.175C187.292 12.8344 182.772 10.5403 176.372 10.5403C169.922 10.5898 163.413 13.6596 163.413 20.4099C163.413 28.0597 170.013 29.8669 176.472 30.6343C179.31 30.9397 183.072 31.6576 183.072 34.4551C183.072 38.0778 178.128 38.3584 176.613 38.3584C172.652 38.3584 169.614 36.6914 168.482 33.8939L168.157 33.1017L167.391 33.4896L162.448 36.0313L161.815 36.3531L162.081 37.005C164.329 42.4927 169.056 45.1582 176.522 45.1582C185.161 45.1582 190.521 41.0486 190.521 34.4386C190.521 26.4587 184.096 24.5772 177.154 23.7273V23.752ZM166.526 14.7242C166.051 15.1945 165.635 15.7144 165.286 16.2921C165.627 15.7144 166.051 15.1945 166.526 14.7242ZM164.478 18.1818C164.295 18.8667 164.195 19.6094 164.195 20.4181C164.195 19.6177 164.295 18.875 164.478 18.1818ZM178.078 30.0732C178.561 30.1557 179.027 30.2465 179.468 30.362C179.027 30.2547 178.561 30.1557 178.078 30.0732ZM170.962 43.7718C170.288 43.5985 169.639 43.3839 169.031 43.1281C166.884 42.2286 165.103 40.801 163.804 38.705C163.43 38.1025 163.097 37.4506 162.806 36.7409L167.749 34.1993C169.139 37.6322 172.785 39.1506 176.605 39.1506C180.425 39.1506 183.846 37.855 183.846 34.4716C183.846 37.8632 180.334 39.1506 176.605 39.1506C172.876 39.1506 169.139 37.6322 167.749 34.1993L162.806 36.7409C163.097 37.4506 163.43 38.1108 163.804 38.705C165.103 40.801 166.875 42.2286 169.031 43.1281C169.647 43.3839 170.288 43.5985 170.962 43.7718ZM181.541 43.8296C182.323 43.6315 183.072 43.3922 183.779 43.0951C183.072 43.3922 182.323 43.6398 181.541 43.8296ZM189.739 34.4551C189.739 32.128 189.139 30.362 188.124 29.0087C189.148 30.362 189.739 32.128 189.739 34.4551Z" fill="var(--fill-0, #1C1C1C)"/>
<path id="Vector_4" d="M195.491 11.6114H194.708V12.3871V43.5968V44.3725H195.491H201.384H202.166V43.5968V12.3871V11.6114H201.384H195.491Z" fill="var(--fill-0, #1C1C1C)"/>
<path id="Vector_5" d="M207.674 11.6114H206.892V12.3871V17.7345V18.5102H207.674H216.879V43.5968V44.3725H217.662H223.596H224.378V43.5968V18.5102H233.575H234.358V17.7345V12.3871V11.6114H233.575H207.674Z" fill="var(--fill-0, #1C1C1C)"/>
<path id="Vector_6" d="M264.879 11.6644H264.479L264.246 11.9863L255.033 24.5461L245.819 11.9863L245.586 11.6644H237.571V44.4255H245.07V23.3248L253.685 35.0098L253.918 35.3234H255.874L256.107 35.0098L264.954 23.3165V44.4173H272.453V11.6644H264.879Z" fill="var(--fill-0, #1C1C1C)"/>
<path id="Vector_7" d="M291.355 24.1778C286.802 23.6414 285.021 22.7585 285.021 21.0255C285.021 18.9129 287.168 17.6504 290.764 17.6504C293.96 17.6504 296.648 19.2513 297.555 20.7532L297.93 21.3721L298.579 21.042L303.298 18.6324L303.981 18.2858L303.639 17.6008C301.492 13.2602 296.973 10.9661 290.572 10.9661C284.122 11.0156 277.613 14.0854 277.613 20.8357C277.613 28.4855 284.214 30.2927 290.672 31.0601C293.51 31.3655 297.272 32.0834 297.272 34.8809C297.272 38.5036 292.328 38.7842 290.814 38.7842C286.852 38.7842 283.814 37.1172 282.682 34.3197L282.358 33.5275L281.592 33.9154L276.648 36.4571L276.015 36.7789L276.282 37.4308C278.529 42.9185 283.256 45.5839 290.722 45.5839C299.361 45.5839 304.721 41.4744 304.721 34.8644C304.721 26.8845 298.296 25.003 291.355 24.1531V24.1778ZM303.939 34.8809C303.939 32.5538 303.34 30.7878 302.324 29.4345C303.348 30.7878 303.939 32.5538 303.939 34.8809ZM302.957 17.9392C302.208 16.4373 301.201 15.2655 300.019 14.366C301.201 15.2655 302.208 16.429 302.957 17.9392ZM280.726 15.15C280.252 15.6203 279.836 16.1402 279.486 16.7179C279.827 16.1402 280.252 15.6203 280.726 15.15ZM278.687 18.6076C278.504 19.2925 278.404 20.0352 278.404 20.8439C278.404 20.0435 278.504 19.3008 278.687 18.6076ZM292.279 30.499C292.761 30.5815 293.227 30.6723 293.668 30.7878C293.227 30.6805 292.761 30.5815 292.279 30.499ZM285.162 44.1976C284.488 44.0243 283.839 43.8097 283.231 43.5539C281.084 42.6544 279.311 41.2268 278.005 39.1308C277.63 38.5283 277.297 37.8764 277.006 37.1667L281.95 34.6251C283.34 38.058 286.985 39.5764 290.805 39.5764C294.626 39.5764 298.046 38.2808 298.046 34.8974C298.046 38.289 294.534 39.5764 290.805 39.5764C287.077 39.5764 283.34 38.058 281.95 34.6251L277.006 37.1667C277.297 37.8764 277.63 38.5366 278.005 39.1308C279.303 41.2268 281.076 42.6544 283.231 43.5539C283.847 43.8097 284.488 44.0243 285.162 44.1976ZM295.749 44.2554C296.532 44.0573 297.281 43.818 297.988 43.5209C297.281 43.818 296.532 44.0656 295.749 44.2554Z" fill="var(--fill-0, #1C1C1C)"/>
</g>
</g>
<defs>
<linearGradient id="paint0_linear_0_43" x1="1.00142" y1="22.5327" x2="67.4203" y2="38.6258" gradientUnits="userSpaceOnUse">
<stop stop-color="#0091FF"/>
<stop offset="0.682692" stop-color="#0055FF"/>
<stop offset="1" stop-color="#004DFF"/>
</linearGradient>
</defs>
</svg>
