<svg width="16" height="16" viewBox="0 0 16 16" fill="none" xmlns="http://www.w3.org/2000/svg">
<g clip-path="url(#clip0_3092_16172)">
<mask id="mask0_3092_16172" style="mask-type:alpha" maskUnits="userSpaceOnUse" x="0" y="0" width="16" height="16">
<rect width="16" height="16" fill="#D9D9D9"/>
</mask>
<g mask="url(#mask0_3092_16172)">
<path d="M8.33226 10.8846C8.42548 10.7937 8.47209 10.683 8.47209 10.5524C8.47209 10.4219 8.42665 10.31 8.33576 10.2169C8.24498 10.1238 8.13432 10.0773 8.00376 10.0773C7.8732 10.0773 7.76137 10.1226 7.66826 10.2134C7.57504 10.3042 7.52843 10.4149 7.52843 10.5454C7.52843 10.676 7.57387 10.7879 7.66476 10.8811C7.75554 10.9742 7.8662 11.0208 7.99676 11.0208C8.12732 11.0208 8.23915 10.9754 8.33226 10.8846ZM7.56693 8.85159H8.43359V4.85159H7.56693V8.85159ZM8.00593 14.0669C7.17137 14.0669 6.38537 13.909 5.64793 13.5933C4.91048 13.2775 4.26504 12.843 3.71159 12.2898C3.15815 11.7365 2.72343 11.0916 2.40743 10.3549C2.09154 9.61837 1.93359 8.83132 1.93359 7.99376C1.93359 7.1562 2.09148 6.37148 2.40726 5.63959C2.72304 4.9077 3.15754 4.26504 3.71076 3.71159C4.26398 3.15815 4.90893 2.72343 5.64559 2.40743C6.38215 2.09154 7.1692 1.93359 8.00676 1.93359C8.84432 1.93359 9.62904 2.09148 10.3609 2.40726C11.0928 2.72304 11.7355 3.15754 12.2889 3.71076C12.8424 4.26398 13.2771 4.90759 13.5931 5.64159C13.909 6.3757 14.0669 7.16004 14.0669 7.99459C14.0669 8.82915 13.909 9.61515 13.5933 10.3526C13.2775 11.09 12.843 11.7355 12.2898 12.2889C11.7365 12.8424 11.0929 13.2771 10.3589 13.5931C9.62482 13.909 8.84048 14.0669 8.00593 14.0669ZM8.00026 13.2003C9.4447 13.2003 10.6725 12.6947 11.6836 11.6836C12.6947 10.6725 13.2003 9.4447 13.2003 8.00026C13.2003 6.55582 12.6947 5.32804 11.6836 4.31693C10.6725 3.30582 9.4447 2.80026 8.00026 2.80026C6.55582 2.80026 5.32804 3.30582 4.31693 4.31693C3.30582 5.32804 2.80026 6.55582 2.80026 8.00026C2.80026 9.4447 3.30582 10.6725 4.31693 11.6836C5.32804 12.6947 6.55582 13.2003 8.00026 13.2003Z" fill="#E52222"/>
</g>
</g>
<defs>
<clipPath id="clip0_3092_16172">
<rect width="16" height="16" fill="white"/>
</clipPath>
</defs>
</svg>
