<svg width="48" height="48" viewBox="0 0 48 48" fill="none" xmlns="http://www.w3.org/2000/svg">
<path fill-rule="evenodd" clip-rule="evenodd" d="M4.20007 24.0002C4.20007 13.065 13.0648 4.2002 24 4.2002C34.9352 4.2002 43.7999 13.065 43.7999 24.0002C43.7999 34.9354 34.9352 43.8002 24 43.8002C13.0648 43.8002 4.20007 34.9354 4.20007 24.0002ZM33.2934 19.7519C33.9848 19.0376 33.9662 17.898 33.2519 17.2066C32.5376 16.5152 31.398 16.5338 30.7066 17.2481L21.3548 26.9101L17.2951 22.7044C16.6047 21.9892 15.4652 21.9691 14.75 22.6595C14.0347 23.3499 14.0146 24.4894 14.705 25.2047L20.0579 30.7501C20.3968 31.1012 20.8638 31.2997 21.3518 31.3C21.8398 31.3003 22.307 31.1025 22.6464 30.7519L33.2934 19.7519Z" fill="#00BF40"/>
</svg>
