<svg width="20" height="20" viewBox="0 0 20 20" fill="none" xmlns="http://www.w3.org/2000/svg">
<mask id="mask0_3135_13108" style="mask-type:alpha" maskUnits="userSpaceOnUse" x="0" y="0" width="20" height="20">
<rect width="20" height="20" fill="#D9D9D9"/>
</mask>
<g mask="url(#mask0_3135_13108)">
<path d="M14.2274 13.4102C14.2274 14.5675 13.8255 15.552 13.0216 16.3638C12.2177 17.1757 11.2398 17.5817 10.088 17.5817C8.91498 17.5817 7.92915 17.1589 7.13053 16.3132C6.33192 15.4676 5.93262 14.4514 5.93262 13.2644V5.3765C5.93262 4.55386 6.2179 3.85462 6.78845 3.27879C7.35887 2.70296 8.0554 2.41504 8.87803 2.41504C9.71456 2.41504 10.4146 2.72032 10.9782 3.33087C11.5419 3.94143 11.8237 4.67191 11.8237 5.52233V12.9263C11.8237 13.4091 11.655 13.8217 11.3178 14.1642C10.9807 14.5066 10.5708 14.6777 10.088 14.6777C9.59345 14.6777 9.1779 14.4998 8.84137 14.144C8.50484 13.788 8.33658 13.3543 8.33658 12.843V5.319H9.4197V12.9263C9.4197 13.1135 9.48297 13.2717 9.60949 13.4009C9.73602 13.53 9.8929 13.5946 10.0801 13.5946C10.2672 13.5946 10.424 13.53 10.5505 13.4009C10.6771 13.2717 10.7403 13.1135 10.7403 12.9263V5.36858C10.7456 4.85039 10.5661 4.40914 10.2018 4.04483C9.83748 3.68052 9.39491 3.49837 8.87408 3.49837C8.3531 3.49837 7.91317 3.68879 7.55428 4.06962C7.19539 4.45059 7.01595 4.90011 7.01595 5.41816V13.4102C7.02123 14.265 7.32088 14.9898 7.91491 15.5848C8.50894 16.18 9.23331 16.4845 10.088 16.4984C10.9428 16.5123 11.6685 16.2043 12.2651 15.5744C12.8618 14.9447 13.1548 14.1886 13.1441 13.3061V5.319H14.2274V13.4102Z" fill="#9798A1"/>
</g>
</svg>
