<svg width="18" height="18" viewBox="0 0 18 18" fill="none" xmlns="http://www.w3.org/2000/svg">
<mask id="mask0_3135_15078" style="mask-type:alpha" maskUnits="userSpaceOnUse" x="0" y="0" width="18" height="18">
<rect width="18" height="18" fill="#D9D9D9"/>
</mask>
<g mask="url(#mask0_3135_15078)">
<path d="M8.51211 11.5416V4.94157L6.64442 6.80926L5.94767 6.12713L8.99961 3.0752L12.0515 6.12713L11.3548 6.80926L9.48711 4.94157V11.5416H8.51211ZM5.17517 14.0252C4.8373 14.0252 4.55273 13.9086 4.32148 13.6755C4.09023 13.4424 3.97461 13.157 3.97461 12.8194V11.6858H4.94961V12.8194C4.94961 12.8771 4.97367 12.93 5.0218 12.978C5.0698 13.0261 5.12267 13.0502 5.18042 13.0502H12.8188C12.8765 13.0502 12.9294 13.0261 12.9774 12.978C13.0255 12.93 13.0496 12.8771 13.0496 12.8194V11.6858H14.0246V12.8194C14.0246 13.157 13.908 13.4424 13.6747 13.6755C13.4415 13.9086 13.1559 14.0252 12.818 14.0252H5.17517Z" fill="#484950"/>
</g>
</svg>
